<ttFont>
          <CharString index="0">
            hlineto
            -104 callgsubr
          </CharString>
          <CharString index="1">
            -50 callgsubr
            endchar
          </CharString>
          <CharString index="2">
            -11 41 21 -104 callsubr
          </CharString>
          <CharString index="3">
            rlinecurve
            42 -107 callgsubr
          </CharString>
          <CharString index="4">
            10 8 16 4 15 return
          </CharString>
          <CharString index="5">
            -15 -100 callgsubr
            return
          </CharString>
          <CharString index="6">
            -76 callgsubr
            -6 -86 callsubr
            return
          </CharString>
          <CharString index="7">
            -40 callgsubr
            rrcurveto
            -85 -37 -95 -97 -77 vvcurveto
            -79 76 -115 103 -64 vhcurveto
            68 13 30 49 -10 -78 callgsubr
            -23 return
          </CharString>
          <CharString index="8">
            -100 callsubr
            -19 -22 return
          </CharString>
          <CharString index="9">
            -128 -95 callsubr
            return
          </CharString>
          <CharString index="10">
            rlinecurve
            41 -107 callgsubr
          </CharString>
          <CharString index="11">
            -102 callgsubr
            137 hlineto
            -5 -4 -4 -5 -4 128 callgsubr
            32 31 45 21 34 hhcurveto
            20 18 -23 -19 3 hvcurveto
            -2 -76 -89 -66 -116 331 callsubr
            -91 105 -98 116 -22 return
          </CharString>
          <CharString index="12">
            275 callsubr
            -7 -30 rcurveline
            return
          </CharString>
          <CharString index="13">
            -51 callgsubr
            -416 -89 callgsubr
            116 -74 callgsubr
            return
          </CharString>
          <CharString index="14">
            rmoveto
            -55 -47 -62 -53 -60 -52 rrcurveto
            -36 21 -12 33 43 vvcurveto
            108 60 104 103 46 vhcurveto
            39 -24 25 -30 20 -42 rrcurveto
            22 72 rmoveto
            -25 43 -34 43 -38 23 -185 -4 -139 -186 2 -159 rrcurveto
            -103 63 454 callsubr
            vhcurveto
            45 48 54 54 44 46 13 -13 rcurveline
            -44 -108 46 -41 84 -11 43 25 rlinecurve
            123 3 113 10 99 vhcurveto
            85 158 -20 44 -44 9 -90 -11 rlinecurve
            -12 -25 -5 -33 -49 vvcurveto
            return
          </CharString>
          <CharString index="15">
            hlineto
            14 -106 callsubr
          </CharString>
          <CharString index="16">
            hlineto
            -94 callsubr
            return
          </CharString>
          <CharString index="17">
            rmoveto
            79 -64 61 35 25 65 -33 51 rlinecurve
            -203 8 -117 -3 -171 -15 -14 -14 -1 -26 10 -25 23 -4 20 -5 15 -8 -5 -150 rcurveline
            -32 -155 -33 -98 -53 -144 3 -47 40 -30 72 -18 341 27 rcurveline
            29 38 14 65 -50 16 -90 -21 -108 -19 -101 -14 54 237 rcurveline
            79 2 75 -6 74 -6 22 36 9 47 -25 24 -68 -7 -74 -7 -82 -10 28 151 rcurveline
            30 93 67 10 46 -5 44 -4 rlinecurve
            return
          </CharString>
          <CharString index="18">
            490 callgsubr
            253 252 callsubr
            -3 -67 callsubr
            71 20 90 18 63 33 34 29 16 52 -10 30 -16 18 -19 14 -19 73 callgsubr
          </CharString>
          <CharString index="19">
            hlineto
            -79 callgsubr
            return
          </CharString>
          <CharString index="20">
            -4 -6 -5 -5 -4 -12 -31 28 -31 callgsubr
            22 20 -24 -20 4 hvcurveto
            -4 return
          </CharString>
          <CharString index="21">
            -13 -53 callsubr
            return
          </CharString>
          <CharString index="22">
            hlineto
            -15 -101 callsubr
            return
          </CharString>
          <CharString index="23">
            rmoveto
            -22 41 -44 9 -90 -10 -25 -82 -19 -91 -21 -115 -42 -61 -48 -46 -51 -48 -44 13 -19 15 -7 21 47 154 30 121 6 80 -38 45 -66 9 -61 -16 5 -93 -3 -100 1 -66 -63 -163 rcurveline
            15 -53 46 -53 148 -18 56 60 48 52 39 51 12 -10 rcurveline
            -47 -113 46 -40 78 -11 44 25 rlinecurve
            -3 123 2 113 8 99 rrcurveto
            endchar
          </CharString>
          <CharString index="24">
            -50 callsubr
            rcurveline
            return
          </CharString>
          <CharString index="25">
            -46 -20 -22 -51 -14 -61 25 37 callgsubr
            21 68 callgsubr
            -17 59 2 14 6 14 11 12 return
          </CharString>
          <CharString index="26">
            -91 callsubr
            295 56 49 60 51 40 32 rlinecurve
            return
          </CharString>
          <CharString index="27">
            -77 -63 -78 callsubr
            return
          </CharString>
          <CharString index="28">
            65 -82 134 -69 callgsubr
            4 8 rcurveline
            return
          </CharString>
          <CharString index="29">
            -18 rrcurveto
            -31 -44 35 29 4 -63 callsubr
            return
          </CharString>
          <CharString index="30">
            rmoveto
            -135 132 -175 125 148 207 225 165 -3 vhcurveto
            177 -2 -134 183 -102 hhcurveto
            -188 -184 -222 -218 1 hvcurveto
            475 57 rmoveto
            -35 -117 -69 -101 -115 -72 rrcurveto
            -72 55 -41 96 97 vvcurveto
            132 92 142 128 74 vhcurveto
            74 -85 25 -101 13 -120 rrcurveto
            return
          </CharString>
          <CharString index="31">
            -94 callgsubr
            -100 -101 callgsubr
            102 hlineto
            -27 -116 -74 -41 -77 -39 -74 -38 rlinecurve
            -33 17 -42 11 -49 4 -2 6 rcurveline
            99 27 87 55 25 97 -16 51 -33 41 -63 16 -88 5 -76 -21 -76 -52 -19 -33 30 -43 55 -17 52 46 55 22 58 -4 4 -7 rcurveline
            -16 -62 -46 -43 -77 -31 -22 -3 -23 -3 -22 -2 -23 -29 7 -56 45 -29 20 3 19 3 18 3 18 -3 18 -4 17 -5 5 -3 rcurveline
            -181 -73 -138 -35 -59 vvcurveto
            -41 78 -57 82 -7 vhcurveto
            117 -1 214 102 117 vvcurveto
            21 -10 21 -18 19 vhcurveto
            61 29 60 30 58 29 5 -8 rcurveline
            -35 -42 -67 -296 -18 callsubr
            return
          </CharString>
          <CharString index="32">
            69 138 rlineto
            return
          </CharString>
          <CharString index="33">
            -66 callgsubr
            121 hlineto
            return
          </CharString>
          <CharString index="34">
            -85 callsubr
            228 hlineto
            -80 -40 -73 -52 -48 -47 -16 -48 43 -55 53 -26 46 8 50 16 35 12 5 -8 rcurveline
            -67 -42 -77 -68 -30 -67 rrcurveto
            -56 57 -43 63 -19 vhcurveto
            82 14 116 59 97 70 8 -20 6 -20 1 -19 -34 -54 -81 -39 -68 -33 -18 476 callgsubr
            92 49 114 84 8 78 4 39 -17 46 -21 48 64 56 44 57 1 43 rrcurveto
            1 return
          </CharString>
          <CharString index="35">
            rmoveto
            -58 -83 -104 -80 callsubr
            return
          </CharString>
          <CharString index="36">
            202 callgsubr
            42 43 10 191 callgsubr
            -27 -115 return
          </CharString>
          <CharString index="37">
            rmoveto
            -122 hlineto
            -23 31 -40 6 -85 -7 -7 -30 rcurveline
            -121 -89 callgsubr
            124 hlineto
            -121 -528 32 callsubr
            41 420 66 138 rlineto
            126 -107 callsubr
          </CharString>
          <CharString index="38">
            rmoveto
            -23 -138 -27 -108 -23 -107 -50 95 rcurveline
            -56 173 -38 142 -39 156 rrcurveto
            11 -20 -15 5 -24 hhcurveto
            -34 -37 -8 -25 -48 hvcurveto
            -10 -195 -30 -175 -29 -120 -53 -178 rlinecurve
            20 -40 97 -14 51 26 14 150 18 143 10 120 43 167 rcurveline
            40 -180 55 -184 96 -197 39 -31 73 -13 55 25 14 157 19 147 10 109 85 303 rcurveline
            8 -18 -20 4 -23 hhcurveto
            -33 -39 -10 -22 -42 hvcurveto
            endchar
          </CharString>
          <CharString index="39">
            13 -50 70 -29 65 -1 69 58 67 60 67 63 8 554 callsubr
            -55 -237 32 callsubr
            29 return
          </CharString>
          <CharString index="40">
            -9 rcurveline
            -62 -31 -80 -16 -86 -17 -56 -32 -20 -62 20 -46 -55 callgsubr
            return
          </CharString>
          <CharString index="41">
            47 -40 73 -11 41 21 rlinecurve
            return
          </CharString>
          <CharString index="42">
            321 callsubr
            4 8 rcurveline
            136 13 159 105 111 vvcurveto
            20 -15 26 -23 23 vhcurveto
            return
          </CharString>
          <CharString index="43">
            36 callsubr
            -43 -27 -50 -27 -52 -27 6 41 5 41 -14 callgsubr
          </CharString>
          <CharString index="44">
            hvcurveto
            43 -65 callgsubr
            return
          </CharString>
          <CharString index="45">
            rlineto
            -124 -89 callgsubr
            131 hlineto
            -125 78 callsubr
            return
          </CharString>
          <CharString index="46">
            -89 callgsubr
            575 -72 callgsubr
            -17 6 -16 8 -13 11 -27 -1 -22 -11 -17 -19 -134 26 -195 -14 -93 -60 539 callsubr
            -41 304 callgsubr
            3 53 21 15 28 rrcurveto
            8 44 2 51 -9 48 54 4 55 -3 51 -7 -3 -8 -2 -10 -1 -9 45 callgsubr
            return
          </CharString>
          <CharString index="47">
            rrcurveto
            -115 -58 -95 callgsubr
            return
          </CharString>
          <CharString index="48">
            -47 callgsubr
            -34 23 return
          </CharString>
          <CharString index="49">
            rmoveto
            103 -10 151 -18 98 -30 78 50 35 43 17 58 -15 46 -43 21 -85 -18 -7 -34 -5 -20 -17 -34 -74 7 -120 1 -84 3 -3 8 rcurveline
            139 120 298 281 58 151 rrcurveto
            58 -12 -46 11 -73 hhcurveto
            -24 -59 -84 10 -138 21 -92 24 rlinecurve
            -76 -29 -40 -63 -22 -67 19 -42 42 -17 79 11 8 39 12 35 28 34 65 -14 104 -4 64 -1 7 -9 rcurveline
            -115 -214 -374 -235 -102 vvcurveto
            -1 -26 5 -22 21 -20 59 -7 34 8 29 23 -8 28 rcurveline
            return
          </CharString>
          <CharString index="50">
            rmoveto
            5 34 12 38 23 28 53 -12 57 -11 60 -3 4 -9 rcurveline
            -116 -155 -267 -84 -3 -111 -1 -26 6 -25 17 -21 61 -5 32 7 19 23 -9 29 rcurveline
            5 4 62 -9 102 -14 92 -35 rlinecurve
            71 28 41 46 20 53 -8 48 -41 21 -74 -18 -7 -27 -7 -24 -15 -30 -70 11 -79 0 -59 5 -2 11 rcurveline
            138 82 241 159 23 127 -13 47 -38 14 -72 -3 -22 -56 rcurveline
            -87 10 -71 22 -82 24 -74 -23 -36 -62 -19 -60 16 -42 36 -16 76 10 rrcurveto
            return
          </CharString>
          <CharString index="51">
            282 callgsubr
            241 hlineto
            41 -22 39 468 callgsubr
            -63 -42 -88 -33 -86 -27 rrcurveto
            -60 -45 -38 -48 -58 vvcurveto
            -77 85 -84 122 -23 vhcurveto
            112 2 102 51 63 1 callsubr
            275 hlineto
            15 -50 callgsubr
            endchar
          </CharString>
          <CharString index="52">
            22 40 vvcurveto
            83 61 224 callgsubr
            return
          </CharString>
          <CharString index="53">
            -86 callgsubr
            30 21 return
          </CharString>
          <CharString index="54">
            16 -15 rcurveline
            return
          </CharString>
          <CharString index="55">
            4 callsubr
            -29 -2 -29 -4 -28 rlinecurve
            -65 -29 -63 27 callsubr
            77 14 81 return
          </CharString>
          <CharString index="56">
            -88 callsubr
            -6 -30 rcurveline
            -395 -87 callgsubr
            400 199 callgsubr
            -5 -2 -29 39 -26 42 -42 9 rlinecurve
            -115 -115 -127 -115 -72 46 -50 74 -17 hvcurveto
            332 callsubr
            -91 -59 -93 -46 -11 -38 17 -29 52 -21 68 53 52 49 51 55 9 -6 rcurveline
            -37 -82 44 -33 65 -10 42 20 rlinecurve
            32 295 2 9 41 39 47 42 26 23 rlinecurve
            return
          </CharString>
          <CharString index="57">
            -13 15 -15 return
          </CharString>
          <CharString index="58">
            -90 97 -88 129 -21 vhcurveto
            176 5 144 117 -3 134 -32 43 -72 39 -60 24 11 7 rcurveline
            30 28 17 43 -7 35 -16 20 -21 19 -25 16 rrcurveto
            302 -107 callsubr
          </CharString>
          <CharString index="59">
            -23 callsubr
            -9 16 -14 385 callgsubr
            return
          </CharString>
          <CharString index="60">
            444 callgsubr
            28 28 35 35 -28 28 -34 hvcurveto
            return
          </CharString>
          <CharString index="61">
            rmoveto
            -30 -90 -68 -94 rlineto
            -20 26 -12 30 vhcurveto
            182 167 -15 42 -55 20 -70 -13 rlinecurve
            return
          </CharString>
          <CharString index="62">
            rmoveto
            -70 -65 -79 451 callsubr
            142 hlineto
            -613 -193 rmoveto
            254 callgsubr
            212 hlineto
            -10 -29 -9 -28 -8 -28 -26 23 -37 15 -51 -3 -50 -49 -57 -55 -53 -49 rrcurveto
            -326 -117 -46 callgsubr
            1463 379 rmoveto
            -382 -95 callsubr
            -516 -81 callsubr
            40 31 -42 -47 -1 hvcurveto
            -10 -38 -10 -39 -9 -40 13 -50 70 -29 65 -1 69 58 67 60 67 63 8 -7 rcurveline
            -27 -48 -54 -237 215 callsubr
            41 21 rlinecurve
            30 296 51 44 57 387 callsubr
            105 289 callsubr
            -73 294 callgsubr
          </CharString>
          <CharString index="63">
            102 callsubr
            9 -7 rcurveline
            -45 -108 return
          </CharString>
          <CharString index="64">
            rmoveto
            156 callgsubr
            -44 -20 -44 -20 -41 -18 rrcurveto
            81 -3 -45 101 -57 -65 callsubr
            425 415 callsubr
            -13 -37 -14 -32 rrcurveto
            -134 114 -5 callgsubr
            751 286 rmoveto
            -1408 hlineto
            -96 callsubr
            108 17 149 72 90 79 32 -44 52 -29 52 -10 447 callgsubr
            28 hvcurveto
            20 54 19 77 15 83 45 24 555 callgsubr
            rrcurveto
            0 vlineto
            10 -6 -6 callsubr
            -43 -27 -50 -27 -52 -27 6 41 5 41 3 38 rrcurveto
            421 -92 callsubr
          </CharString>
          <CharString index="65">
            -18 rrcurveto
            -32 -29 callgsubr
            return
          </CharString>
          <CharString index="66">
            hlineto
            -101 -60 -87 -136 -71 vvcurveto
            -83 478 callgsubr
            84 142 89 120 21 vhcurveto
            7 56 -19 76 -33 75 rrcurveto
            return
          </CharString>
          <CharString index="67">
            -25 callgsubr
            -416 -101 callgsubr
            115 hlineto
            -39 -113 -25 -91 -27 -117 12 -50 71 -29 65 -2 68 54 64 54 66 59 8 -8 rcurveline
            -15 -30 -23 -65 -82 -78 -133 -80 145 callgsubr
            43 -33 66 -10 42 20 rlinecurve
            29 return
          </CharString>
          <CharString index="68">
            166 callsubr
            19 -10 -39 -12 -37 -14 -32 rrcurveto
            return
          </CharString>
          <CharString index="69">
            -120 104 3 callsubr
            return
          </CharString>
          <CharString index="70">
            rmoveto
            -4 -30 -6 -36 -6 -35 -90 -23 rcurveline
            -14 4 -15 19 -5 10 45 221 callsubr
            return
          </CharString>
          <CharString index="71">
            -77 128 -27 8 -28 -10 -11 -21 rlinecurve
            92 -149 33 -19 53 3 46 17 rlinecurve
            return
          </CharString>
          <CharString index="72">
            156 callsubr
            -17 6 -16 8 -13 11 return
          </CharString>
          <CharString index="73">
            -32 callsubr
            69 return
          </CharString>
          <CharString index="74">
            454 callgsubr
            17 -30 52 -13 callsubr
            return
          </CharString>
          <CharString index="75">
            55 -1 66 -34 28 -52 341 callsubr
            -74 -20 rrcurveto
            -66 27 -31 42 43 vvcurveto
            -1 28 22 27 32 24 return
          </CharString>
          <CharString index="76">
            rlinecurve
            41 -38 callgsubr
          </CharString>
          <CharString index="77">
            rmoveto
            -686 -89 callgsubr
            130 hlineto
            8 -113 -20 -85 -45 -98 -37 -71 rlinecurve
            2 -52 54 -37 74 -11 148 92 rcurveline
            13 -7 1 -69 -22 -78 -30 -66 -66 -71 rlinecurve
            4 -42 35 -25 67 -3 80 103 46 150 -3 131 -24 43 -53 28 -55 -9 -129 -77 rcurveline
            -11 8 52 103 34 130 19 126 rlinecurve
            158 hlineto
            11 -77 -4 -52 -19 -39 -29 -43 rlinecurve
            7 -28 34 -21 51 -4 59 80 24 100 -2 84 rrcurveto
            324 callsubr
          </CharString>
          <CharString index="78">
            9 -6 rcurveline
            -31 -66 -50 -121 -39 -103 8 -36 48 -24 66 4 34 136 37 131 44 110 -32 426 callsubr
            return
          </CharString>
          <CharString index="79">
            rmoveto
            15 -64 68 -48 132 -18 47 43 33 32 34 41 13 -12 rcurveline
            -44 -81 -16 -93 -10 -60 -21 -91 rlinecurve
            -10 -12 -21 -5 -22 2 -46 43 -23 46 -10 64 -45 27 -58 -21 -40 -59 15 -70 62 -74 99 -47 103 -3 84 23 45 59 14 141 37 262 26 142 94 173 rcurveline
            -23 42 -43 11 -90 -13 -19 -59 -16 -93 -22 -135 -38 -51 -39 -35 -51 -39 -48 16 -16 16 -11 26 39 128 21 71 14 115 -44 47 -69 8 -55 -16 6 -69 2 -96 -3 -77 rrcurveto
            endchar
          </CharString>
          <CharString index="80">
            rmoveto
            -13 -54 -35 -83 -31 -62 16 -28 43 -10 38 12 65 183 32 112 -49 79 -83 -11 -100 5 -71 10 -34 -27 8 -52 32 -27 144 26 rcurveline
            4 -5 -45 -82 -65 -69 -67 -54 rlinecurve
            -96 55 -50 54 1 122 3 148 103 133 131 63 15 1 rcurveline
            43 -46 7 -47 7 -62 58 -35 66 33 26 48 -19 79 -41 75 -129 35 -140 -23 -124 -83 -73 -92 rrcurveto
            -38 -56 -40 -95 -85 vvcurveto
            -157 81 -115 218 -44 vhcurveto
            90 66 66 85 39 84 rrcurveto
            return
          </CharString>
          <CharString index="81">
            68 callsubr
            18 callsubr
            122 hlineto
            return
          </CharString>
          <CharString index="82">
            vvcurveto
            -95 79 -49 103 405 callsubr
            41 43 11 191 callgsubr
            -27 -115 47 -40 73 -11 41 171 callgsubr
            40 446 callsubr
            -69 -30 -62 -96 -75 vhcurveto
            -7 -20 13 -14 33 -13 rrcurveto
            return
          </CharString>
          <CharString index="83">
            rmoveto
            39 30 32 37 38 -30 30 -39 -39 -31 -30 -38 -37 31 -32 39 hvcurveto
            216 hmoveto
            37 31 32 37 38 -31 30 -37 -40 -31 -30 -38 -37 31 -32 40 hvcurveto
            return
          </CharString>
          <CharString index="84">
            72 callsubr
            -65 50 callgsubr
            return
          </CharString>
          <CharString index="85">
            105 111 vvcurveto
            20 -15 26 -23 23 vhcurveto
            return
          </CharString>
          <CharString index="86">
            rmoveto
            31 47 8 52 0 20 -8 26 rlinecurve
            -48 8 -56 -10 -46 -41 28 -150 rcurveline
            -23 -98 -32 -111 -38 -110 22 -37 87 -14 56 26 16 107 12 97 8 103 45 47 32 32 32 32 10 -11 9 -24 -1 -29 45 -23 53 6 44 38 -2 89 -53 58 -72 14 rrcurveto
            -51 -52 -49 -54 -48 -51 rrcurveto
            endchar
          </CharString>
          <CharString index="87">
            177 callsubr
            -21 -1 -22 -3 -22 vhcurveto
            -63 -31 -63 -28 -54 -22 -28 -17 -10 -34 -2 -33 27 -55 59 -37 69 -14 40 4 54 16 25 29 37 92 29 163 10 121 rrcurveto
            return
          </CharString>
          <CharString index="88">
            337 callgsubr
            65 51 84 72 68 61 8 -7 rcurveline
            -19 -36 -24 -75 -81 -78 -133 -80 -109 -11 callsubr
            124 hlineto
            14 -50 callgsubr
            endchar
          </CharString>
          <CharString index="89">
            102 callgsubr
            70 138 rlineto
            123 hlineto
            return
          </CharString>
          <CharString index="90">
            15 483 647 -90 callsubr
            return
          </CharString>
          <CharString index="91">
            -25 -19 -12 -33 4 -42 34 112 callgsubr
            16 28 return
          </CharString>
          <CharString index="92">
            181 callsubr
            -18 14 -20 73 callgsubr
          </CharString>
          <CharString index="93">
            -21 5 -29 22 -17 18 -46 4 -38 -41 -8 -61 16 -7 20 -11 5 -15 -1 -39 -50 -57 -53 -12 rrcurveto
            -36 23 -17 46 48 vvcurveto
            42 25 41 40 34 vhcurveto
            -6 42 -38 28 -54 -2 -62 -45 -29 -71 -3 -55 7 -101 78 -96 85 -14 75 2 128 77 5 91 -10 32 rcurveline
            5 6 22 -6 rlineto
            return
          </CharString>
          <CharString index="94">
            -22 95 -44 callsubr
            return
          </CharString>
          <CharString index="95">
            151 callsubr
            36 -18 37 -21 21 -25 -3 -7 rcurveline
            -55 -23 -104 -23 -62 -11 -54 -34 -24 -65 18 -42 81 -51 135 -5 52 -37 2 -8 rcurveline
            -29 -37 -60 -31 -67 -3 -28 15 -23 21 -18 23 395 callgsubr
            65 -50 49 7 7 rcurveline
            19 -15 22 -14 23 -10 82 -4 76 28 48 31 rrcurveto
            35 39 23 39 34 vvcurveto
            return
          </CharString>
          <CharString index="96">
            15 callgsubr
            41 420 -75 callsubr
            return
          </CharString>
          <CharString index="97" raw="1">
            9ad59ecd 9ecbcff7 0818f723 060b
          </CharString>
          <CharString index="98">
            -46 -61 -59 -42 -38 rrcurveto
            return
          </CharString>
          <CharString index="99">
            351 callsubr
            -47 -204 16 -26 -10 -10 rlineto
            91 -75 -90 84 -58 hhcurveto
            434 callsubr
            -1 -48 40 -28 74 -15 49 66 rcurveline
            58 -34 44 -33 44 -44 -89 -77 -119 -70 -138 169 callsubr
            return
          </CharString>
          <CharString index="100">
            -128 -25 callgsubr
            return
          </CharString>
          <CharString index="101">
            -95 -410 47 -40 73 36 callsubr
            return
          </CharString>
          <CharString index="102">
            88 2 79 30 46 45 -1 41 -28 27 -36 3 -38 -39 -49 -24 -51 -10 -78 23 -38 46 -4 47 23 423 callgsubr
            8 -7 2 -12 -6 -12 -14 -15 -16 -13 rrcurveto
            1 -21 41 -25 50 10 rrcurveto
            31 35 18 45 36 vvcurveto
            50 -75 29 -81 26 vhcurveto
            2 7 79 8 60 15 60 28 rlinecurve
            554 callgsubr
            -9 186 callsubr
            180 -107 callsubr
          </CharString>
          <CharString index="103">
            rmoveto
            2 -25 26 -10 29 -1 144 127 rcurveline
            56 -117 26 -13 61 -13 44 39 rlinecurve
            -85 156 -33 20 -44 7 -53 -11 rlinecurve
            return
          </CharString>
          <CharString index="104">
            54 -93 callgsubr
            return
          </CharString>
          <CharString index="105">
            rmoveto
            -41 -27 -47 152 callgsubr
            56 12 261 callsubr
            418 271 rmoveto
            -214 -51 callsubr
            42 31 -45 -50 -3 hvcurveto
            96 56 -12 62 -48 67 -110 -9 rlinecurve
            91 callgsubr
            rrcurveto
            endchar
          </CharString>
          <CharString index="106">
            -59 -4 -63 -45 -35 -49 rrcurveto
            -481 -89 callgsubr
            470 hlineto
            -1 -6 4 -19 7 -17 11 -15 rlinecurve
            -130 -74 -190 -86 -113 -49 317 callsubr
            15 28 10 55 0 64 -17 57 80 40 85 43 76 43 6 -4 6 -5 7 -4 84 -16 rcurveline
            -84 190 callsubr
            return
          </CharString>
          <CharString index="107">
            -28 -98 -32 rrcurveto
            -67 -48 -46 -49 -61 vvcurveto
            -49 callsubr
          </CharString>
          <CharString index="108">
            -34 callsubr
            147 callgsubr
            return
          </CharString>
          <CharString index="109">
            -31 -43 428 callgsubr
            42 87 callsubr
            return
          </CharString>
          <CharString index="110">
            -49 -19 callgsubr
            return
          </CharString>
          <CharString index="111">
            6 callsubr
            -1 return
          </CharString>
          <CharString index="112">
            -85 callsubr
            227 hlineto
            -77 -36 -78 -46 -41 -47 -10 -49 50 -45 47 -18 54 8 39 13 38 13 6 -6 rcurveline
            -62 -49 -99 -37 -33 -61 rrcurveto
            -49 54 -50 return
          </CharString>
          <CharString index="113">
            399 callgsubr
            20 -95 return
          </CharString>
          <CharString index="114">
            120 callsubr
            35 28 28 35 35 -28 28 -35 hvcurveto
            return
          </CharString>
          <CharString index="115">
            3 52 150 callsubr
            10 -5 rcurveline
            -96 366 callsubr
            41 21 114 callgsubr
            return
          </CharString>
          <CharString index="116">
            28 81 34 58 -16 callgsubr
          </CharString>
          <CharString index="117">
            127 callsubr
            14 -50 callgsubr
            endchar
          </CharString>
          <CharString index="118">
            -16 callsubr
            10 56 0 return
          </CharString>
          <CharString index="119">
            4 8 rcurveline
            15 callsubr
            return
          </CharString>
          <CharString index="120">
            664 488 callgsubr
            286 hlineto
            26 -11 24 -13 19 -21 -3 -8 rcurveline
            -51 -20 -79 -16 -107 -5 -22 -17 -20 -52 19 -32 27 -15 50 -28 29 -11 -3 -8 rcurveline
            -121 -2 -109 -73 -78 vvcurveto
            -85 107 -85 105 -16 vhcurveto
            82 3 90 28 45 45 rrcurveto
            41 -1 -30 21 -34 hhcurveto
            -38 -32 -48 -23 -51 -6 -69 20 -38 42 -8 50 21 59 71 37 48 5 rrcurveto
            16 -1 8 -7 -12 vvcurveto
            -3 -11 -12 -16 -16 -14 10 -20 40 -21 38 8 rrcurveto
            32 36 16 45 32 vvcurveto
            49 -75 26 -81 27 vhcurveto
            2 7 79 9 59 10 61 24 rlinecurve
            34 28 19 46 -9 29 -12 13 -12 10 -14 9 497 callsubr
          </CharString>
          <CharString index="121">
            hlineto
            -27 48 -46 41 -52 9 30 callgsubr
            return
          </CharString>
          <CharString index="122">
            136 19 callgsubr
            return
          </CharString>
          <CharString index="123">
            -103 callsubr
            -12 13 rcurveline
            return
          </CharString>
          <CharString index="124">
            rmoveto
            -71 -65 -79 -60 -69 -46 -10 5 rcurveline
            15 74 19 66 239 callsubr
            -115 -29 -104 -28 -118 13 -50 70 -29 65 -1 69 58 67 60 67 63 8 554 callsubr
            -55 -237 32 callsubr
            29 296 52 44 56 387 callsubr
            106 289 callsubr
            -74 294 callgsubr
          </CharString>
          <CharString index="125">
            -105 -78 -64 -18 11 callgsubr
            return
          </CharString>
          <CharString index="126">
            rmoveto
            35 -40 8 -59 4 -59 59 -27 68 24 27 38 -9 84 -48 84 -104 38 -156 -24 -104 -79 -84 -85 -51 -87 -28 -74 -1 -82 rrcurveto
            -162 89 -120 204 -41 vhcurveto
            100 35 104 62 52 59 2 35 -18 31 -44 -6 -45 -42 -66 -43 -81 -31 rrcurveto
            -102 45 -49 65 123 vvcurveto
            127 91 143 129 64 vhcurveto
            endchar
          </CharString>
          <CharString index="127">
            21 callgsubr
            92 23 126 71 30 83 -9 72 -44 38 -44 -23 callgsubr
            return
          </CharString>
          <CharString index="128">
            36 63 28 16 37 -21 54 -37 20 -105 -7 -111 2 -109 16 return
          </CharString>
          <CharString index="129">
            59 122 82 86 80 return
          </CharString>
          <CharString index="130">
            rmoveto
            -113 -24 -90 -73 -62 -73 -30 -42 -23 -45 -1 -60 -3 -106 56 -103 164 -29 91 13 106 52 47 49 9 42 -14 22 -38 -1 -46 -40 -73 -33 -61 -18 -74 43 -19 57 4 79 rrcurveto
            2 65 43 85 75 56 24 5 rcurveline
            29 -34 16 -32 -2 -62 67 -14 57 17 22 44 -17 81 -42 61 -104 18 rrcurveto
            endchar
          </CharString>
          <CharString index="131">
            -6 rcurveline
            -30 -66 -50 -121 -39 -103 7 -36 49 -24 65 4 35 136 36 131 45 110 -32 59 -60 18 -40 -12 -29 -31 -54 -63 -49 -52 -47 15 -42 41 79 callgsubr
          </CharString>
          <CharString index="132">
            -50 -42 -3 -85 53 -79 42 -31 68 -29 82 -9 70 94 rcurveline
            8 -6 -29 -60 -43 -109 -32 -70 rlinecurve
            13 -32 51 -27 61 13 return
          </CharString>
          <CharString index="133">
            9 95 callgsubr
            return
          </CharString>
          <CharString index="134">
            -28 -55 -24 -22 callgsubr
            20 53 19 return
          </CharString>
          <CharString index="135">
            117 callgsubr
            64 return
          </CharString>
          <CharString index="136">
            56 -21 178 callsubr
            4 8 rcurveline
            156 4 return
          </CharString>
          <CharString index="137">
            233 callgsubr
            360 -107 callsubr
          </CharString>
          <CharString index="138">
            208 callgsubr
            67 438 callsubr
            28 -38 20 -38 rrcurveto
            return
          </CharString>
          <CharString index="139">
            35 callsubr
            rlinecurve
            return
          </CharString>
          <CharString index="140">
            -24 13 -14 25 40 vvcurveto
            39 13 40 20 34 vhcurveto
            28 -35 40 -40 33 -30 178 callgsubr
            return
          </CharString>
          <CharString index="141">
            rmoveto
            -636 -87 callgsubr
            258 67 callgsubr
            return
          </CharString>
          <CharString index="142">
            215 callsubr
            42 21 return
          </CharString>
          <CharString index="143">
            -11 41 -30 callgsubr
            return
          </CharString>
          <CharString index="144">
            rlinecurve
            13 -50 45 -28 55 -15 125 -1 98 21 84 28 rrcurveto
            141 88 80 130 150 vvcurveto
            188 -116 139 -222 -83 -91 -11 -22 -68 vhcurveto
            -18 -22 -1 -35 36 -28 rrcurveto
            endchar
          </CharString>
          <CharString index="145">
            rmoveto
            -35 16 -24 19 -17 30 35 22 39 13 41 8 -9 -40 -11 -38 -9 -23 rrcurveto
            83 405 303 callgsubr
            -15 4 -14 423 callsubr
            39 29 rrcurveto
            return
          </CharString>
          <CharString index="146">
            230 callsubr
            -518 -89 callgsubr
            443 hlineto
            310 callsubr
            2 -5 2 -5 3 -5 -123 -67 -157 -75 -104 -47 -16 callsubr
            10 55 0 67 -19 57 rrcurveto
            64 34 67 35 63 34 20 -15 25 -12 28 -7 40 callsubr
            return
          </CharString>
          <CharString index="147">
            422 callgsubr
            -1 -14 -5 -25 -6 -28 rlinecurve
            -64 -6 -62 -15 -52 -26 -27 -14 -11 -34 -1 -39 32 -56 54 -40 70 -14 43 3 54 21 20 28 13 36 15 51 14 56 rrcurveto
            return
          </CharString>
          <CharString index="148">
            405 callgsubr
            -48 -48 -104 -66 -59 -29 -17 -12 -11 -29 -2 -23 312 callgsubr
            return
          </CharString>
          <CharString index="149">
            57 34 38 -29 callsubr
            return
          </CharString>
          <CharString index="150">
            315 callgsubr
            -30 -129 vvcurveto
            -97 108 49 callgsubr
            -30 -31 -54 -63 -49 -52 -46 15 -44 41 -8 42 57 62 150 64 62 51 rrcurveto
            34 34 17 45 -13 32 12 callgsubr
          </CharString>
          <CharString index="151">
            rmoveto
            -288 -436 10 -31 25 -12 54 5 rlinecurve
            505 903 -17 30 -27 9 -56 -8 rlinecurve
            return
          </CharString>
          <CharString index="152">
            rmoveto
            -15 42 -55 20 -70 -13 -30 -90 rcurveline
            -68 -94 rlineto
            -20 26 -12 30 vhcurveto
            return
          </CharString>
          <CharString index="153">
            rrcurveto
            -118 -89 callgsubr
            121 hlineto
            -38 -177 -43 return
          </CharString>
          <CharString index="154">
            35 callsubr
            48 498 rcurveline
            60 185 380 callsubr
            return
          </CharString>
          <CharString index="155">
            673 258 rmoveto
            -5 -69 -53 -73 -71 -34 -31 11 -35 32 -30 36 74 73 64 76 59 38 22 -28 9 -30 -3 -32 rrcurveto
            -481 -176 rmoveto
            -44 22 -17 35 -2 42 8 52 54 63 66 29 32 -34 32 -40 35 -51 -47 -45 -54 -42 -63 -31 rrcurveto
            464 367 rmoveto
            -85 -74 -106 -104 -101 hvcurveto
            -36 62 -43 60 -41 51 -134 -5 -123 -140 -2 -79 -2 -90 87 -87 102 -11 74 19 66 46 60 54 34 -48 43 -45 52 -26 114 16 132 140 1 109 rrcurveto
            90 3 -88 94 -39 hhcurveto
            return
          </CharString>
          <CharString index="156">
            20 -37 11 -50 -4 199 callsubr
            -41 -42 -60 callsubr
            return
          </CharString>
          <CharString index="157">
            92 225 -85 rmoveto
            -54 -54 28 59 12 2 12 4 12 hvcurveto
            41 -26 59 -31 44 -22 -14 -15 -13 -14 -15 -15 rrcurveto
            -19 194 rmoveto
            34 -31 46 -24 53 -12 -13 -16 -13 -16 -13 -15 -51 25 -51 31 -45 31 11 11 16 10 19 9 rrcurveto
            593 511 rmoveto
            -776 -89 callgsubr
            398 67 callgsubr
            -93 -100 -248 -30 -129 vvcurveto
            -19 4 -18 8 -18 vhcurveto
            -119 -39 -52 -77 -71 vvcurveto
            -100 114 -76 148 31 vhcurveto
            53 69 55 78 return
          </CharString>
          <CharString index="158">
            403 callgsubr
            22 66 19 73 16 75 45 25 43 25 44 26 8 57 callsubr
            -41 470 callsubr
            78 12 76 7 68 503 callsubr
            return
          </CharString>
          <CharString index="159">
            5 callgsubr
            -32 -53 -56 396 callgsubr
            return
          </CharString>
          <CharString index="160">
            75 62 54 66 18 hvcurveto
            -12 30 -36 18 -59 -12 -6 -42 -28 -32 -55 -9 -39 11 -25 29 -14 43 -19 2 -18 -8 -9 -10 rrcurveto
            return
          </CharString>
          <CharString index="161">
            rmoveto
            88 callgsubr
            return
          </CharString>
          <CharString index="162">
            85 callsubr
            75 19 98 51 50 63 rrcurveto
            return
          </CharString>
          <CharString index="163">
            107 833 125 callgsubr
            -535 -101 callgsubr
            537 hlineto
            -32 -141 -32 -30 -46 -27 -49 -22 rlinecurve
            -7 82 -76 81 -81 54 callgsubr
            367 callgsubr
            rrcurveto
            120 callgsubr
            48 18 50 24 41 25 7 -13 rcurveline
            return
          </CharString>
          <CharString index="164">
            -5 64 callsubr
            return
          </CharString>
          <CharString index="165">
            5 -22 20 -16 19 -59 callsubr
            return
          </CharString>
          <CharString index="166">
            54 callsubr
            -5 -30 rcurveline
            return
          </CharString>
          <CharString index="167">
            334 167 162 rmoveto
            -28 13 -20 21 -18 29 25 10 25 9 26 7 8 -26 1 -27 -8 -29 rrcurveto
            857 454 rmoveto
            -1015 -89 callgsubr
            637 hlineto
            41 -24 33 -23 17 -25 -3 -8 rcurveline
            -41 -44 -71 -30 -66 -31 -1 2 rcurveline
            -156 -39 -184 -18 -161 -53 311 callgsubr
            31 -51 58 -34 70 -13 472 callsubr
            7 46 3 47 -11 49 45 10 46 8 47 9 rrcurveto
            -21 -21 -14 -25 -30 vvcurveto
            -97 return
          </CharString>
          <CharString index="168">
            65 callgsubr
            365 callsubr
            return
          </CharString>
          <CharString index="169">
            151 callsubr
            36 -18 37 -20 21 -26 rrcurveto
            -6 vlineto
            -56 -26 -118 -22 -62 -9 -42 -29 -19 -52 13 -44 81 -50 126 -4 61 -34 2 -8 rcurveline
            -29 -33 -53 -29 -49 -6 -37 8 -30 27 -17 28 -50 17 -54 -45 -30 -57 57 -73 61 -119 34 -89 63 -10 47 26 4 30 -42 70 -50 87 -47 52 7 7 rcurveline
            27 -22 35 -14 33 -4 72 3 117 54 27 46 11 25 4 24 -4 21 -5 12 -12 13 -13 9 return
          </CharString>
          <CharString index="170">
            -51 1 -43 9 -78 25 -45 -21 -27 -49 41 -36 rrcurveto
            49 9 34 -19 -30 vvcurveto
            -38 -46 -39 -89 -17 vhcurveto
            -8 10 -10 13 -8 11 rrcurveto
            -40 -40 -41 -48 -5 hvcurveto
            43 -66 106 -78 100 -31 47 17 22 45 -25 30 -77 20 -49 32 -39 38 return
          </CharString>
          <CharString index="171">
            rcurveline
            24 callgsubr
            return
          </CharString>
          <CharString index="172">
            -69 1 -44 -21 -50 -41 -7 -33 16 -22 53 -23 33 31 33 17 31 8 return
          </CharString>
          <CharString index="173">
            24 2 25 8 17 26 31 80 36 74 38 44 -22 46 -30 22 -33 rrcurveto
            return
          </CharString>
          <CharString index="174">
            47 53 56 46 49 9 -10 rcurveline
            return
          </CharString>
          <CharString index="175">
            392 179 callgsubr
            return
          </CharString>
          <CharString index="176">
            rmoveto
            -27 -178 -34 -146 -55 -173 21 -40 101 -14 50 27 20 194 15 186 17 191 64 232 rcurveline
            -49 22 -57 -9 -64 -39 rrcurveto
            endchar
          </CharString>
          <CharString index="177">
            111 callsubr
            -37 -4 -37 -6 -35 rlinecurve
            -66 -22 -63 -19 -50 -17 170 callgsubr
            45 16 63 14 68 return
          </CharString>
          <CharString index="178">
            rmoveto
            39 59 72 63 56 114 callsubr
            return
          </CharString>
          <CharString index="179">
            68 callsubr
            -104 -78 return
          </CharString>
          <CharString index="180">
            44 49 67 56 61 45 5 51 -38 38 -50 14 -40 -15 -36 -12 -45 -9 -8 10 rcurveline
            50 51 92 58 77 39 rrcurveto
            return
          </CharString>
          <CharString index="181">
            406 callsubr
            -15 -25 38 -39 38 callgsubr
            313 hlineto
            -52 -234 rmoveto
            -34 -20 -39 -27 -30 hhcurveto
            -27 -16 19 27 42 38 64 48 11 hvcurveto
            26 -8 17 -37 8 -37 rrcurveto
            338 268 rmoveto
            -132 115 callgsubr
            return
          </CharString>
          <CharString index="182">
            -44 callsubr
            44 -33 return
          </CharString>
          <CharString index="183">
            -22 47 -31 46 -41 14 -186 -2 -141 -184 -1 -163 -1 -104 70 -81 138 -2 46 49 52 52 43 44 11 -11 rcurveline
            -53 -109 34 -43 81 -5 50 23 rlinecurve
            24 180 32 221 19 169 return
          </CharString>
          <CharString index="184">
            623 -93 callgsubr
            return
          </CharString>
          <CharString index="185">
            -528 -66 callsubr
            return
          </CharString>
          <CharString index="186">
            151 callsubr
            35 -18 37 -20 23 -26 -3 -6 rcurveline
            -51 -24 -108 -22 -63 -12 -54 -34 -24 -65 18 -42 80 -50 137 -5 51 -38 2 -9 rcurveline
            -23 -30 -63 -39 -51 -3 -38 8 -32 26 -18 27 395 callgsubr
            64 -50 49 7 7 rcurveline
            26 -22 36 -15 32 -4 87 3 102 58 27 52 return
          </CharString>
          <CharString index="187">
            25 callsubr
            27 106 39 return
          </CharString>
          <CharString index="188">
            339 callgsubr
            48 callgsubr
            return
          </CharString>
          <CharString index="189">
            50 -29 42 -62 25 -36 -10 -47 -15 -35 -4 -8 12 rcurveline
            50 50 return
          </CharString>
          <CharString index="190">
            rmoveto
            -131 -87 2 19 85 308 rlineto
            9 -18 -20 4 -23 hhcurveto
            -33 -38 -10 -22 -43 hvcurveto
            -8 -198 -30 -183 -29 -124 -50 -169 rlinecurve
            289 callgsubr
            10 118 12 112 9 94 27 17 rcurveline
            34 -149 86 -137 130 -69 79 21 28 63 -24 45 -150 41 -82 93 -48 120 126 77 151 117 76 72 rrcurveto
            55 -33 35 -76 9 vhcurveto
            endchar
          </CharString>
          <CharString index="191">
            -63 callgsubr
            290 54 54 callsubr
            -7 -30 rcurveline
            return
          </CharString>
          <CharString index="192">
            43 49 54 49 61 44 21 callgsubr
            return
          </CharString>
          <CharString index="193">
            -47 -4 -50 -39 -22 -33 -16 -68 28 -67 28 -61 -74 -55 -94 -48 -80 -18 return
          </CharString>
          <CharString index="194">
            56 195 -66 callgsubr
            return
          </CharString>
          <CharString index="195">
            -14 77 155 callsubr
            return
          </CharString>
          <CharString index="196">
            -101 callgsubr
            130 hlineto
            -5 -87 callsubr
            -74 -115 -75 -98 -11 -13 7 -12 8 -11 167 callgsubr
            42 -71 79 -105 101 -74 54 17 25 39 -14 45 -70 55 -48 59 -30 47 4 8 rcurveline
            34 -1 36 7 37 13 rrcurveto
            -19 33 52 -29 25 hhcurveto
            return
          </CharString>
          <CharString index="197">
            421 callsubr
            -6 -40 51 -33 hhcurveto
            -47 -6 -44 -51 -8 -51 rrcurveto
            -35 3 26 -24 31 hhcurveto
            return
          </CharString>
          <CharString index="198">
            rmoveto
            -17 16 -15 22 17 vvcurveto
            28 44 43 31 5 vhcurveto
            39 -11 19 -46 -48 vvcurveto
            -17 -3 -18 -6 -16 vhcurveto
            return
          </CharString>
          <CharString index="199">
            492 callgsubr
            -83 -151 -134 -96 -56 hvcurveto
            7 -40 39 -27 52 -5 52 84 67 77 57 38 13 -6 rcurveline
            -15 -65 -18 -83 -20 -92 46 callsubr
            -198 -37 -153 47 callsubr
            -12 13 rcurveline
            return
          </CharString>
          <CharString index="200">
            -410 48 -40 72 -11 41 21 rlinecurve
            31 361 66 111 -25 37 -42 16 -84 201 callgsubr
          </CharString>
          <CharString index="201">
            rmoveto
            56 -117 26 -13 61 -13 44 39 rlinecurve
            -85 156 -33 20 -44 7 -53 -11 rlinecurve
            -173 -159 2 -25 26 -10 29 -1 rlinecurve
            return
          </CharString>
          <CharString index="202">
            rmoveto
            23 41 -1 32 -22 18 -166 -31 rcurveline
            49 156 -37 34 -56 -5 -72 -41 rlinecurve
            9 -162 -137 2 -24 -35 0 -28 24 -28 rlinecurve
            130 23 -27 -131 -27 -102 -46 -156 rlinecurve
            return
          </CharString>
          <CharString index="203">
            43 41 49 44 27 return
          </CharString>
          <CharString index="204">
            461 callgsubr
            26 15 25 128 callsubr
            return
          </CharString>
          <CharString index="205">
            32 88 38 88 32 75 rrcurveto
            57 -28 -61 41 -48 hhcurveto
            -85 -151 -134 -96 -56 hvcurveto
            7 -40 39 -27 52 -5 52 84 71 81 56 37 11 -6 rcurveline
            -15 -65 -19 -85 -20 -93 46 callsubr
            -199 -37 -152 47 callsubr
            return
          </CharString>
          <CharString index="206">
            538 callgsubr
            18 -23 -3 -8 rcurveline
            -49 -25 -83 -22 -105 275 callgsubr
            27 -15 50 -28 29 -12 -3 -7 rcurveline
            return
          </CharString>
          <CharString index="207">
            rcurveline
            107 callgsubr
            return
          </CharString>
          <CharString index="208">
            -50 -49 -57 -55 -53 -49 -10 10 rcurveline
            254 callgsubr
            return
          </CharString>
          <CharString index="209">
            54 119 86 56 64 return
          </CharString>
          <CharString index="210">
            rmoveto
            31 44 34 228 13 109 -10 83 rlinecurve
            -42 9 -55 2 -56 -53 31 -214 rcurveline
            -29 -161 -41 -200 -59 -164 21 -40 88 -13 55 27 12 81 8 71 7 63 50 -92 83 -87 100 -51 68 28 32 62 -31 38 -138 35 -78 62 -50 79 87 58 96 38 100 25 rrcurveto
            40 62 -35 61 -51 7 -111 -60 -76 -62 -88 -86 rrcurveto
            endchar
          </CharString>
          <CharString index="211">
            -42 658 623 34 callsubr
            return
          </CharString>
          <CharString index="212">
            rmoveto
            19 -8 26 -3 27 2 90 116 rcurveline
            30 61 -20 10 -46 0 -44 -10 rlinecurve
            86 -168 rmoveto
            16 -8 25 -3 24 2 95 116 rcurveline
            30 61 -20 10 -45 0 -46 -10 rlinecurve
            return
          </CharString>
          <CharString index="213">
            231 callgsubr
            -62 -57 -75 -20 -65 27 -31 42 -1 43 return
          </CharString>
          <CharString index="214">
            159 callsubr
            -10 hvcurveto
            75 45 59 66 63 -43 callgsubr
            return
          </CharString>
          <CharString index="215">
            10 -7 rcurveline
            -46 197 callgsubr
            return
          </CharString>
          <CharString index="216">
            514 callsubr
            27 -37 21 -37 rrcurveto
            return
          </CharString>
          <CharString index="217">
            rmoveto
            -65 -57 -135 -54 435 callsubr
            -11 83 callgsubr
            return
          </CharString>
          <CharString index="218">
            hlineto
            4 callsubr
            return
          </CharString>
          <CharString index="219">
            126 hlineto
            155 callgsubr
            return
          </CharString>
          <CharString index="220">
            rmoveto
            -6 -5 rlineto
            67 -32 -58 88 -50 hhcurveto
            -44 196 callgsubr
            66 47 rcurveline
            54 -50 31 485 callsubr
            -3 53 13 213 callgsubr
            -41 40 -58 24 -71 6 -31 -3 -32 -22 -21 -25 19 -33 15 -31 14 -36 rrcurveto
            endchar
          </CharString>
          <CharString index="221">
            29 287 callgsubr
            -19 -51 -77 -57 -68 -14 rrcurveto
            return
          </CharString>
          <CharString index="222">
            -192 rmoveto
            -39 -8 -17 -31 7 -51 112 -21 85 -32 91 -53 21 14 10 14 -4 19 -66 61 -112 66 -88 530 callsubr
            -47 13 -41 35 -47 vhcurveto
            42 6 20 14 2 21 -32 46 -5 25 -1 55 -30 27 -24 9 -48 -3 -60 -33 -52 -48 -45 -60 rrcurveto
            -26 21 -29 71 3 vhcurveto
            30 64 23 34 35 32 rrcurveto
            return
          </CharString>
          <CharString index="223">
            rmoveto
            28 callsubr
            return
          </CharString>
          <CharString index="224">
            -4 -6 -5 -5 -4 return
          </CharString>
          <CharString index="225">
            83 47 310 -77 callsubr
            return
          </CharString>
          <CharString index="226">
            rmoveto
            38 31 32 37 38 -31 30 -38 -40 -31 -30 -38 -37 31 -32 40 hvcurveto
            return
          </CharString>
          <CharString index="227">
            270 callgsubr
            -35 28 -28 36 return
          </CharString>
          <CharString index="228">
            -4 47 -24 30 -50 14 -34 -15 -54 -20 -41 -7 -12 10 -6 11 -1 14 2 7 2 7 4 7 54 -16 rcurveline
            96 23 108 69 40 80 459 callsubr
            -1 -51 37 -35 56 -30 52 7 46 16 36 15 5 -5 rcurveline
            -68 -53 -90 -28 -32 -65 rrcurveto
            -45 57 -51 68 -16 vhcurveto
            return
          </CharString>
          <CharString index="229">
            413 callsubr
            -3 -31 30 -59 59 -38 66 -12 49 4 49 15 29 34 35 96 34 168 10 134 rrcurveto
            139 416 callgsubr
            122 -107 callsubr
          </CharString>
          <CharString index="230">
            -84 123 -23 vhcurveto
            111 106 callsubr
            rrcurveto
            28 21 27 32 24 vhcurveto
            70 28 return
          </CharString>
          <CharString index="231">
            213 callsubr
            31 -8 26 -37 21 -37 rrcurveto
            return
          </CharString>
          <CharString index="232">
            rmoveto
            -28 166 callsubr
            return
          </CharString>
          <CharString index="233">
            -133 -110 -12 -48 33 -27 57 -14 148 117 137 58 112 27 11 -6 rcurveline
            -15 -65 -19 -85 -20 -93 46 callsubr
            -199 -37 -152 47 callsubr
            return
          </CharString>
          <CharString index="234">
            135 callgsubr
            123 hlineto
            return
          </CharString>
          <CharString index="235">
            14 26 callsubr
            return
          </CharString>
          <CharString index="236">
            20 -104 callsubr
          </CharString>
          <CharString index="237">
            rmoveto
            -45 -9 callsubr
            -22 11 -13 -55 callsubr
            return
          </CharString>
          <CharString index="238">
            41 callsubr
            422 callgsubr
            -2 -14 -4 -25 -6 -28 rlinecurve
            -64 279 callgsubr
            44 3 54 21 20 28 13 36 14 51 14 56 rrcurveto
            return
          </CharString>
          <CharString index="239">
            rmoveto
            -5 -5 -40 38 -43 29 -36 7 rlinecurve
            -42 -6 -29 -22 -19 -31 7 -36 40 -20 49 -4 31 36 rcurveline
            36 -10 24 -16 29 391 callgsubr
            -7 -51 36 -28 64 -21 59 54 rcurveline
            54 -30 44 -52 27 -46 rrcurveto
            endchar
          </CharString>
          <CharString index="240">
            428 rmoveto
            -65 -59 -97 -67 -70 -45 -10 5 rcurveline
            13 76 14 50 249 callsubr
            return
          </CharString>
          <CharString index="241">
            -6 41 callgsubr
            return
          </CharString>
          <CharString index="242">
            -1 43 -35 27 -54 -2 return
          </CharString>
          <CharString index="243">
            49 61 179 94 4 126 return
          </CharString>
          <CharString index="244">
            -70 callgsubr
            endchar
          </CharString>
          <CharString index="245">
            20 -16 19 307 callgsubr
            rrcurveto
            135 callsubr
            -54 callgsubr
            return
          </CharString>
          <CharString index="246">
            -54 98 callgsubr
            198 hlineto
            return
          </CharString>
          <CharString index="247">
            130 callsubr
            26 -9 26 -35 return
          </CharString>
          <CharString index="248">
            425 rmoveto
            32 callgsubr
            return
          </CharString>
          <CharString index="249">
            12 27 9 8 -29 2 -30 -8 -31 rrcurveto
            return
          </CharString>
          <CharString index="250">
            -300 -89 callgsubr
            300 -107 callsubr
          </CharString>
          <CharString index="251">
            184 callsubr
            27 -38 21 -38 rrcurveto
            return
          </CharString>
          <CharString index="252">
            66 -82 133 414 callgsubr
            49 17 30 56 -21 36 -78 40 -82 68 -61 46 4 8 rcurveline
            return
          </CharString>
          <CharString index="253">
            rmoveto
            -71 -65 -79 -60 149 callgsubr
            return
          </CharString>
          <CharString index="254">
            40 14 22 22 -2 26 -49 51 -39 400 callgsubr
            return
          </CharString>
          <CharString index="255">
            hhcurveto
            -25 -16 20 29 49 41 90 54 11 hvcurveto
            25 -8 18 -37 8 -34 rrcurveto
            return
          </CharString>
          <CharString index="256">
            -19 callgsubr
            -78 40 -82 68 -61 46 4 8 rcurveline
            return
          </CharString>
          <CharString index="257">
            436 callgsubr
            68 -20 335 callgsubr
            return
          </CharString>
          <CharString index="258">
            -101 callgsubr
            260 hlineto
            return
          </CharString>
          <CharString index="259">
            -28 -47 11 -33 17 -31 25 -9 31 -1 23 19 19 return
          </CharString>
          <CharString index="260">
            201 82 callgsubr
            return
          </CharString>
          <CharString index="261">
            vvcurveto
            91 -81 54 -111 -21 vhcurveto
            return
          </CharString>
          <CharString index="262">
            -4 214 callgsubr
            return
          </CharString>
          <CharString index="263">
            -70 -105 -72 -98 -18 return
          </CharString>
          <CharString index="264">
            424 callgsubr
            -48 -4 -49 -39 -23 -33 -16 -68 28 -66 29 -62 -74 -54 -94 -49 -80 -18 rrcurveto
            320 458 callsubr
            19 -6 27 -20 5 -19 -6 -22 -17 -25 -26 -27 rrcurveto
            280 309 rmoveto
            return
          </CharString>
          <CharString index="265">
            390 rmoveto
            -59 -83 -103 -77 -63 -18 rrcurveto
            -31 -44 -36 callgsubr
            return
          </CharString>
          <CharString index="266">
            hhcurveto
            -9 -10 2 3 return
          </CharString>
          <CharString index="267">
            2 7 rcurveline
            470 callgsubr
            554 callgsubr
            -9 35 -10 15 -12 12 -16 10 rrcurveto
            return
          </CharString>
          <CharString index="268">
            490 callgsubr
            268 hlineto
            35 -12 37 -14 20 -20 -2 -6 rcurveline
            -64 -25 -73 -10 -79 -12 -53 -26 -19 -53 20 -39 76 -33 104 -8 74 -29 rrcurveto
            -6 vlineto
            -39 -78 -127 -9 -96 hhcurveto
            -30 -22 10 -44 46 -31 return
          </CharString>
          <CharString index="269">
            277 callsubr
            -44 -45 -41 30 callsubr
          </CharString>
          <CharString index="270">
            440 110 callsubr
            return
          </CharString>
          <CharString index="271">
            319 -6 callgsubr
            return
          </CharString>
          <CharString index="272">
            hlineto
            290 54 -99 callgsubr
            return
          </CharString>
          <CharString index="273">
            160 callgsubr
            39 19 39 19 38 return
          </CharString>
          <CharString index="274">
            26 -48 51 -39 50 return
          </CharString>
          <CharString index="275">
            rrcurveto
            185 callgsubr
            return
          </CharString>
          <CharString index="276">
            -43 -22 -36 28 -44 57 -20 108 60 131 96 61 65 11 -10 rcurveline
            -37 -51 -28 -119 -66 callsubr
            return
          </CharString>
          <CharString index="277">
            hlineto
            28 -14 23 -13 19 -23 -3 -8 rcurveline
            -50 -25 return
          </CharString>
          <CharString index="278">
            -16 -17 -18 250 callsubr
            return
          </CharString>
          <CharString index="279">
            -84 -6 -91 -87 -10 -65 8 -42 28 -34 42 -28 return
          </CharString>
          <CharString index="280">
            -68 -44 -41 -77 -9 -56 return
          </CharString>
          <CharString index="281">
            6 -47 -1 -36 -6 return
          </CharString>
          <CharString index="282">
            -85 callsubr
            93 hlineto
            -54 callsubr
            30 16 32 3 20 2 24 -6 8 -14 rrcurveto
            -10 -89 -260 -60 -75 vvcurveto
            -56 111 -83 65 60 126 85 88 80 vhcurveto
            return
          </CharString>
          <CharString index="283">
            321 callgsubr
            47 return
          </CharString>
          <CharString index="284">
            -89 callgsubr
            205 342 callsubr
            return
          </CharString>
          <CharString index="285">
            36 -83 39 -73 68 -57 47 return
          </CharString>
          <CharString index="286">
            488 rmoveto
            -58 -39 -80 -31 -79 -26 -3 4 rcurveline
            -12 -9 -4 -1 -15 -11 rlineto
            -39 -59 -67 -28 -44 hhcurveto
            -19 2 -22 6 -20 8 rrcurveto
            77 46 60 67 63 -43 callgsubr
            291 236 callsubr
            rrcurveto
            return
          </CharString>
          <CharString index="287">
            rlinecurve
            -22 2 -28 24 -1 16 25 34 69 31 65 31 15 34 -20 54 -33 15 -105 -7 -107 2 -109 16 -30 -17 3 -64 43 -34 84 6 82 11 73 10 1 -5 rcurveline
            -77 -44 -132 -31 -50 vvcurveto
            -54 85 -73 80 -7 vhcurveto
            return
          </CharString>
          <CharString index="288">
            -68 callgsubr
            71 20 90 18 63 33 34 29 16 52 -10 30 -16 18 return
          </CharString>
          <CharString index="289">
            vvcurveto
            195 callgsubr
            return
          </CharString>
          <CharString index="290">
            342 callgsubr
            41 32 return
          </CharString>
          <CharString index="291">
            hlineto
            -55 -250 218 callgsubr
            return
          </CharString>
          <CharString index="292">
            -6 -4 -6 -5 -5 128 callgsubr
            return
          </CharString>
          <CharString index="293">
            35 -9 15 -13 12 -15 10 rrcurveto
            return
          </CharString>
          <CharString index="294">
            -35 23 -39 rrcurveto
            return
          </CharString>
          <CharString index="295">
            -101 callgsubr
            204 hlineto
            22 -90 rlineto
            -42 -4 -52 -8 -52 vhcurveto
            -68 -13 -59 -21 -46 -22 -27 -17 -9 -31 -1 -36 27 -46 50 -47 81 -20 40 6 45 15 26 32 15 39 14 57 12 63 return
          </CharString>
          <CharString index="296">
            -6 44 1 45 21 37 30 rlinecurve
            6 -6 return
          </CharString>
          <CharString index="297">
            -69 -134 -47 -53 vvcurveto
            -70 106 -75 77 return
          </CharString>
          <CharString index="298">
            81 -44 110 -11 80 -39 1 -8 rcurveline
            -75 -50 -138 -19 -106 -1 -28 -26 8 -49 47 -38 130 7 170 44 68 48 34 52 7 61 -31 29 -73 33 -111 15 -68 33 3 11 rcurveline
            71 20 90 18 return
          </CharString>
          <CharString index="299">
            230 110 rmoveto
            -35 21 -12 33 43 vvcurveto
            2 107 60 108 104 46 41 -26 20 -31 24 -42 -26 -107 rcurveline
            return
          </CharString>
          <CharString index="300">
            rmoveto
            -1 -67 30 -66 49 -51 433 callgsubr
            -13 38 -9 80 -32 29 -21 9 -46 -3 -62 -39 return
          </CharString>
          <CharString index="301">
            72 16 92 22 56 26 108 callgsubr
            return
          </CharString>
          <CharString index="302">
            273 callsubr
            -2 56 -65 91 return
          </CharString>
          <CharString index="303">
            26 128 callsubr
            return
          </CharString>
          <CharString index="304">
            30 136 callsubr
            return
          </CharString>
          <CharString index="305">
            -49 -54 519 callgsubr
            return
          </CharString>
          <CharString index="306">
            -38 -39 -43 -45 return
          </CharString>
          <CharString index="307">
            -31 59 -61 19 -40 -12 -30 -30 -54 -64 -49 -52 -44 14 -41 40 -12 43 54 61 152 59 62 58 34 34 17 45 -13 32 12 callgsubr
          </CharString>
          <CharString index="308">
            -67 -40 -169 return
          </CharString>
          <CharString index="309">
            rmoveto
            28 -52 32 -82 19 -80 535 callsubr
            57 -15 49 -4 60 12 9 rcurveline
            36 -10 29 -23 29 -36 398 callgsubr
            -54 -9 -28 -28 -22 -39 rrcurveto
            endchar
          </CharString>
          <CharString index="310">
            45 78 31 129 -12 58 -21 78 -171 49 -118 45 2 7 rcurveline
            470 callgsubr
            495 callsubr
            284 -107 callsubr
          </CharString>
          <CharString index="311">
            rmoveto
            9 44 48 53 40 5 33 -17 19 -43 5 -35 -15 -42 -32 -37 -40 -33 -30 25 -25 36 -12 44 rrcurveto
            return
          </CharString>
          <CharString index="312">
            172 callsubr
            84 -16 rcurveline
            -83 190 callsubr
            return
          </CharString>
          <CharString index="313">
            rmoveto
            -36 -28 -29 -35 -34 28 325 callsubr
            29 -34 hvcurveto
            return
          </CharString>
          <CharString index="314">
            37 -11 26 -21 31 383 callsubr
            return
          </CharString>
          <CharString index="315">
            -52 59 -28 66 return
          </CharString>
          <CharString index="316">
            -50 -18 -58 -7 -50 -2 -15 8 -14 9 -15 11 rrcurveto
            79 45 63 68 65 -43 callgsubr
            return
          </CharString>
          <CharString index="317">
            82 65 58 90 7 85 -18 51 -70 43 -71 -56 22 -152 rcurveline
            -64 -97 rlineto
            -20 8 19 -9 27 hhcurveto
            return
          </CharString>
          <CharString index="318">
            -70 -84 -39 -95 15 -91 29 -38 76 -14 51 69 -46 131 rcurveline
            44 104 -13 18 -21 5 -26 -5 rlinecurve
            return
          </CharString>
          <CharString index="319">
            21 109 callgsubr
            return
          </CharString>
          <CharString index="320">
            -46 rrcurveto
            207 callgsubr
            return
          </CharString>
          <CharString index="321">
            rmoveto
            293 callsubr
            -70 -31 -35 -37 -38 -48 -3 -29 37 -19 32 4 rrcurveto
            return
          </CharString>
          <CharString index="322">
            48 -40 72 -11 return
          </CharString>
          <CharString index="323">
            -2 -6 rcurveline
            -60 -35 -82 -24 -71 -22 rrcurveto
            -49 -37 -32 -39 -50 vvcurveto
            -74 80 -65 113 -22 vhcurveto
            151 4 119 95 -6 115 -23 31 -48 30 -46 20 32 23 13 39 -8 31 -14 return
          </CharString>
          <CharString index="324">
            hlineto
            228 callgsubr
            return
          </CharString>
          <CharString index="325">
            282 callgsubr
            255 hlineto
            33 return
          </CharString>
          <CharString index="326">
            302 callsubr
            rrcurveto
            -15 31 45 -19 24 hhcurveto
            return
          </CharString>
          <CharString index="327">
            21 rlinecurve
            29 299 96 callsubr
            return
          </CharString>
          <CharString index="328">
            31 48 34 39 29 rrcurveto
            return
          </CharString>
          <CharString index="329">
            -300 -85 callsubr
            300 -107 callsubr
          </CharString>
          <CharString index="330">
            63 rrcurveto
            361 -92 callsubr
          </CharString>
          <CharString index="331">
            406 callsubr
            -15 -25 38 -39 hhcurveto
            -111 -88 -145 72 callgsubr
            -55 -24 -80 -36 -55 354 callsubr
            return
          </CharString>
          <CharString index="332">
            -5 87 -59 69 -108 -9 199 callsubr
            -41 -43 443 callgsubr
            return
          </CharString>
          <CharString index="333">
            rmoveto
            -52 -78 rlineto
            -17 7 16 -7 21 hhcurveto
            66 53 47 72 5 68 -14 41 -56 35 -58 -45 rrcurveto
            return
          </CharString>
          <CharString index="334">
            -59 callsubr
            -13 47 6 return
          </CharString>
          <CharString index="335">
            29 -22 9 -45 -3 279 callsubr
            return
          </CharString>
          <CharString index="336">
            hlineto
            7 callgsubr
            -167 hlineto
            return
          </CharString>
          <CharString index="337">
            -19 31 -43 259 callgsubr
            return
          </CharString>
          <CharString index="338">
            -121 425 callsubr
            113 -3 hvcurveto
            return
          </CharString>
          <CharString index="339">
            190 callgsubr
            14 return
          </CharString>
          <CharString index="340">
            255 callsubr
            -31 -15 return
          </CharString>
          <CharString index="341">
            518 callgsubr
            187 callgsubr
            return
          </CharString>
          <CharString index="342">
            474 callsubr
            -48 -31 rrcurveto
            return
          </CharString>
          <CharString index="343">
            hlineto
            41 385 callsubr
            return
          </CharString>
          <CharString index="344">
            129 126 vvcurveto
            return
          </CharString>
          <CharString index="345">
            hlineto
            36 -17 39 -17 22 -27 -4 -9 rcurveline
            -62 -31 -80 -16 -86 -17 return
          </CharString>
          <CharString index="346">
            19 64 68 116 rcurveline
            143 hlineto
            543 54 373 callgsubr
            -416 -101 callgsubr
            115 hlineto
            -39 return
          </CharString>
          <CharString index="347">
            110 8 100 65 61 vvcurveto
            27 -20 18 -29 13 vhcurveto
            3 7 22 -7 25 -5 29 1 rlinecurve
            return
          </CharString>
          <CharString index="348">
            299 callgsubr
            -238 rmoveto
            -46 -20 return
          </CharString>
          <CharString index="349">
            48 43 55 41 45 38 5 53 -31 32 -39 11 -38 -14 -38 -10 -41 -8 -7 9 rcurveline
            61 27 60 34 45 31 20 24 9 23 -7 22 -13 12 -13 9 -15 9 rrcurveto
            return
          </CharString>
          <CharString index="350">
            rmoveto
            36 96 -26 28 -89 7 -43 -11 rlinecurve
            -64 -114 8 -13 30 -6 16 5 rlinecurve
            40 50 14 -6 -27 -53 -63 -276 30 -18 48 -3 38 5 rlinecurve
            7 104 rlineto
            return
          </CharString>
          <CharString index="351">
            -300 111 348 17 callgsubr
            return
          </CharString>
          <CharString index="352">
            -133 -54 -166 -52 -133 -45 -25 -19 -12 -34 3 -41 304 callgsubr
            4 53 21 15 28 10 47 1 55 -12 52 43 15 43 16 43 17 return
          </CharString>
          <CharString index="353">
            rmoveto
            29 33 4 28 -18 10 -163 -17 rcurveline
            -169 5 -23 -30 -4 -23 15 -16 rlinecurve
            return
          </CharString>
          <CharString index="354">
            -79 -85 6 -20 18 -12 26 -5 rlinecurve
            91 51 71 80 21 83 return
          </CharString>
          <CharString index="355">
            43 14 19 463 callgsubr
            -10 66 return
          </CharString>
          <CharString index="356">
            17 379 callgsubr
            return
          </CharString>
          <CharString index="357">
            -5 -37 42 -38 72 -8 58 47 67 return
          </CharString>
          <CharString index="358">
            27 38 vvcurveto
            39 13 40 19 33 vhcurveto
            return
          </CharString>
          <CharString index="359">
            hlineto
            36 -17 38 -17 22 -27 return
          </CharString>
          <CharString index="360">
            265 callsubr
            -56 return
          </CharString>
          <CharString index="361">
            3 319 callgsubr
            return
          </CharString>
          <CharString index="362">
            3 53 -31 36 -50 14 return
          </CharString>
          <CharString index="363">
            -101 rmoveto
            -1 -67 30 -66 49 -50 381 callgsubr
            51 -13 39 -9 80 -32 29 -22 8 -45 -2 258 callsubr
            69 6 return
          </CharString>
          <CharString index="364">
            rmoveto
            -26 -142 -27 -117 -45 -172 28 -31 64 -12 47 22 12 154 16 135 16 127 69 289 rcurveline
            -29 30 -44 -5 -66 -31 rrcurveto
            endchar
          </CharString>
          <CharString index="365">
            -63 475 callgsubr
            1 -31 25 -33 return
          </CharString>
          <CharString index="366">
            vhcurveto
            64 -1 104 76 76 76 9 -9 rcurveline
            return
          </CharString>
          <CharString index="367">
            -66 callsubr
            42 420 return
          </CharString>
          <CharString index="368">
            vhcurveto
            27 -9 25 187 callsubr
            return
          </CharString>
          <CharString index="369">
            -75 252 208 rmoveto
            -41 14 -23 24 -9 23 -10 19 0 16 8 16 22 25 66 24 62 31 30 -17 29 -21 16 -22 -8 -56 -59 -56 -83 -20 rrcurveto
            return
          </CharString>
          <CharString index="370">
            rmoveto
            -32 13 -18 17 -18 28 25 14 27 14 29 15 8 -31 -2 -32 -8 -32 rrcurveto
            return
          </CharString>
          <CharString index="371" raw="1">
            f703b3be d51f95f7 ca1d490a 0b
          </CharString>
          <CharString index="372">
            478 callsubr
            -40 return
          </CharString>
          <CharString index="373">
            rmoveto
            54 512 callgsubr
            22 19 8 13 7 hvcurveto
            106 -40 -94 163 -69 hhcurveto
            -47 196 callgsubr
            rrcurveto
            endchar
          </CharString>
          <CharString index="374" raw="1">
            953d8585 6d180b  
          </CharString>
          <CharString index="375">
            60 17 27 33 -11 40 return
          </CharString>
          <CharString index="376">
            29 rcurveline
            5 6 return
          </CharString>
          <CharString index="377">
            330 callsubr
            10 -31 2 -31 return
          </CharString>
          <CharString index="378">
            hlineto
            -73 callgsubr
            return
          </CharString>
          <CharString index="379">
            -65 -9 -35 18 -30 61 -15 54 60 95 70 74 43 -53 -156 rcurveline
            9 -37 return
          </CharString>
          <CharString index="380">
            32 4 197 callsubr
            return
          </CharString>
          <CharString index="381">
            44 -33 66 -10 41 20 rlinecurve
            return
          </CharString>
          <CharString index="382">
            hlineto
            -24 26 -41 10 -78 -6 return
          </CharString>
          <CharString index="383">
            rmoveto
            55 512 callgsubr
            22 18 8 13 7 hvcurveto
            106 -39 -94 163 -70 hhcurveto
            -46 196 callgsubr
            rrcurveto
            return
          </CharString>
          <CharString index="384">
            281 callsubr
            29 -16 rrcurveto
            119 372 callsubr
            -37 -39 return
          </CharString>
          <CharString index="385">
            444 callgsubr
            29 28 35 35 -29 28 -34 hvcurveto
            return
          </CharString>
          <CharString index="386">
            258 callsubr
            68 6 515 callsubr
            return
          </CharString>
          <CharString index="387">
            -63 637 623 488 callgsubr
            return
          </CharString>
          <CharString index="388">
            -26 -38 vvcurveto
            -72 -35 -62 -97 -75 vhcurveto
            -3 -16 15 -15 return
          </CharString>
          <CharString index="389">
            81 106 289 callsubr
            -74 60 return
          </CharString>
          <CharString index="390">
            rmoveto
            -5 -77 -80 -82 -109 -23 return
          </CharString>
          <CharString index="391">
            55 87 268 callgsubr
            return
          </CharString>
          <CharString index="392">
            -6 rcurveline
            -67 -53 -97 -35 return
          </CharString>
          <CharString index="393">
            356 callgsubr
            -12 return
          </CharString>
          <CharString index="394">
            256 callgsubr
            -3 return
          </CharString>
          <CharString index="395">
            369 callsubr
            53 -22 return
          </CharString>
          <CharString index="396">
            70 126 vvcurveto
            85 return
          </CharString>
          <CharString index="397">
            -20 25 callsubr
            return
          </CharString>
          <CharString index="398">
            391 rmoveto
            -57 -83 -105 -78 -64 -78 callsubr
            return
          </CharString>
          <CharString index="399">
            221 305 callsubr
            return
          </CharString>
          <CharString index="400">
            7 2 31 -37 42 -28 86 -19 rlinecurve
            72 30 44 47 25 40 5 27 -31 17 -35 -6 -64 -81 rcurveline
            284 callgsubr
            return
          </CharString>
          <CharString index="401">
            -78 callgsubr
            -23 -19 -22 -2 -34 47 -38 67 -6 return
          </CharString>
          <CharString index="402">
            486 callgsubr
            -15 32 38 vvcurveto
            83 57 109 callsubr
            return
          </CharString>
          <CharString index="403">
            -297 206 600 rmoveto
            43 35 37 42 -1 hvcurveto
            45 -1 -35 34 -43 hhcurveto
            -46 -37 -34 -45 1 hvcurveto
            -42 1 36 -37 47 hhcurveto
            return
          </CharString>
          <CharString index="404">
            72 606 382 rmoveto
            -261 -18 -261 5 -23 -31 -5 -33 15 -16 rlinecurve
            519 325 callgsubr
          </CharString>
          <CharString index="405">
            -8 -31 -1 -36 30 -54 59 -37 58 375 callsubr
            return
          </CharString>
          <CharString index="406">
            hlineto
            289 355 callgsubr
            return
          </CharString>
          <CharString index="407">
            -101 callsubr
            48 hlineto
            return
          </CharString>
          <CharString index="408">
            355 callsubr
            62 51 rrcurveto
            34 34 return
          </CharString>
          <CharString index="409">
            46 4 8 rcurveline
            34 -1 37 7 37 13 return
          </CharString>
          <CharString index="410">
            rmoveto
            15 16 callsubr
            return
          </CharString>
          <CharString index="411">
            427 callsubr
            33 61 return
          </CharString>
          <CharString index="412">
            178 95 44 callgsubr
            return
          </CharString>
          <CharString index="413">
            60 68 63 7 554 callsubr
            -54 -237 47 -40 73 -11 41 212 callsubr
            return
          </CharString>
          <CharString index="414">
            328 callsubr
            41 420 return
          </CharString>
          <CharString index="415">
            -39 37 -36 40 -30 38 222 callgsubr
            return
          </CharString>
          <CharString index="416">
            78 -4 142 84 5 368 callgsubr
            return
          </CharString>
          <CharString index="417">
            -12 -14 -7 -23 -2 -19 return
          </CharString>
          <CharString index="418">
            408 callsubr
            58 34 return
          </CharString>
          <CharString index="419">
            -22 18 -19 29 return
          </CharString>
          <CharString index="420">
            207 511 34 callgsubr
            return
          </CharString>
          <CharString index="421">
            378 callgsubr
            128 -35 99 401 callgsubr
            -72 79 -127 89 -102 35 rrcurveto
            return
          </CharString>
          <CharString index="422">
            41 10 -17 rcurveline
            -75 -65 -92 -59 -93 -46 -11 -38 17 -29 53 -21 68 53 51 49 51 55 9 -6 rcurveline
            -37 -82 44 -33 return
          </CharString>
          <CharString index="423">
            -192 rmoveto
            -39 -8 -18 -31 8 -51 111 -21 85 -32 91 -53 return
          </CharString>
          <CharString index="424">
            311 callgsubr
            402 callsubr
            21 return
          </CharString>
          <CharString index="425" raw="1">
            f8511d6c 5ff8401d 0b 
          </CharString>
          <CharString index="426">
            -34 23 -13 47 6 48 5 45 430 callsubr
            -100 72 return
          </CharString>
          <CharString index="427">
            -283 rmoveto
            66 53 47 72 5 68 -14 41 -56 35 -58 -45 18 -122 rcurveline
            -52 -78 rlineto
            -17 7 16 -7 21 hhcurveto
            return
          </CharString>
          <CharString index="428">
            hhcurveto
            -111 -88 -145 391 callsubr
            return
          </CharString>
          <CharString index="429">
            hlineto
            -26 -114 -62 -70 -74 -67 -59 -40 rlinecurve
            -7 377 callsubr
            -6 58 -26 45 -55 24 -24 6 return
          </CharString>
          <CharString index="430">
            hlineto
            -278 -323 rmoveto
            117 callgsubr
            65 13 22 rcurveline
            25 -37 37 -38 45 -39 -54 -43 -59 -45 -46 -32 rrcurveto
            return
          </CharString>
          <CharString index="431">
            124 -107 callsubr
          </CharString>
          <CharString index="432">
            -28 36 403 callsubr
            return
          </CharString>
          <CharString index="433">
            -3 -101 72 -97 return
          </CharString>
          <CharString index="434">
            6 -70 18 -33 18 5 246 callgsubr
            return
          </CharString>
          <CharString index="435">
            182 callsubr
            -66 callsubr
            return
          </CharString>
          <CharString index="436">
            5 rcurveline
            14 74 19 66 20 64 67 116 rcurveline
            143 hlineto
            return
          </CharString>
          <CharString index="437">
            375 callgsubr
            25 14 return
          </CharString>
          <CharString index="438">
            -19 -23 26 rcurveline
            -53 -2 -40 -46 -7 -56 65 return
          </CharString>
          <CharString index="439">
            66 41 46 26 62 41 10 -17 rcurveline
            -75 -65 return
          </CharString>
          <CharString index="440">
            436 callsubr
            -9 7 rcurveline
            return
          </CharString>
          <CharString index="441">
            319 rmoveto
            0 vlineto
            -49 -49 return
          </CharString>
          <CharString index="442">
            24 -23 6 -46 0 -35 -5 return
          </CharString>
          <CharString index="443">
            -8 -65 27 -62 76 -30 return
          </CharString>
          <CharString index="444">
            rmoveto
            -33 14 -19 17 -17 return
          </CharString>
          <CharString index="445">
            84 5 85 11 72 11 return
          </CharString>
          <CharString index="446">
            438 callgsubr
            86 return
          </CharString>
          <CharString index="447">
            6 -10 rcurveline
            -29 -39 return
          </CharString>
          <CharString index="448">
            -4 -37 -56 -63 -57 return
          </CharString>
          <CharString index="449">
            hlineto
            18 -89 rlineto
            return
          </CharString>
          <CharString index="450">
            479 callgsubr
            19 -10 -33 -11 -34 -12 -33 rrcurveto
            92 401 rmoveto
            return
          </CharString>
          <CharString index="451">
            44 -33 65 -10 42 20 rlinecurve
            41 420 70 138 rlineto
            123 -92 callsubr
          </CharString>
          <CharString index="452">
            142 84 6 return
          </CharString>
          <CharString index="453">
            97 callsubr
            597 415 rmoveto
            return
          </CharString>
          <CharString index="454">
            rmoveto
            -28 -39 callsubr
            620 412 rmoveto
            return
          </CharString>
          <CharString index="455">
            479 callsubr
            13 50 18 379 callgsubr
            return
          </CharString>
          <CharString index="456">
            238 callgsubr
            249 callsubr
            return
          </CharString>
          <CharString index="457">
            461 callgsubr
            25 361 callsubr
            597 415 rmoveto
            return
          </CharString>
          <CharString index="458">
            -94 callgsubr
            -434 -101 callgsubr
            436 hlineto
            return
          </CharString>
          <CharString index="459">
            309 callsubr
            27 -6 return
          </CharString>
          <CharString index="460">
            -75 8 172 callsubr
            return
          </CharString>
          <CharString index="461">
            378 callsubr
            437 callgsubr
            return
          </CharString>
          <CharString index="462">
            57 62 150 64 return
          </CharString>
          <CharString index="463">
            -98 77 -51 107 -3 return
          </CharString>
          <CharString index="464">
            130 callgsubr
            31 37 47 369 callgsubr
            21 -24 -20 4 hvcurveto
            -4 -70 -105 -72 -99 -18 return
          </CharString>
          <CharString index="465">
            157 498 rmoveto
            40 58 68 59 54 28 287 callgsubr
            -20 -47 -73 -53 -60 -14 rrcurveto
            return
          </CharString>
          <CharString index="466">
            rmoveto
            -6 callsubr
            return
          </CharString>
          <CharString index="467">
            355 rmoveto
            -49 -68 -101 -71 -50 450 callgsubr
            return
          </CharString>
          <CharString index="468">
            15 196 callsubr
            return
          </CharString>
          <CharString index="469">
            -35 -33 -61 rrcurveto
            -50 54 -50 68 -17 vhcurveto
            return
          </CharString>
          <CharString index="470">
            62 68 285 callgsubr
            return
          </CharString>
          <CharString index="471">
            -27 -19 3 -64 43 -34 return
          </CharString>
          <CharString index="472">
            -9 -70 -55 -47 -45 -19 return
          </CharString>
          <CharString index="473">
            -410 215 callsubr
            return
          </CharString>
          <CharString index="474">
            2 319 callgsubr
            return
          </CharString>
          <CharString index="475">
            -11 -42 201 callsubr
            return
          </CharString>
          <CharString index="476">
            -13 -35 17 -30 return
          </CharString>
          <CharString index="477">
            -1 -21 -91 23 -20 54 -4 27 8 rlinecurve
            8 104 64 -2 13 12 8 40 -6 17 rlinecurve
            endchar
          </CharString>
          <CharString index="478">
            hhcurveto
            -111 -88 -131 -83 -46 31 -38 58 -3 hvcurveto
            return
          </CharString>
          <CharString index="479">
            82 97 83 117 154 callsubr
            return
          </CharString>
          <CharString index="480">
            -30 -55 -66 -45 -47 -47 11 -44 37 -8 45 57 62 return
          </CharString>
          <CharString index="481">
            hhcurveto
            -13 -14 2 5 -15 hvcurveto
            64 53 47 58 53 vvcurveto
            return
          </CharString>
          <CharString index="482">
            487 callsubr
            15 32 27 hvcurveto
            return
          </CharString>
          <CharString index="483">
            13 rrcurveto
            -15 32 44 -19 25 hhcurveto
            return
          </CharString>
          <CharString index="484">
            4 286 callgsubr
            rlinecurve
            return
          </CharString>
          <CharString index="485">
            -2 rlinecurve
            -62 12 -65 72 -42 48 return
          </CharString>
          <CharString index="486">
            rcurveline
            466 callgsubr
            return
          </CharString>
          <CharString index="487">
            vlineto
            155 callgsubr
            return
          </CharString>
          <CharString index="488">
            222 callgsubr
            rrcurveto
            return
          </CharString>
          <CharString index="489">
            51 63 55 -1 66 -34 28 return
          </CharString>
          <CharString index="490">
            -37 268 callsubr
            return
          </CharString>
          <CharString index="491">
            hlineto
            37 -21 34 -24 19 -23 return
          </CharString>
          <CharString index="492">
            -22 38 -26 19 -25 return
          </CharString>
          <CharString index="493" raw="1">
            85196070 590b  
          </CharString>
          <CharString index="494">
            47 48 39 rlinecurve
            41 501 callsubr
            -98 -71 vhcurveto
            40 -46 rlineto
            122 81 return
          </CharString>
          <CharString index="495">
            -410 48 -40 72 36 callsubr
            return
          </CharString>
          <CharString index="496">
            201 409 callsubr
            return
          </CharString>
          <CharString index="497">
            204 rmoveto
            -29 -39 callsubr
            return
          </CharString>
          <CharString index="498">
            72 callgsubr
            -49 -23 -83 -37 -58 378 callsubr
            return
          </CharString>
          <CharString index="499">
            38 18 38 20 return
          </CharString>
          <CharString index="500">
            524 callsubr
            62 -11 43 1 53 15 26 28 18 54 return
          </CharString>
          <CharString index="501">
            -48 -1 rrcurveto
            -128 -121 -135 -117 -93 75 -59 113 -2 hvcurveto
            35 36 42 return
          </CharString>
          <CharString index="502">
            40 -82 68 -61 219 callsubr
            return
          </CharString>
          <CharString index="503">
            rmoveto
            -32 13 -18 16 -17 27 26 12 26 10 26 return
          </CharString>
          <CharString index="504">
            10 22 vvcurveto
            1 5 2 5 2 5 53 -15 rcurveline
            return
          </CharString>
          <CharString index="505">
            336 callgsubr
            -8 555 callsubr
            return
          </CharString>
          <CharString index="506">
            -949 -89 callgsubr
            return
          </CharString>
          <CharString index="507">
            -28 6 477 callgsubr
            -17 -18 return
          </CharString>
          <CharString index="508">
            2 26 464 callsubr
            return
          </CharString>
          <CharString index="509">
            357 callgsubr
            -12 42 3 53 return
          </CharString>
          <CharString index="510">
            34 474 callgsubr
            return
          </CharString>
          <CharString index="511">
            -38 -30 vvcurveto
            -24 -9 -23 return
          </CharString>
          <CharString index="512">
            -3 vhcurveto
            202 callgsubr
            return
          </CharString>
          <CharString index="513">
            rmoveto
            -5 -2 rlineto
            44 return
          </CharString>
          <CharString index="514">
            -23 vhcurveto
            112 2 return
          </CharString>
          <CharString index="515">
            56 32 58 32 return
          </CharString>
          <CharString index="516">
            376 callgsubr
            15 25 14 196 callsubr
            return
          </CharString>
          <CharString index="517">
            hlineto
            399 callgsubr
            18 -89 rlineto
            -31 -2 -31 -5 return
          </CharString>
          <CharString index="518">
            rmoveto
            -28 13 -28 24 -18 30 38 19 38 15 40 10 -8 -39 -10 -36 -13 -30 rrcurveto
            return
          </CharString>
          <CharString index="519">
            171 callsubr
            60 52 50 407 callgsubr
            return
          </CharString>
          <CharString index="520">
            hlineto
            21 -90 -1 -30 -2 -30 -4 -29 476 callsubr
            -64 -25 -23 -16 -12 -31 return
          </CharString>
          <CharString index="521">
            -31 -40 30 30 -2 hvcurveto
            40 51 196 93 86 vvcurveto
            15 -8 15 -14 15 vhcurveto
            return
          </CharString>
          <CharString index="522">
            hlineto
            -48 483 callsubr
            19 -10 -39 return
          </CharString>
          <CharString index="523">
            456 callgsubr
            12 70 50 83 return
          </CharString>
          <CharString index="524">
            -1 -16 5 -22 20 -16 19 525 callsubr
            -15 return
          </CharString>
          <CharString index="525">
            -39 60 -18 85 19 109 62 93 71 8 -27 7 -28 4 -30 -7 -31 -10 return
          </CharString>
          <CharString index="526">
            -11 41 21 rlinecurve
            29 298 43 41 49 44 return
          </CharString>
          <CharString index="527">
            -75 73 -114 105 -64 vhcurveto
            return
          </CharString>
          <CharString index="528">
            41 47 29 43 30 hvcurveto
            44 return
          </CharString>
          <CharString index="529">
            10 -53 -2 -36 -44 -8 -56 return
          </CharString>
          <CharString index="530">
            19 -5 10 44 31 48 34 return
          </CharString>
          <CharString index="531">
            18 -23 -19 3 hvcurveto
            -1 -76 return
          </CharString>
          <CharString index="532">
            -135 -128 -93 75 -59 return
          </CharString>
          <CharString index="533">
            59 -59 18 -40 -12 return
          </CharString>
          <CharString index="534">
            -188 rmoveto
            33 64 return
          </CharString>
          <CharString index="535">
            rmoveto
            -35 -29 -28 -35 -34 29 -29 35 35 28 29 34 35 -28 28 -35 hvcurveto
            return
          </CharString>
          <CharString index="536">
            316 callgsubr
            -42 -61 return
          </CharString>
          <CharString index="537">
            36 45 41 32 rrcurveto
            491 callsubr
            return
          </CharString>
          <CharString index="538">
            122 -36 56 -60 16 -37 -12 return
          </CharString>
          <CharString index="539">
            -29 178 callgsubr
            return
          </CharString>
          <CharString index="540">
            3 -34 25 2 24 rrcurveto
            39 50 return
          </CharString>
          <CharString index="541">
            -40 -57 -34 -44 -30 hvcurveto
            return
          </CharString>
          <CharString index="542">
            -41 159 callsubr
            return
          </CharString>
          <CharString index="543">
            199 callsubr
            -42 -42 return
          </CharString>
          <CharString index="544">
            -25 -18 -12 -34 return
          </CharString>
          <CharString index="545">
            15 vhcurveto
            31 -8 return
          </CharString>
          <CharString index="546">
            rmoveto
            14 54 34 63 40 5 33 -17 19 -43 5 -35 -17 -46 -36 -40 return
          </CharString>
          <CharString index="547">
            469 callsubr
            64 259 callsubr
            return
          </CharString>
          <CharString index="548">
            -85 -129 -97 rlineto
            -8 -17 -4 -18 -18 vvcurveto
            172 -216 rlineto
            40 return
          </CharString>
          <CharString index="549">
            48 -13 44 70 64 50 66 4 45 rrcurveto
            2 43 -49 47 -49 26 rrcurveto
            return
          </CharString>
          <CharString index="550">
            251 callsubr
            28 return
          </CharString>
          <CharString index="551">
            -77 85 -84 122 407 callsubr
            return
          </CharString>
          <CharString index="552">
            -71 -50 -10 5 rcurveline
            117 callgsubr
            return
          </CharString>
          <CharString index="553">
            -5 22 -26 -38 vvcurveto
            return
          </CharString>
          <CharString index="554">
            hlineto
            6 callsubr
            -3 return
          </CharString>
          <CharString index="555">
            rrcurveto
            36 -23 -31 36 -29 hhcurveto
            -110 -111 -109 -102 -10 hvcurveto
            return
          </CharString>
          <CharString index="556">
            rmoveto
            -12 62 -44 69 -106 -6 -50 -49 -57 -55 -53 -49 -10 10 rcurveline
            return
          </CharString>
          <CharString index="557">
            hlineto
            20 -95 156 callgsubr
            rlinecurve
            516 callsubr
            return
          </CharString>
          <CharString index="558">
            -59 455 callsubr
            return
          </CharString>
          <CharString index="559" raw="1">
            cc39f71a 650a3cb3 0b 
          </CharString>
          <CharString index="560">
            87 285 332 rmoveto
            119 294 12 3 10 -294 rlineto
            return
          </CharString>
          <CharString index="561">
            -79 144 -5 return
          </CharString>
          <CharString index="562">
            408 callgsubr
            15 74 19 66 19 64 68 116 rcurveline
            return
          </CharString>
          <CharString index="563">
            -19 rmoveto
            -45 -6 -24 -34 4 -60 529 callsubr
            return
          </CharString>
          <CharString index="564" raw="1">
            9cf5b4db f8971d4c fba8ba63 0b
          </CharString>
          <CharString index="565">
            184 rmoveto
            -14 36 -10 33 3 27 4 12 6 8 9 3 return
          </CharString>
          <CharString index="566">
            -9 72 -44 38 -44 -2 -151 -38 -130 -154 -32 -85 return
          </CharString>
          <CharString index="567">
            rmoveto
            120 callsubr
            return
          </CharString>
          <CharString index="568">
            -62 16 -6 19 265 callsubr
            return
          </CharString>
          <CharString index="569">
            rmoveto
            39 59 72 63 56 29 13 -2 return
          </CharString>
          <CharString index="570">
            456 rmoveto
            -62 -70 -74 -68 return
          </CharString>
          <CharString index="571">
            116 22 126 2 64 return
          </CharString>
          <CharString index="572">
            rmoveto
            -28 14 -14 32 38 vvcurveto
            return
          </CharString>
          <CharString index="573">
            -78 -175 -86 -123 -57 return
          </CharString>
          <CharString index="574">
            hlineto
            -27 -145 -4 -2 return
          </CharString>
          <CharString index="575">
            386 callgsubr
            rrcurveto
            return
          </CharString>
          <CharString index="576">
            -40 -78 vvcurveto
            -58 105 -73 return
          </CharString>
          <CharString index="577">
            -27 -47 -27 -50 -27 15 return
          </CharString>
          <CharString index="578">
            -33 -37 -45 -30 -48 -3 return
          </CharString>
          <CharString index="579">
            42 3 53 21 16 28 return
          </CharString>
          <CharString index="580">
            83 142 87 127 return
          </CharString>
          <CharString index="581">
            -1 -30 -30 -51 -36 return
          </CharString>
          <CharString index="582">
            -2 -65 -16 -61 -38 return
          </CharString>
          <CharString index="583">
            rlinecurve
            -63 -31 -63 -29 return
          </CharString>
          <CharString index="584">
            44 rcurveline
            5 -8 return
          </CharString>
          <CharString index="585">
            -11 3 -15 -4 return
          </CharString>
          <CharString index="586">
            428 rmoveto
            -64 -59 -96 -67 -71 -45 -10 5 rcurveline
            13 76 return
          </CharString>
          <CharString index="587">
            -53 -29 -67 -27 -68 -24 rlinecurve
            9 55 8 57 4 52 rrcurveto
            return
          </CharString>
          <CharString index="588">
            vlineto
            -56 7 -54 1 -51 -3 12 76 10 80 5 67 rrcurveto
            return
          </CharString>
          <CharString index="589">
            -6 -4 rlineto
            37 -26 -32 37 -29 hhcurveto
            -110 -99 -109 return
          </CharString>
          <CharString index="590">
            -365 125 callsubr
            return
          </CharString>
          <CharString index="591">
            12 rcurveline
            50 50 95 557 callgsubr
            175 hlineto
            2 -18 return
          </CharString>
          <CharString index="592">
            -48 33 510 callsubr
            6 hvcurveto
            -22 56 -17 57 return
          </CharString>
          <CharString index="593">
            -102 -22 -20 -16 -16 -27 -1 -29 25 -57 40 -25 57 -11 return
          </CharString>
          <CharString index="594">
            -11 rrcurveto
            46 55 return
          </CharString>
          <CharString index="595">
            -23 72 -48 11 -41 -23 -27 -54 40 -73 113 -80 return
          </CharString>
          <CharString index="596">
            543 callsubr
            -50 11 rlinecurve
            return
          </CharString>
          <CharString index="597">
            520 callgsubr
            27 hvcurveto
            return
          </CharString>
          <CharString index="598">
            135 callsubr
            173 callsubr
            -3 return
          </CharString>
          <CharString index="599">
            384 callgsubr
            -17 24 36 19 36 18 return
          </CharString>
          <CharString index="600">
            9 31 -7 19 400 callsubr
            return
          </CharString>
          <CharString index="601">
            rmoveto
            38 59 72 63 57 29 287 callgsubr
            return
          </CharString>
          <CharString index="602">
            554 callgsubr
            -10 186 callsubr
            return
          </CharString>
          <CharString index="603">
            rmoveto
            399 callsubr
            return
          </CharString>
          <CharString index="604">
            rrcurveto
            181 -107 callsubr
          </CharString>
          <CharString index="605" raw="1">
            19b3f852 0a460b  
          </CharString>
          <CharString index="606">
            vvcurveto
            78 -75 97 -81 -77 -123 return
          </CharString>
          <CharString index="607">
            8 41 15 34 14 6 -6 rcurveline
            return
          </CharString>
          <CharString index="608">
            -9 21 -27 -41 vvcurveto
            -73 -44 -56 return
          </CharString>
          <CharString index="609" raw="1">
            85182cfc 2e0b  
          </CharString>
          <CharString index="610">
            -19 31 -44 19 return
          </CharString>
          <CharString index="611">
            447 381 rmoveto
            466 callgsubr
            return
          </CharString>
          <CharString index="612">
            -69 6 -27 -39 -7 -47 25 -35 41 -21 39 -14 return
          </CharString>
          <CharString index="613">
            50 169 76 94 vvcurveto
            -9 36 -44 29 -56 12 return
          </CharString>
          <CharString index="614">
            365 callgsubr
            367 callsubr
            return
          </CharString>
          <CharString index="615">
            -24 31 -48 30 -45 20 31 24 14 38 -9 31 return
          </CharString>
          <CharString index="616" raw="1">
            f8b21d62 950b  
          </CharString>
          <CharString index="617">
            -66 rrcurveto
            23 24 6 18 return
          </CharString>
          <CharString index="618">
            15 -53 73 -30 63 -1 return
          </CharString>
          <CharString index="619">
            61 112 73 84 80 return
          </CharString>
          <CharString index="620">
            14 59 11 33 24 36 return
          </CharString>
          <CharString index="621">
            80 68 15 vhcurveto
            30 -8 return
          </CharString>
          <CharString index="622">
            541 callgsubr
            52 46 return
          </CharString>
          <CharString index="623">
            -64 -30 -64 -28 -55 -24 return
          </CharString>
          <CharString index="624" raw="1">
            cf52ba8f 93180b  
          </CharString>
          <CharString index="625">
            -3 -13 -2 -13 return
          </CharString>
          <CharString index="626">
            -46 -10 5 rcurveline
            return
          </CharString>
          <CharString index="627">
            rcurveline
            261 236 callsubr
            rrcurveto
            return
          </CharString>
          <CharString index="628">
            15 -1 21 -71 79 -127 89 -103 35 rrcurveto
            return
          </CharString>
          <CharString index="629">
            rrcurveto
            76 251 rmoveto
            25 -7 30 -52 21 -39 return
          </CharString>
          <CharString index="630" raw="1">
            644cfba8 490a0b  
          </CharString>
          <CharString index="631">
            rrcurveto
            -29 -17 -8 -32 -37 vvcurveto
            29 -51 52 -28 return
          </CharString>
          <CharString index="632">
            -46 4 290 callgsubr
            15 -6 20 -11 3 return
          </CharString>
          <CharString index="633">
            20 rlinecurve
            32 295 2 8 41 39 47 42 return
          </CharString>
          <CharString index="634">
            vvcurveto
            -97 108 -86 136 -16 vhcurveto
            47 58 return
          </CharString>
          <CharString index="635">
            46 363 callsubr
            return
          </CharString>
          <CharString index="636">
            129 -35 98 -47 103 -71 return
          </CharString>
          <CharString index="637">
            22 rrcurveto
            153 146 rmoveto
            return
          </CharString>
          <CharString index="638">
            -53 -28 6 42 5 41 3 return
          </CharString>
          <CharString index="639">
            -33 29 -33 53 -13 30 21 return
          </CharString>
          <CharString index="640">
            rmoveto
            -18 -32 -53 -35 -57 -10 return
          </CharString>
          <CharString index="641">
            51 198 callgsubr
            return
          </CharString>
          <CharString index="642">
            32 1 16 7 5 16 -22 return
          </CharString>
          <CharString index="643">
            rlineto
            -18 8 17 -8 24 hhcurveto
            return
          </CharString>
          <CharString index="644">
            -134 7 -96 -30 return
          </CharString>
          <CharString index="645">
            rmoveto
            -65 -60 -100 -77 return
          </CharString>
          <CharString index="646">
            437 callsubr
            3 return
          </CharString>
          <CharString index="647">
            -10 24 -16 29 -24 return
          </CharString>
          <CharString index="648">
            70 -29 65 -2 return
          </CharString>
          <CharString index="649">
            203 217 rmoveto
            -31 12 -16 13 -14 return
          </CharString>
          <CharString index="650">
            467 callsubr
            -26 40 -32 42 return
          </CharString>
          <CharString index="651">
            rlinecurve
            22 -37 87 -14 55 26 17 106 20 return
          </CharString>
          <CharString index="652">
            5 vhcurveto
            39 -11 18 -46 -48 vvcurveto
            -17 -3 return
          </CharString>
          <CharString index="653">
            -262 -33 -137 -164 -38 -198 return
          </CharString>
          <CharString index="654">
            54 11 51 rrcurveto
            36 -3 -26 26 -32 hhcurveto
            return
          </CharString>
          <CharString index="655">
            hlineto
            -15 -10 -11 -16 -5 -86 callsubr
            return
          </CharString>
          <CharString index="656">
            rmoveto
            -102 callsubr
            return
          </CharString>
          <CharString index="657">
            -82 59 -60 53 177 113 37 56 return
          </CharString>
          <CharString index="658">
            27 48 39 vhcurveto
            -2 28 -10 14 -29 -1 return
          </CharString>
          <CharString index="659">
            -5 234 callsubr
            -56 return
          </CharString>
          <CharString index="660">
            406 callgsubr
            -15 41 -56 35 return
          </CharString>
          <CharString index="661">
            -7 rcurveline
            -26 -48 return
          </CharString>
          <CharString index="662">
            -30 -11 -25 rrcurveto
            return
          </CharString>
          <CharString index="663">
            -59 -77 vvcurveto
            -62 return
          </CharString>
          <CharString index="664">
            440 rmoveto
            -65 return
          </CharString>
        <CharString name=".notdef">
          170 171 hmoveto
          410 701 -410 hlineto
          66 -61 rmoveto
          279 -579 -279 hlineto
          endchar
        </CharString>
        <CharString name="A">
          87 285 332 rmoveto
          -84 callgsubr
        </CharString>
        <CharString name="AE">
          270 669 741 rmoveto
          -136 -130 -9 -26 -88 hvcurveto
          -87 -233 -55 -102 rlineto
          -117 hlineto
          -28 -34 -2 -26 22 -26 82 6 rcurveline
          -143 -255 18 -34 81 -13 57 23 rlinecurve
          123 287 149 9 -57 -253 rlineto
          -34 29 28 -21 67 hhcurveto
          77 137 12 16 81 hvcurveto
          15 30 16 64 -46 20 -81 -22 -111 -23 -78 -5 rrcurveto
          69 vlineto
          31 151 93 10 46 0 90 -7 rlinecurve
          28 32 4 49 -26 17 -90 -10 -64 -8 -73 -7 5 183 rcurveline
          29 75 61 8 51 4 50 -9 rlinecurve
          67 -57 60 41 25 64 -36 39 rlinecurve
          3 -46 -64 2 -64 hhcurveto
          -261 -109 rmoveto
          12 3 rlineto
          -262 vlineto
          -126 -7 rlineto
          endchar
        </CharString>
        <CharString name="Aacute">
          87 671 961 45 callsubr
          -204 -462 rmoveto
          -84 callgsubr
        </CharString>
        <CharString name="Abreve">
          87 476 806 rmoveto
          53 callsubr
          -91 19 68 -49 78 hhcurveto
          -191 -474 rmoveto
          -84 callgsubr
        </CharString>
        <CharString name="Acircumflex">
          87 458 926 94 callsubr
          -29 -467 rmoveto
          -84 callgsubr
        </CharString>
        <CharString name="Adieresis">
          87 571 818 27 callgsubr
          -70 -486 rmoveto
          -84 callgsubr
        </CharString>
        <CharString name="Agrave">
          87 454 799 182 callgsubr
          -109 -553 rmoveto
          -84 callgsubr
        </CharString>
        <CharString name="Amacron">
          87 614 823 246 callsubr
          -481 vmoveto
          -84 callgsubr
        </CharString>
        <CharString name="Aogonek">
          453 callsubr
          126 -49 rmoveto
          97 6 25 38 1 30 -21 17 rlinecurve
          -108 -20 -17 198 19 170 -42 19 -101 9 -93 -44 rlinecurve
          -84 -239 -74 -141 -108 -3 -27 -33 -1 -27 23 -26 rlinecurve
          70 8 -111 -212 20 -34 80 -13 56 23 rlinecurve
          102 253 32 4 132 8 -20 -243 10 -8 12 -6 13 -5 rlinecurve
          -60 -35 -55 -52 -59 vvcurveto
          -52 76 -46 75 82 56 30 45 42 vhcurveto
          28 -1 -13 14 -21 hhcurveto
          -24 -31 -40 -15 -38 hhcurveto
          -34 -27 13 23 -14 hvcurveto
          16 56 50 46 55 17 8 2 7 3 6 3 rrcurveto
          endchar
        </CharString>
        <CharString name="Aring">
          87 459 905 40 callgsubr
          -174 -460 rmoveto
          -84 callgsubr
        </CharString>
        <CharString name="Atilde">
          87 285 332 rmoveto
          -77 callgsubr
          -62 493 rmoveto
          284 callgsubr
          35 callgsubr
          rrcurveto
          endchar
        </CharString>
        <CharString name="B">
          76 487 540 rmoveto
          -3 -61 -17 -19 -40 -36 -48 -21 -46 -6 -64 1 40 261 rcurveline
          127 15 56 -62 -5 -72 rrcurveto
          -277 -462 rmoveto
          50 258 97 9 49 -13 49 -33 rlinecurve
          11 -23 4 -20 -18 vvcurveto
          -48 -14 -41 -38 -46 vhcurveto
          -61 -20 -78 -9 -69 4 rrcurveto
          279 301 rmoveto
          99 46 48 47 1 91 rrcurveto
          92 -96 87 -201 -65 -94 -8 -17 -61 vhcurveto
          -16 -19 1 -30 28 -20 42 4 rcurveline
          -9 -185 -24 -121 -31 -107 -47 -143 rlinecurve
          4 -53 57 -31 59 -12 137 -5 87 9 115 38 75 73 21 64 1 63 rrcurveto
          29 -7 28 -20 27 vhcurveto
          -26 20 -35 17 -44 9 rrcurveto
          endchar
        </CharString>
        <CharString name="C">
          61 431 671 19 callsubr
        </CharString>
        <CharString name="CR">
          -147 endchar
        </CharString>
        <CharString name="Cacute">
          61 488 1010 -46 callsubr
          -57 -339 19 callsubr
        </CharString>
        <CharString name="Ccaron">
          61 487 812 rmoveto
          149 143 -17 44 -63 -4 -33 -10 rlinecurve
          -117 -130 -36 callsubr
          -56 -141 19 callsubr
        </CharString>
        <CharString name="Ccedilla">
          61 431 671 rmoveto
          35 -40 8 -59 4 -59 59 -27 68 24 27 38 -9 84 -48 84 -104 38 -156 -24 -104 -79 -84 -85 -51 -87 -28 -74 -1 -82 rrcurveto
          -151 77 -114 176 -49 vhcurveto
          -53 -108 rlineto
          -59 callgsubr
          47 91 86 36 84 53 45 51 rlinecurve
          2 35 -18 31 -44 -6 -45 -42 -66 -43 -81 -31 rrcurveto
          -102 45 -49 65 123 vvcurveto
          127 91 143 129 64 vhcurveto
          endchar
        </CharString>
        <CharString name="D">
          112 244 340 rmoveto
          28 100 26 105 26 102 152 2 62 -105 1 -142 rrcurveto
          -116 -52 -99 -104 -78 vhcurveto
          -57 -17 -52 -6 -64 -2 rrcurveto
          -46 548 rmoveto
          -3 -154 -29 -147 -34 -97 -52 -141 37 callsubr
        </CharString>
        <CharString name="Dcaron">
          112 590 955 rmoveto
          -17 44 -63 -4 -33 -10 -117 -130 rcurveline
          -36 callsubr
          -197 -472 rmoveto
          28 100 26 105 26 102 152 2 62 -105 1 -142 rrcurveto
          -116 -52 -99 -104 -78 vhcurveto
          -57 -17 -52 -6 -64 -2 rrcurveto
          -46 548 rmoveto
          -3 -154 -29 -147 -34 -97 -52 -141 37 callsubr
        </CharString>
        <CharString name="Dcroat">
          39 callgsubr
        </CharString>
        <CharString name="E">
          -17 callsubr
          endchar
        </CharString>
        <CharString name="Eacute">
          15 478 1010 -46 callsubr
          5 -363 -90 callsubr
          endchar
        </CharString>
        <CharString name="Ecaron">
          15 477 812 rmoveto
          149 143 -17 44 -63 -4 -33 -10 rlinecurve
          -117 -130 -36 callsubr
          6 -165 -90 callsubr
          endchar
        </CharString>
        <CharString name="Ecircumflex">
          15 204 835 -4 callsubr
          106 -347 -90 callsubr
          endchar
        </CharString>
        <CharString name="Edieresis">
          15 301 818 -24 callsubr
          -34 -171 -90 callsubr
          endchar
        </CharString>
        <CharString name="Edotaccent">
          -17 callsubr
          -71 175 119 callsubr
          endchar
        </CharString>
        <CharString name="Egrave">
          -17 callsubr
          -94 367 77 callgsubr
          endchar
        </CharString>
        <CharString name="Emacron">
          -17 callsubr
          93 247 rmoveto
          -163 -17 47 callgsubr
          endchar
        </CharString>
        <CharString name="Eogonek">
          11 326 646 rmoveto
          67 10 46 -5 44 -4 79 -64 rcurveline
          61 35 25 65 -33 51 -203 8 -117 -3 -171 -15 -14 -14 -1 -26 10 -25 23 -4 20 -5 15 -8 -5 -150 rcurveline
          -32 -155 -33 -98 -53 -144 3 -47 40 -30 72 -18 189 15 rcurveline
          -58 -37 -42 -49 -48 vvcurveto
          -62 69 -48 88 71 57 30 45 39 vhcurveto
          25 -10 15 -26 -1 vhcurveto
          -27 -33 -41 -15 -38 hhcurveto
          -37 -28 11 20 -17 hvcurveto
          12 67 81 62 65 24 29 38 14 65 -50 16 -90 -21 -108 -19 -101 -14 54 237 rcurveline
          79 2 75 -6 74 -6 22 36 9 47 -25 24 -68 -7 -74 -7 -82 -10 28 151 rcurveline
          endchar
        </CharString>
        <CharString name="Eth">
          39 callgsubr
        </CharString>
        <CharString name="Euro">
          138 500 262 rmoveto
          25 32 4 34 -25 10 -221 -30 rcurveline
          -1 8 0 8 9 vvcurveto
          18 2 19 3 19 vhcurveto
          227 13 25 33 4 33 -25 11 rlinecurve
          -215 -30 29 81 59 79 86 58 rlinecurve
          18 4 33 -41 9 -25 12 -53 rlinecurve
          62 -26 63 25 20 44 -31 81 -45 49 -98 29 -118 -28 -106 -68 -84 -89 -24 -46 -19 -42 -13 -41 -92 7 rcurveline
          -22 -25 -4 -30 17 -16 87 5 rcurveline
          -3 -19 -2 -19 -20 vvcurveto
          -8 0 -8 1 -8 vhcurveto
          -90 8 -24 -26 -3 -30 18 -17 rlinecurve
          107 6 27 -119 90 -87 167 -34 rlinecurve
          101 35 104 62 51 59 2 35 -18 31 -44 -6 -53 -48 -66 -42 -73 -26 -74 33 -48 45 -20 71 rrcurveto
          endchar
        </CharString>
        <CharString name="F">
          4 326 647 rmoveto
          67 9 46 -4 44 -4 79 -65 rcurveline
          61 36 25 65 -33 50 -203 9 -117 -4 -171 -15 -14 -13 -1 -27 10 -25 23 -3 20 -6 15 -7 1 -136 rcurveline
          -28 -162 -28 -126 -59 -179 30 -39 100 -12 38 26 7 123 8 79 11 92 81 2 75 -5 72 -8 27 40 1 49 -20 19 -65 -8 -79 -6 -80 -11 27 172 rcurveline
          endchar
        </CharString>
        <CharString name="G">
          100 551 231 -27 callsubr
          endchar
        </CharString>
        <CharString name="Gbreve">
          100 551 231 -27 callsubr
          -221 711 rmoveto
          -91 19 68 -49 78 hhcurveto
          53 callsubr
          endchar
        </CharString>
        <CharString name="H">
          170 651 442 rmoveto
          80 288 rlineto
          9 -18 -20 4 -23 hhcurveto
          -33 -39 -10 -23 -42 hvcurveto
          -7 -192 -6 -33 -5 -31 -6 -29 rlinecurve
          -160 -24 rlineto
          -110 hlineto
          3 26 84 303 rlineto
          9 -19 -20 4 -23 hhcurveto
          -33 -38 -10 -23 -42 hvcurveto
          -8 -192 -7 -42 -7 -39 -7 -37 rlinecurve
          -74 hlineto
          -27 -35 -2 -28 22 -28 64 7 rcurveline
          -20 -90 -21 -84 -30 -100 21 -40 97 -14 50 26 11 115 10 108 9 92 8 1 rcurveline
          255 19 -21 -103 -24 -92 -33 -112 rlinecurve
          289 callgsubr
          11 127 12 118 9 99 86 6 rcurveline
          27 42 2 32 -25 16 rrcurveto
          endchar
        </CharString>
        <CharString name="I">
          -44 callgsubr
          endchar
        </CharString>
        <CharString name="Iacute">
          -44 callgsubr
          172 300 361 callgsubr
        </CharString>
        <CharString name="Icircumflex">
          -44 callgsubr
          -102 125 -4 callsubr
          endchar
        </CharString>
        <CharString name="Idieresis">
          -44 callgsubr
          -5 108 -24 callsubr
          endchar
        </CharString>
        <CharString name="Idotaccent">
          -44 callgsubr
          106 112 119 callsubr
          endchar
        </CharString>
        <CharString name="Igrave">
          -44 callgsubr
          83 304 77 callgsubr
          endchar
        </CharString>
        <CharString name="Imacron">
          -44 callgsubr
          269 184 rmoveto
          -163 -17 47 callgsubr
          endchar
        </CharString>
        <CharString name="Iogonek">
          -300 175 9 rmoveto
          4 2 4 1 3 2 14 158 15 146 10 109 84 303 rcurveline
          9 -18 -20 4 -23 hhcurveto
          -33 -39 -10 -23 -42 hvcurveto
          -7 -192 -31 -183 -28 -124 -50 -169 rlinecurve
          7 -13 15 -11 19 -7 rrcurveto
          -57 -32 -42 -49 -53 vvcurveto
          -57 60 -50 91 67 64 30 46 36 vhcurveto
          3 26 -12 14 -29 -1 rrcurveto
          -27 -31 -40 -14 -38 hhcurveto
          -30 -28 9 20 -20 hvcurveto
          4 62 72 53 46 19 rrcurveto
          endchar
        </CharString>
        <CharString name="J">
          42 340 647 rmoveto
          -4 -127 -23 -167 -26 -106 -35 -154 rlinecurve
          -18 -7 -38 44 -22 41 -10 69 rlinecurve
          -46 26 -55 -21 -41 -53 25 -76 58 -69 82 -43 101 -12 69 28 40 58 8 140 9 85 9 110 57 240 rcurveline
          186 -24 38 47 -1 34 -18 20 rlinecurve
          -222 12 -120 -4 -212 -14 -16 -32 1 -29 32 -38 rrcurveto
          endchar
        </CharString>
        <CharString name="K">
          77 366 495 83 callsubr
        </CharString>
        <CharString name="L">
          -56 145 710 22 callgsubr
        </CharString>
        <CharString name="Lacute">
          -56 300 1010 -46 callsubr
          -155 -300 22 callgsubr
        </CharString>
        <CharString name="Lcaron">
          -56 434 621 rmoveto
          75 59 51 80 7 77 -16 46 -64 39 -65 -50 21 -138 rcurveline
          -58 -87 536 callsubr
          -289 89 22 callgsubr
        </CharString>
        <CharString name="Lslash">
          10 290 368 rmoveto
          168 9 35 35 -16 38 -32 13 rlinecurve
          -139 -26 80 293 -48 24 -62 -9 -65 -35 rlinecurve
          -6 -194 -7 -35 -7 -34 -8 -33 rlinecurve
          -120 10 -23 -18 1 -39 35 -30 rlinecurve
          92 14 -22 -87 -25 -82 -33 -89 rlinecurve
          9 -45 45 -30 60 -18 329 37 rcurveline
          23 30 13 62 -47 19 -85 -21 -91 -20 -102 -15 rrcurveto
          endchar
        </CharString>
        <CharString name="M">
          221 566 497 rmoveto
          -147 -214 -49 79 -34 113 -22 131 -7 111 rlinecurve
          18 -24 -27 7 -28 hhcurveto
          -32 -32 -8 -19 -31 hvcurveto
          -11 -198 -30 -178 -28 -124 -52 -173 rlinecurve
          289 callgsubr
          14 160 17 147 9 106 22 90 rcurveline
          16 -90 24 -95 47 -105 38 -34 39 -9 55 19 187 307 rcurveline
          -4 -40 -27 -161 -24 -102 -48 -165 rlinecurve
          21 -40 96 -14 51 26 12 152 16 143 10 115 82 297 rcurveline
          16 -16 -24 6 -27 hhcurveto
          -32 -32 -11 -10 -24 hvcurveto
          endchar
        </CharString>
        <CharString name="N">
          128 564 514 -69 callsubr
        </CharString>
        <CharString name="NULL">
          endchar
        </CharString>
        <CharString name="Nacute">
          128 657 961 45 callsubr
          89 -280 -69 callsubr
        </CharString>
        <CharString name="Ncaron">
          128 666 955 rmoveto
          -17 44 -63 -4 -33 -10 -117 -130 rcurveline
          -36 callsubr
          47 -298 -69 callsubr
        </CharString>
        <CharString name="Ntilde">
          128 396 878 214 callsubr
          229 -285 -69 callsubr
        </CharString>
        <CharString name="O">
          118 callsubr
          endchar
        </CharString>
        <CharString name="OE">
          380 555 680 rmoveto
          33 -38 -48 37 -50 hhcurveto
          -187 -185 -222 -218 1 hvcurveto
          -135 1 131 -175 125 hhcurveto
          48 56 29 36 44 hvcurveto
          26 -36 28 -16 49 -13 323 27 rcurveline
          28 39 15 64 -51 16 -98 -21 -103 -20 -92 -10 47 234 rcurveline
          83 1 77 -6 67 -5 22 36 8 47 -25 24 -63 -6 -76 -6 -84 -11 1 188 rcurveline
          35 49 67 16 54 -3 45 -4 rlinecurve
          79 -64 60 35 24 66 -33 50 rlinecurve
          -201 7 -108 -7 -102 -56 rrcurveto
          -364 -355 rmoveto
          132 92 142 128 74 vhcurveto
          87 -86 23 -69 5 -125 -25 -132 -73 -114 -120 -70 -77 55 -41 96 1 97 rrcurveto
          endchar
        </CharString>
        <CharString name="Oacute">
          83 506 1011 -46 callsubr
          -459 -701 -77 callsubr
          endchar
        </CharString>
        <CharString name="Ocircumflex">
          83 232 836 -4 callsubr
          -358 -685 -77 callsubr
          endchar
        </CharString>
        <CharString name="Odieresis">
          83 329 819 -24 callsubr
          -498 -509 -77 callsubr
          endchar
        </CharString>
        <CharString name="Ograve">
          118 callsubr
          -105 648 77 callgsubr
          endchar
        </CharString>
        <CharString name="Ohungarumlaut">
          83 291 806 105 callsubr
          -491 -664 -77 callsubr
          endchar
        </CharString>
        <CharString name="Omacron">
          83 603 895 rmoveto
          -163 -17 47 callgsubr
          -556 -585 -77 callsubr
          endchar
        </CharString>
        <CharString name="Oslash">
          156 535 453 rmoveto
          6 -28 4 -28 3 -30 -36 -117 -69 -101 -114 -72 -41 31 -31 45 -19 50 rrcurveto
          -18 65 rmoveto
          -3 18 -2 20 19 vvcurveto
          132 92 142 128 74 vhcurveto
          43 -48 26 -54 17 -59 rrcurveto
          261 148 rmoveto
          -4 46 -37 28 -64 7 -69 -116 rcurveline
          74 -48 -62 51 -54 hhcurveto
          -188 -185 -222 -218 1 hvcurveto
          -43 14 -47 22 -44 vhcurveto
          -106 -86 1 -52 32 -22 61 -16 rlinecurve
          62 100 rlineto
          -58 48 62 -42 61 hhcurveto
          149 206 225 165 -2 hvcurveto
          -1 54 -12 54 -21 50 rrcurveto
          endchar
        </CharString>
        <CharString name="Otilde">
          118 callsubr
          -122 593 rmoveto
          35 callgsubr
          -64 -81 rcurveline
          -5 hlineto
          -27 32 -50 34 -84 23 rrcurveto
          endchar
        </CharString>
        <CharString name="P">
          40 320 663 rmoveto
          118 -1 61 -62 1 -76 rrcurveto
          -61 -29 -58 -45 -35 vhcurveto
          -41 -23 -57 -17 -69 -13 3 37 3 37 3 39 rrcurveto
          -95 221 rmoveto
          -8 -159 -27 -157 -25 -127 -51 -170 rlinecurve
          28 -38 101 -11 39 26 9 83 8 76 7 76 81 9 74 17 63 21 110 57 55 75 1 101 rrcurveto
          110 -117 108 -192 -81 -71 -10 -17 -57 vhcurveto
          -17 -15 1 -31 22 -23 rrcurveto
          endchar
        </CharString>
        <CharString name="Q">
          96 190 325 rmoveto
          132 92 142 128 74 vhcurveto
          74 -85 25 -101 13 -120 -35 -117 -69 -101 -115 -72 rrcurveto
          -72 55 -41 96 97 vvcurveto
          201 -303 rmoveto
          131 60 136 174 -2 134 rrcurveto
          177 -2 -134 183 -102 hhcurveto
          -188 -184 -222 -218 1 hvcurveto
          -135 132 -175 125 vhcurveto
          10 hlineto
          95 -172 65 -14 70 27 3 74 rlinecurve
          -127 56 rlineto
          endchar
        </CharString>
        <CharString name="R">
          69 320 665 -58 callgsubr
        </CharString>
        <CharString name="Racute">
          69 568 961 45 callsubr
          -66 -129 -58 callgsubr
        </CharString>
        <CharString name="Rcaron">
          69 576 955 rmoveto
          -17 44 -63 -4 -33 -10 -117 -130 rcurveline
          -36 callsubr
          -107 -147 -58 callgsubr
        </CharString>
        <CharString name="S">
          52 599 246 rmoveto
          -42 callgsubr
          29 -75 110 -81 115 -26 188 25 119 90 20 131 rrcurveto
          endchar
        </CharString>
        <CharString name="Sacute">
          52 478 1010 -46 callsubr
          121 -764 rmoveto
          -42 callgsubr
          29 -75 110 -81 115 -26 188 25 119 90 20 131 rrcurveto
          endchar
        </CharString>
        <CharString name="Scaron">
          52 478 812 rmoveto
          149 143 -17 44 -63 -4 -33 -10 rlinecurve
          -117 -130 -36 callsubr
          121 -566 rmoveto
          -42 callgsubr
          29 -75 110 -81 115 -26 188 25 119 90 20 131 rrcurveto
          endchar
        </CharString>
        <CharString name="T">
          38 302 643 51 callgsubr
        </CharString>
        <CharString name="Tcaron">
          38 616 955 rmoveto
          -17 44 -63 -4 -33 -10 -117 -130 rcurveline
          -36 callsubr
          -165 -169 51 callgsubr
        </CharString>
        <CharString name="Thorn">
          30 417 289 rmoveto
          -54 -25 -55 -6 -67 13 8 84 8 87 9 78 32 15 43 13 44 -2 59 -18 38 -43 1 -68 2 -48 -26 -40 -42 -40 rrcurveto
          -81 529 rmoveto
          -49 22 -57 -9 -64 -39 -1 -253 rcurveline
          -38 -197 -32 -151 -51 -152 23 -37 108 -14 41 29 6 56 7 68 7 72 65 -15 72 -1 91 18 109 67 50 57 -1 84 -1 109 -96 71 -125 22 -38 -3 -46 -14 -40 -16 rrcurveto
          endchar
        </CharString>
        <CharString name="U">
          -1 callgsubr
          endchar
        </CharString>
        <CharString name="Uacute">
          60 475 1010 -46 callsubr
          -26 -865 -88 callgsubr
          endchar
        </CharString>
        <CharString name="Ucircumflex">
          60 201 835 -4 callsubr
          75 -849 -88 callgsubr
          endchar
        </CharString>
        <CharString name="Udieresis">
          60 299 818 -24 callsubr
          -66 -673 -88 callgsubr
          endchar
        </CharString>
        <CharString name="Ugrave">
          -1 callgsubr
          -62 869 77 callgsubr
          endchar
        </CharString>
        <CharString name="Uhungarumlaut">
          -1 callgsubr
          -188 660 105 callsubr
          endchar
        </CharString>
        <CharString name="Umacron">
          -1 callgsubr
          124 749 rmoveto
          -163 -17 47 callgsubr
          endchar
        </CharString>
        <CharString name="Uogonek">
          60 354 5 rmoveto
          -2 21 -8 17 -31 3 rrcurveto
          -112 -27 -71 -70 -66 vvcurveto
          -60 56 -52 106 64 61 29 46 38 vhcurveto
          -1 26 -12 14 -24 -1 rrcurveto
          -27 -31 -40 -15 -38 hhcurveto
          -33 -30 12 25 -20 hvcurveto
          8 57 55 49 65 19 rrcurveto
          95 140 -88 callgsubr
          endchar
        </CharString>
        <CharString name="Uring">
          60 477 1019 139 callgsubr
          -5 -834 -88 callgsubr
          endchar
        </CharString>
        <CharString name="V">
          55 535 512 rmoveto
          -219 -422 -33 211 -9 424 -34 28 -92 -10 -48 -52 rlinecurve
          99 -646 38 -43 73 -12 60 17 rlinecurve
          57 147 72 126 63 97 72 123 rlinecurve
          33 59 24 75 -7 76 -37 33 -84 12 -60 -49 rrcurveto
          endchar
        </CharString>
        <CharString name="W">
          351 837 514 rmoveto
          -183 -424 -41 240 -1 345 -59 28 -61 -21 -40 -42 rlinecurve
          41 -218 -170 -324 -36 204 -13 427 -36 26 -87 -7 -51 -54 rlinecurve
          107 -649 41 -43 70 -12 60 17 rlinecurve
          51 142 84 164 30 -271 36 -40 71 -12 60 17 rlinecurve
          46 149 181 347 34 66 19 72 -5 72 rlinecurve
          -41 32 -80 14 -61 -49 rrcurveto
          endchar
        </CharString>
        <CharString name="X">
          107 384 430 rmoveto
          -26 118 -64 130 -82 68 -83 -9 -42 -58 7 -68 87 -43 95 -88 60 -109 -92 -91 -112 -103 -108 -74 -6 -48 24 -46 93 -9 220 309 rcurveline
          26 -105 69 -134 68 -70 94 18 37 60 -17 56 -80 48 -89 111 -56 81 123 118 102 92 88 68 -3 58 -29 42 -71 -5 rrcurveto
          endchar
        </CharString>
        <CharString name="Y">
          18 callgsubr
          endchar
        </CharString>
        <CharString name="Yacute">
          18 callgsubr
          374 327 361 callgsubr
        </CharString>
        <CharString name="Ydieresis">
          18 callgsubr
          198 135 -24 callsubr
          endchar
        </CharString>
        <CharString name="Z">
          78 157 58 -58 callsubr
          endchar
        </CharString>
        <CharString name="Zacute">
          78 486 1010 -46 callsubr
          -329 -952 -58 callsubr
          endchar
        </CharString>
        <CharString name="Zcaron">
          78 486 812 rmoveto
          149 143 -17 44 -63 -4 -33 -10 rlinecurve
          -117 -130 -36 callsubr
          -329 -754 -58 callsubr
          endchar
        </CharString>
        <CharString name="Zdotaccent">
          78 157 58 -58 callsubr
          269 768 119 callsubr
          endchar
        </CharString>
        <CharString name="a">
          42 408 262 -93 callsubr
          endchar
        </CharString>
        <CharString name="aacute">
          42 624 764 45 callsubr
          -34 -335 -93 callsubr
          endchar
        </CharString>
        <CharString name="abreve">
          42 429 609 rmoveto
          53 callsubr
          -91 19 68 -49 78 hhcurveto
          -21 -347 -93 callsubr
          endchar
        </CharString>
        <CharString name="acircumflex">
          42 411 729 94 callsubr
          141 -340 -93 callsubr
          endchar
        </CharString>
        <CharString name="acute">
          -352 184 813 361 callgsubr
        </CharString>
        <CharString name="adieresis">
          42 524 621 27 callgsubr
          100 -359 -93 callsubr
          endchar
        </CharString>
        <CharString name="ae">
          348 637 87 rmoveto
          -58 27 -24 40 -8 53 106 21 121 43 97 47 29 115 -39 103 -133 23 -87 -17 -60 -45 -45 -56 36 92 rcurveline
          -13 24 -48 2 -43 -10 rrcurveto
          -13 -25 -5 -31 -50 vvcurveto
          -25 43 -29 42 -36 22 -186 -4 -139 -186 2 -159 1 -103 63 454 callsubr
          45 49 45 51 44 46 10 -10 rcurveline
          -40 -111 15 -33 51 -16 48 15 rlinecurve
          16 114 23 -50 46 -42 74 -27 rlinecurve
          78 11 123 52 46 48 7 46 -16 17 -37 -1 -46 -39 -68 -28 -72 -19 rrcurveto
          53 391 rmoveto
          45 -28 18 -41 -8 -67 -60 -29 -66 -25 -75 -21 3 75 52 81 74 49 rrcurveto
          -322 -7 rmoveto
          38 -24 24 -29 21 -41 -11 -29 -15 -46 -4 -39 -53 -47 -58 -50 -58 -50 rrcurveto
          -35 21 -12 33 43 vvcurveto
          108 59 104 104 46 vhcurveto
          endchar
        </CharString>
        <CharString name="agrave">
          42 407 602 182 callgsubr
          61 -426 -93 callsubr
          endchar
        </CharString>
        <CharString name="amacron">
          42 567 626 246 callsubr
          170 -354 -93 callsubr
          endchar
        </CharString>
        <CharString name="ampersand">
          85 611 173 rmoveto
          17 59 -32 47 -61 -12 -51 -54 -60 -41 -89 -32 -50 19 -44 32 -13 45 58 70 83 29 103 15 16 46 -4 34 -39 14 -20 -9 -29 -8 -34 -4 -48 15 -37 21 -21 41 rrcurveto
          49 55 55 43 94 7 63 -88 rcurveline
          82 19 21 26 -14 51 rrcurveto
          36 -36 -50 34 -73 hhcurveto
          -144 -133 -71 -113 -66 hvcurveto
          13 -58 69 -47 90 -11 -94 -23 -61 -53 -40 -85 28 -78 79 -58 132 -27 136 23 71 35 84 56 rrcurveto
          -130 565 rmoveto
          49 180 -39 33 -40 -3 -67 -37 rlinecurve
          1 -162 19 -21 32 -1 45 11 rlinecurve
          -189 -739 rmoveto
          -49 -179 39 -33 40 3 66 37 rlinecurve
          -1 162 -19 21 -32 1 -44 -12 rlinecurve
          endchar
        </CharString>
        <CharString name="aogonek">
          39 408 262 rmoveto
          -55 -47 -62 -53 -60 -52 rrcurveto
          -36 21 -12 33 43 vvcurveto
          108 60 104 103 46 vhcurveto
          39 -24 25 -30 20 -42 rrcurveto
          69 -365 rmoveto
          10 2 9 4 7 4 rrcurveto
          123 3 113 10 99 vhcurveto
          85 158 -20 44 -44 9 -90 -11 rlinecurve
          -12 -25 -5 -33 -49 vvcurveto
          -1 vlineto
          -25 43 -34 43 -38 23 -185 -4 -139 -186 2 -159 rrcurveto
          -103 63 454 callsubr
          vhcurveto
          45 48 54 54 44 46 13 -13 rcurveline
          -44 -108 8 -7 10 -7 10 -5 rlinecurve
          -69 -38 -42 -58 -51 vvcurveto
          -57 52 -47 92 63 58 551 callsubr
          -49 -41 -68 -10 -56 28 10 66 56 51 74 20 rrcurveto
          endchar
        </CharString>
        <CharString name="aring">
          42 412 708 40 callgsubr
          -4 -333 -93 callsubr
          endchar
        </CharString>
        <CharString name="asciicircum">
          -48 54 420 rmoveto
          4 -22 25 -12 30 2 207 341 rcurveline
          85 -328 26 -13 60 -13 45 39 rlinecurve
          -115 367 -32 20 -43 7 -55 -11 rlinecurve
          endchar
        </CharString>
        <CharString name="asciitilde">
          67 195 434 rmoveto
          -68 -32 -46 -39 -38 -46 -4 -29 48 -20 42 5 67 76 rcurveline
          7 3 59 -45 67 -29 116 -12 rlinecurve
          83 30 44 34 43 56 1 27 -38 17 -43 -6 -76 -76 rcurveline
          -6 hlineto
          -73 46 -54 29 -131 11 rrcurveto
          endchar
        </CharString>
        <CharString name="asterisk">
          -198 321 798 rmoveto
          102 69 -8 21 -13 15 -21 11 rlinecurve
          -80 -95 32 116 -21 6 -23 0 -23 -6 rlinecurve
          5 -115 -59 94 -23 -10 -16 -15 -13 -22 rlinecurve
          87 -69 -114 18 -11 -23 -2 -22 5 -22 rlinecurve
          117 18 -101 -69 9 -22 14 -15 19 -10 rlinecurve
          80 95 -31 -116 23 -7 23 0 20 7 rlinecurve
          -5 115 59 -94 24 9 17 14 12 24 rlinecurve
          -86 69 112 -18 11 22 3 23 -6 22 rlinecurve
          endchar
        </CharString>
        <CharString name="at">
          486 684 369 rmoveto
          -23 -107 -1 -5 -54 -46 -59 -51 -58 -50 rlinecurve
          -35 21 -12 33 43 vvcurveto
          108 59 104 104 46 vhcurveto
          36 -23 25 -29 20 -39 rrcurveto
          191 133 rmoveto
          -22 44 -40 10 -92 -12 -13 -25 -5 -31 1 -45 -24 41 -33 40 -36 21 -185 -4 -139 -186 2 -159 rrcurveto
          -103 64 -79 143 -5 vhcurveto
          48 50 56 57 45 47 11 -7 rcurveline
          -18 -54 11 -49 78 -37 rrcurveto
          173 63 154 157 149 vvcurveto
          213 -181 182 -217 -309 -319 -247 -299 -237 198 -168 253 -37 vhcurveto
          94 21 93 36 60 49 3 46 -17 25 -59 3 -36 -38 -68 -44 -76 -28 rrcurveto
          -196 46 -122 129 195 vvcurveto
          230 231 223 273 26 vhcurveto
          197 -51 100 -89 18 -205 -30 -116 -79 -85 -113 -72 11 82 10 86 16 82 rrcurveto
          endchar
        </CharString>
        <CharString name="atilde">
          42 408 262 -93 callsubr
          93 231 rmoveto
          284 callgsubr
          35 callgsubr
          rrcurveto
          endchar
        </CharString>
        <CharString name="b">
          15 184 81 rmoveto
          15 75 12 74 9 83 50 56 44 44 44 35 54 -23 24 -32 11 -65 -20 -111 -94 -100 -149 -36 rrcurveto
          16 323 rmoveto
          38 65 16 102 60 248 -46 20 -47 -4 -74 -37 rlinecurve
          -3 -259 -27 -144 -38 -159 -37 -130 rlinecurve
          12 -46 40 -43 92 -17 188 38 160 97 51 188 -23 130 -48 69 -161 28 -49 -51 -45 -50 -46 -58 rrcurveto
          endchar
        </CharString>
        <CharString name="backslash">
          -87 65 846 rmoveto
          284 -960 45 -14 28 3 19 33 rlinecurve
          -178 459 -104 504 -46 19 -30 -10 -18 -34 rlinecurve
          endchar
        </CharString>
        <CharString name="bar">
          -291 129 553 rmoveto
          -27 -191 -65 -345 -52 -172 20 -40 91 -14 51 24 17 168 58 367 12 98 124 533 rcurveline
          8 -18 -20 4 -23 hhcurveto
          -33 -33 -10 -23 -42 hvcurveto
          endchar
        </CharString>
        <CharString name="braceleft">
          70 556 759 rmoveto
          36 13 21 23 33 vvcurveto
          41 -53 -61 31 -65 hhcurveto
          -55 -61 -26 -44 -39 hvcurveto
          -170 84 -94 -171 -122 hhcurveto
          -27 -90 57 -24 44 -73 -3 -74 rlinecurve
          -2 -82 -40 -74 -76 -52 23 -70 63 -50 67 -17 71 4 66 19 47 19 2 23 -14 27 -19 13 -134 -27 rcurveline
          -23 33 73 63 50 75 3 84 rlinecurve
          1 79 -40 63 -80 49 5 18 rcurveline
          92 1 72 62 22 94 17 62 -8 81 -35 82 34 20 rcurveline
          endchar
        </CharString>
        <CharString name="braceright">
          71 469 562 rmoveto
          3 82 39 73 76 53 -23 69 -65 62 -72 6 -64 -3 -67 -18 -45 -21 -2 -24 14 -27 18 -12 134 26 rcurveline
          25 -33 -75 -62 -50 -75 -1 -85 rlinecurve
          -3 -78 40 -63 80 -49 -5 -18 rcurveline
          -91 -1 -72 -62 -23 -95 -17 -62 7 -80 36 -83 -34 -20 rcurveline
          -101 68 rlineto
          -37 -12 -20 -23 -33 vvcurveto
          56 -40 56 -25 67 -11 62 5 56 23 37 46 rrcurveto
          170 -83 94 170 121 hhcurveto
          28 90 -58 25 -44 73 3 74 rlinecurve
          endchar
        </CharString>
        <CharString name="bracketleft">
          -1 506 823 rmoveto
          105 -7 20 30 4 20 -5 24 rlinecurve
          -352 -6 -65 -464 -114 -446 4 -24 17 -20 30 -18 rlinecurve
          296 42 22 27 3 22 -11 16 rlinecurve
          -194 -27 46 285 68 362 49 180 rlineto
          endchar
        </CharString>
        <CharString name="bracketright">
          17 409 235 rmoveto
          138 563 -3 34 -10 23 -22 22 rlinecurve
          -338 11 -13 -18 5 -20 21 -33 rlinecurve
          190 5 -70 -402 -74 -424 -213 -4 -16 -35 2 -23 16 -25 rlinecurve
          370 46 rlineto
          endchar
        </CharString>
        <CharString name="breve">
          -230 101 749 rmoveto
          -91 19 68 -49 78 hhcurveto
          53 callsubr
          endchar
        </CharString>
        <CharString name="brokenbar">
          -286 172 761 rmoveto
          -17 -93 -19 -59 -31 -113 29 -29 85 -9 48 25 8 94 12 94 3 44 76 258 rcurveline
          14 -16 -26 10 -32 hhcurveto
          -29 -30 -5 -16 -36 hvcurveto
          -148 -875 rmoveto
          -18 -92 -19 -63 -32 -112 24 -30 91 -19 48 31 8 93 12 103 3 44 69 248 rcurveline
          14 -19 -23 8 -28 hhcurveto
          -27 -31 -4 -13 -33 hvcurveto
          endchar
        </CharString>
        <CharString name="bullet">
          -143 183 232 rmoveto
          72 86 51 77 54 hvcurveto
          80 -12 -72 90 -59 hhcurveto
          -84 -10 -80 -93 -15 -89 rrcurveto
          -63 8 45 -43 57 hhcurveto
          endchar
        </CharString>
        <CharString name="c">
          -33 356 555 23 callsubr
        </CharString>
        <CharString name="cacute">
          -33 423 813 -46 callsubr
          -67 -258 23 callsubr
        </CharString>
        <CharString name="caron">
          -179 328 615 rmoveto
          149 143 -17 44 -63 -4 -33 -10 rlinecurve
          -117 -130 -36 callsubr
          endchar
        </CharString>
        <CharString name="ccaron">
          -33 423 615 rmoveto
          149 143 -17 44 -63 -4 -33 -10 rlinecurve
          -117 -130 -36 callsubr
          -67 -60 23 callsubr
        </CharString>
        <CharString name="ccedilla">
          -33 198 -99 rmoveto
          -59 callgsubr
          49 95 67 22 63 37 34 35 rlinecurve
          9 42 -14 22 -38 -1 -46 -40 -73 -33 -61 -18 -74 43 -19 57 4 79 2 65 43 85 75 56 24 5 rcurveline
          29 -34 16 -32 -2 -62 67 -14 57 17 22 44 -17 81 -42 61 -104 18 -113 -24 -90 -73 -62 -73 -30 -42 -23 -45 -1 -60 -3 -104 54 -102 159 -31 rrcurveto
          endchar
        </CharString>
        <CharString name="cedilla">
          -224 98 26 rmoveto
          -61 -125 rlineto
          -59 callgsubr
          52 101 rlineto
          endchar
        </CharString>
        <CharString name="cent">
          -29 308 472 rmoveto
          -65 -364 -47 40 -13 51 3 66 rlinecurve
          2 65 42 85 76 56 rrcurveto
          110 168 rmoveto
          -14 31 -24 11 -34 -11 -22 -124 rcurveline
          -98 -30 -78 -65 -55 -66 -31 -42 -22 -45 -1 -60 -4 -96 47 -94 131 -38 -38 -103 rcurveline
          15 -31 28 -14 32 8 23 133 rcurveline
          91 16 95 49 45 46 9 42 -15 22 -37 -1 -43 -38 -66 -31 -65 -19 63 371 rcurveline
          21 -26 15 -32 6 -54 59 -12 55 17 24 48 -20 71 -44 56 -83 22 rrcurveto
          endchar
        </CharString>
        <CharString name="circumflex">
          -163 80 638 -4 callsubr
          endchar
        </CharString>
        <CharString name="colon">
          -303 78 hmoveto
          40 48 29 43 29 hvcurveto
          44 -5 -41 51 -33 hhcurveto
          -47 -6 -43 -51 -10 -51 rrcurveto
          -35 5 25 -24 32 hhcurveto
          56 323 callgsubr
          endchar
        </CharString>
        <CharString name="comma">
          -326 178 52 rmoveto
          469 callgsubr
          -2 -155 rcurveline
          247 callsubr
          rrcurveto
          endchar
        </CharString>
        <CharString name="copyright">
          246 42 370 rmoveto
          324 callgsubr
          546 callsubr
          rrcurveto
          725 16 rmoveto
          -32 -163 -96 -158 -252 -25 329 callgsubr
          rrcurveto
          -138 91 rmoveto
          -14 70 -36 51 -87 15 -97 -19 -76 -63 -51 -62 -26 -37 -18 -37 -1 -50 -3 -90 47 -87 139 -25 77 11 89 44 40 41 8 36 -13 19 -32 -1 -38 -34 -62 -29 -52 -15 rrcurveto
          -63 37 -16 49 3 66 2 56 36 73 65 47 21 4 rcurveline
          24 -29 14 -27 -1 -53 55 -11 47 14 19 36 rrcurveto
          endchar
        </CharString>
        <CharString name="currency">
          163 359 177 rmoveto
          -48 41 -26 54 -3 66 13 89 52 86 92 59 52 -53 31 -65 7 -75 -21 -90 -51 -63 -98 -49 rrcurveto
          197 414 rmoveto
          31 -32 -36 21 -33 hhcurveto
          -66 -65 -33 -47 -52 hvcurveto
          -97 121 -83 -3 -23 -46 22 -44 rlinecurve
          131 -81 rlineto
          -45 -58 -28 -65 -52 vvcurveto
          -44 16 -43 23 -36 vhcurveto
          -126 -72 -23 -43 21 -48 82 -5 rlinecurve
          97 111 rlineto
          -30 35 40 -18 36 hhcurveto
          54 58 24 37 51 hvcurveto
          99 -113 83 5 21 48 -24 43 rlinecurve
          -120 68 rlineto
          51 54 34 65 58 vvcurveto
          -1 40 -20 49 -29 45 121 68 rcurveline
          24 44 -21 47 -83 6 rrcurveto
          endchar
        </CharString>
        <CharString name="d">
          6 192 callsubr
          68 277 rmoveto
          -7 -33 -7 -31 -8 -32 76 callsubr
          64 235 rcurveline
          -44 21 -48 -5 -77 -37 rrcurveto
          endchar
        </CharString>
        <CharString name="dagger">
          -101 348 592 rmoveto
          72 218 -44 24 -60 -4 -68 -33 rlinecurve
          -16 -212 -128 17 -28 -35 -4 -30 22 -26 rlinecurve
          133 10 rlineto
          -1 vlineto
          -129 -830 22 -14 20 -2 18 10 rlinecurve
          172 843 149 -8 29 38 4 35 -20 19 rlinecurve
          endchar
        </CharString>
        <CharString name="daggerdbl">
          -90 341 539 rmoveto
          150 -8 29 38 3 35 -19 19 rlinecurve
          -147 -19 67 221 -42 24 -54 -3 -69 -34 rlinecurve
          -13 -216 -131 18 -28 -35 -3 -31 21 -26 rlinecurve
          135 11 -32 -276 -63 -282 -151 8 -28 -38 -4 -35 20 -19 rlinecurve
          147 19 -68 -221 43 -25 53 4 68 34 rlinecurve
          14 216 131 -18 28 35 3 30 -20 27 rlinecurve
          -136 -11 32 282 rlineto
          endchar
        </CharString>
        <CharString name="danda">
          -169 256 464 257 callsubr
        </CharString>
        <CharString name="dcaron">
          101 192 callsubr
          68 277 rmoveto
          -7 -33 -7 -31 -8 -32 76 callsubr
          64 235 rcurveline
          -44 21 -48 -5 -77 -37 rrcurveto
          246 -29 rmoveto
          -58 -88 536 callsubr
          74 59 52 81 7 77 -17 45 -63 39 -65 -50 rrcurveto
          endchar
        </CharString>
        <CharString name="dcroat">
          6 192 callsubr
          198 424 rmoveto
          36 133 -44 21 -48 -5 -77 -37 rlinecurve
          1 -116 -91 3 -23 -30 -4 -23 15 -16 rlinecurve
          104 3 1 -80 -7 -33 -7 -31 -8 -32 rlinecurve
          76 callsubr
          11 39 rcurveline
          111 3 29 33 4 28 -18 10 rlinecurve
          endchar
        </CharString>
        <CharString name="degree">
          -104 331 768 rmoveto
          -120 -113 -113 -90 1 hvcurveto
          -69 1 88 -69 67 hhcurveto
          109 130 103 81 -3 hvcurveto
          62 -1 -90 95 -69 hhcurveto
          -15 -50 rmoveto
          27 -33 20 -39 5 -45 -12 -56 -29 -37 -59 -31 -23 26 -16 32 -2 40 5 55 32 52 52 36 rrcurveto
          endchar
        </CharString>
        <CharString name="dieresis">
          -204 157 621 -24 callsubr
          endchar
        </CharString>
        <CharString name="divide">
          169 717 397 rmoveto
          -321 -18 -323 5 -22 -31 -4 -32 14 -17 rlinecurve
          640 9 28 34 4 39 -16 11 rlinecurve
          -385 -303 rmoveto
          34 40 25 35 25 hvcurveto
          38 -5 -35 42 -27 hhcurveto
          -39 -6 -37 -43 -7 -42 rrcurveto
          -29 4 21 -20 26 hhcurveto
          62 365 rmoveto
          34 41 25 36 24 hvcurveto
          36 -4 -35 43 -28 hhcurveto
          -39 -5 -37 -43 -6 -42 rrcurveto
          -30 3 21 -20 26 hhcurveto
          endchar
        </CharString>
        <CharString name="dollar">
          52 348 304 rmoveto
          55 -29 42 -25 -27 vvcurveto
          -61 -57 -52 -78 -26 vhcurveto
          22 378 rmoveto
          -58 34 -45 30 -1 29 -1 38 76 54 68 24 rrcurveto
          33 -35 rmoveto
          8 23 26 -28 21 -35 15 -62 rlinecurve
          83 -14 43 25 12 56 -34 64 -59 50 -76 26 36 97 rcurveline
          -14 30 -24 11 -34 -11 -21 -117 rcurveline
          -129 -16 -124 -78 -51 -113 16 -104 113 -64 96 -51 -37 -202 rcurveline
          -10 -29 -51 48 -24 41 -18 71 rlinecurve
          -77 24 -39 -38 -33 -58 26 -66 89 -72 100 -33 -34 -104 rcurveline
          15 -31 27 -14 33 8 23 134 rcurveline
          173 29 110 88 19 125 -31 82 -106 61 -91 51 rrcurveto
          endchar
        </CharString>
        <CharString name="dotaccent">
          -411 163 625 119 callsubr
          endchar
        </CharString>
        <CharString name="dotlessi">
          244 callsubr
          endchar
        </CharString>
        <CharString name="dottedcircle">
          77 139 517 rmoveto
          -26 18 -19 26 26 18 19 26 25 -18 19 -26 -26 -18 -19 -25 vhcurveto
          -82 -110 rmoveto
          -25 20 -19 26 24 20 19 25 25 -20 19 -24 -26 -20 -19 -25 vhcurveto
          -13 -126 rmoveto
          -25 19 -18 25 26 18 18 553 callgsubr
          52 -116 rmoveto
          -26 18 -18 26 25 19 18 26 25 -19 19 -25 -26 -18 -19 -25 vhcurveto
          101 -75 rmoveto
          -26 19 -20 26 25 19 20 26 24 -19 20 -25 -26 -19 -20 -24 vhcurveto
          127 -16 rmoveto
          -26 18 -18 26 26 19 18 26 26 -19 18 -26 -26 -18 -18 -26 vhcurveto
          121 53 rmoveto
          -26 19 -18 25 25 20 18 26 25 -20 19 -25 -25 -19 -19 -25 vhcurveto
          73 98 rmoveto
          -25 19 -19 26 24 19 19 25 26 -19 19 -24 -26 -19 -19 -26 vhcurveto
          10 134 rmoveto
          -26 18 -18 26 25 19 18 26 26 -19 18 -25 -26 -18 -18 -26 vhcurveto
          -50 118 rmoveto
          -25 19 -19 25 26 18 19 553 callgsubr
          -95 68 rmoveto
          -24 19 -20 26 25 18 20 24 26 -18 19 -25 -26 -19 -19 -26 vhcurveto
          -126 15 rmoveto
          -26 18 -18 26 26 18 18 26 26 -18 18 -26 -26 -18 -18 -26 vhcurveto
          endchar
        </CharString>
        <CharString name="doubledanda">
          75 499 464 rmoveto
          -26 -142 -27 -117 -45 -172 29 -31 63 -12 48 22 12 154 16 135 15 127 70 289 rcurveline
          -29 30 -44 -5 -66 -31 rrcurveto
          -259 -247 257 callsubr
        </CharString>
        <CharString name="dvA">
          292 callsubr
          768 528 rmoveto
          -128 -76 callsubr
          14 -50 callgsubr
          endchar
        </CharString>
        <CharString name="dvAA">
          496 305 callsubr
          1044 528 rmoveto
          -122 hlineto
          -85 callgsubr
          rrcurveto
          endchar
        </CharString>
        <CharString name="dvAI">
          -20 372 846 276 callsubr
          399 -176 -30 callsubr
        </CharString>
        <CharString name="dvAU">
          496 878 874 rmoveto
          54 -30 44 -52 26 -46 -4 -5 rcurveline
          -40 38 -44 29 -36 7 -42 -6 -28 -22 -19 -31 7 -36 39 -20 49 -4 31 36 rcurveline
          37 -10 23 -16 30 344 callgsubr
          64 -21 rrcurveto
          -640 -725 44 callgsubr
          1044 528 rmoveto
          -122 hlineto
          -85 callgsubr
          rrcurveto
          endchar
        </CharString>
        <CharString name="dvAcandra">
          292 callsubr
          640 528 rmoveto
          -24 26 -40 -71 callgsubr
          -100 -101 callgsubr
          102 hlineto
          -27 -116 -74 -41 -77 -39 -74 -38 rlinecurve
          -33 17 -42 11 -49 4 -2 6 rcurveline
          99 27 87 55 25 97 -16 51 -33 41 -63 16 -88 5 -76 -21 -76 -52 -19 -33 30 -43 55 -17 52 46 55 22 58 -4 4 -7 rcurveline
          -16 -62 -46 -43 -77 -31 -22 -3 -23 -3 -22 -2 -23 -29 7 -56 45 -29 20 3 19 3 18 3 18 -3 18 -4 17 -5 5 -3 rcurveline
          -181 -73 -138 -35 -59 vvcurveto
          -41 78 -57 82 -7 vhcurveto
          117 -1 214 102 117 vvcurveto
          21 -10 21 -18 19 vhcurveto
          61 29 60 30 58 29 5 -8 rcurveline
          -35 -42 -67 -296 -18 callgsubr
          -12 13 rcurveline
          -46 233 rmoveto
          -24 -57 -38 -46 -66 -12 -50 359 callgsubr
          -16 42 -39 21 -39 -15 rrcurveto
          endchar
        </CharString>
        <CharString name="dvAnusvara">
          371 callgsubr
        </CharString>
        <CharString name="dvAnusvara.amI">
          371 callgsubr
        </CharString>
        <CharString name="dvB">
          -299 293 254 rmoveto
          178 callgsubr
          -24 13 -14 25 40 vvcurveto
          39 13 40 20 34 vhcurveto
          28 -35 40 -40 33 -30 rrcurveto
          116 126 rmoveto
          -26 50 -47 76 -61 9 rrcurveto
          59 callgsubr
          61 66 79 81 49 54 -33 27 rcurveline
          -10 -10 -12 -11 -11 -11 308 callsubr
          32 -9 29 -39 22 -40 rrcurveto
          139 272 rmoveto
          -489 -101 callgsubr
          489 -92 callsubr
        </CharString>
        <CharString name="dvBA">
          -24 362 318 rmoveto
          -10 -10 -12 -11 -11 -11 308 callsubr
          32 227 callgsubr
          28 -35 40 -40 34 -29 -31 -29 -33 -29 410 callgsubr
          -405 -101 callgsubr
          409 543 callsubr
          -51 11 rlinecurve
          59 callgsubr
          334 callgsubr
          -46 -68 -32 -135 48 -40 72 -105 callsubr
        </CharString>
        <CharString name="dvBH">
          -167 198 204 rmoveto
          -28 12 -18 14 -17 24 35 17 35 18 35 18 -10 -32 -11 -33 -11 -32 rrcurveto
          92 401 -37 callsubr
          244 -84 rmoveto
          -46 -28 -51 -29 -54 -29 15 80 12 78 7 69 41 callsubr
          422 callgsubr
          -3 -16 -4 -17 -4 -16 rlinecurve
          -63 -31 -63 -28 -57 -23 -28 -12 -10 383 callgsubr
          59 -11 403 callgsubr
          21 65 19 72 17 74 65 35 64 37 63 37 rrcurveto
          99 137 rmoveto
          -159 -89 callgsubr
          159 -107 callsubr
        </CharString>
        <CharString name="dvBHA">
          99 198 479 callgsubr
          18 -10 -33 -11 -33 -12 -33 rrcurveto
          92 401 -37 callsubr
          -5 -146 rmoveto
          440 callgsubr
          -28 -12 -10 388 callgsubr
          25 43 25 44 26 9 -5 rcurveline
          -96 366 callsubr
          41 21 114 callgsubr
          -41 470 callsubr
          78 12 76 7 68 41 callsubr
          rrcurveto
          618 199 rmoveto
          143 callsubr
        </CharString>
        <CharString name="dvBH_LA">
          606 207 199 rmoveto
          -35 16 -24 19 -17 31 35 21 39 13 41 8 -9 -40 -11 -38 -9 -23 rrcurveto
          83 405 -37 callsubr
          1040 9 -93 callgsubr
          -561 -89 callgsubr
          564 291 callgsubr
          -53 -24 -57 -48 -36 -51 -46 10 -50 7 -53 2 27 464 callsubr
          405 callgsubr
          -48 -48 -104 -66 -59 -29 rrcurveto
          -17 -12 -11 -29 -2 -23 312 callgsubr
          422 callgsubr
          -2 -14 -4 -25 -6 -28 rlinecurve
          -64 279 callgsubr
          44 3 54 21 20 28 13 36 14 51 14 56 rrcurveto
          47 46 -5 -7 42 hvcurveto
          -7 -17 -4 -16 -16 vvcurveto
          420 callsubr
          74 13 31 50 -21 415 callgsubr
          -10 -19 -15 412 callsubr
          -55 -245 47 -97 callgsubr
        </CharString>
        <CharString name="dvBH_NA">
          513 631 241 callgsubr
          -439 -20 rmoveto
          -35 15 -24 20 -18 30 37 23 41 13 43 7 -10 -42 -12 -40 -10 -19 rrcurveto
          85 416 -37 callsubr
          -5 -146 rmoveto
          5 -8 -21 -30 -1 -17 -4 -28 -6 -30 rlinecurve
          -66 -7 -64 -16 -53 -27 rrcurveto
          -27 -15 -12 -33 -39 vvcurveto
          31 -57 55 -39 70 -14 43 3 54 21 20 28 12 35 15 51 15 57 rrcurveto
          49 49 -6 -7 45 hvcurveto
          -12 -19 -6 -26 3 -30 354 callgsubr
          -1 68 -19 335 callgsubr
          9 57 callsubr
          -110 -71 -156 -78 -120 -56 -52 18 -64 12 -66 2 27 119 24 131 2 64 41 callsubr
          rrcurveto
          1054 199 rmoveto
          -755 -89 callgsubr
          755 -107 callsubr
        </CharString>
        <CharString name="dvBH_R">
          -167 542 callsubr
          21 34 16 33 16 34 17 -9 -29 -9 -29 -12 -31 rrcurveto
          87 388 -37 callsubr
          244 -84 rmoveto
          -45 -28 -52 -29 -54 -28 14 77 12 77 8 72 41 callsubr
          422 callgsubr
          -3 -15 -3 -15 -3 -15 rlinecurve
          -62 -28 -60 -25 -53 -21 524 callsubr
          63 -11 43 1 56 15 27 28 18 60 18 68 15 70 65 35 65 37 62 37 rrcurveto
          -87 -232 rmoveto
          -74 -79 -135 -100 -131 -43 269 callgsubr
          118 68 130 105 71 93 rrcurveto
          endchar
        </CharString>
        <CharString name="dvBH_RA">
          99 542 callsubr
          22 34 17 34 17 34 16 -9 -29 -10 -30 -12 -32 rrcurveto
          87 388 -37 callsubr
          -5 -146 rmoveto
          5 -8 -21 -30 -3 -14 -3 -14 -3 -13 rlinecurve
          -60 -28 -61 -27 -54 -23 524 callsubr
          63 351 callgsubr
          -83 -77 -130 157 callgsubr
          -48 -48 -104 -66 -59 -29 -17 -12 -11 -29 -2 -23 12 -35 48 -40 59 -14 rrcurveto
          618 199 rmoveto
          143 callsubr
        </CharString>
        <CharString name="dvBH_R_YA">
          498 894 72 callsubr
          -64 -42 callsubr
          -730 -345 rmoveto
          -30 12 -15 15 -15 23 32 13 32 10 33 7 -8 -24 -8 -24 -10 -27 rrcurveto
          85 382 -37 callsubr
          931 9 -93 callgsubr
          -504 548 callsubr
          93 133 callgsubr
          -6 -68 -110 -48 -79 -46 -54 13 -53 7 -51 3 22 101 18 106 10 98 rrcurveto
          41 callsubr
          422 callgsubr
          -5 -23 -4 -22 -5 -22 rlinecurve
          -66 -6 -57 -15 -44 -22 rrcurveto
          -29 -17 -8 -31 -37 vvcurveto
          29 -52 51 -31 62 -11 43 1 57 15 26 29 13 40 12 43 11 45 rrcurveto
          36 38 -3 -6 41 hvcurveto
          -15 -14 -10 -13 -15 vvcurveto
          -10 3 -10 5 -11 vhcurveto
          -77 -74 -123 -87 -119 -39 269 callgsubr
          107 62 117 92 74 86 rrcurveto
          -36 38 55 -29 39 hhcurveto
          22 callsubr
          hvcurveto
          12 -11 -42 -67 -40 189 callgsubr
        </CharString>
        <CharString name="dvBH_VA">
          439 824 319 218 callgsubr
          28 -38 20 -38 rrcurveto
          -625 -152 rmoveto
          -35 16 -24 19 -17 31 35 21 39 13 41 8 -9 -40 -11 -38 -9 -23 rrcurveto
          83 405 -37 callsubr
          873 9 59 callsubr
          -402 -85 callsubr
          407 548 callgsubr
          -34 -1 rlinecurve
          -99 -92 -75 -91 -40 hvcurveto
          -44 10 -50 6 -51 2 27 464 callsubr
          131 callsubr
          49 48 -6 -6 44 hvcurveto
          -4 -18 -2 -17 -17 vvcurveto
          316 callgsubr
          -43 -61 -31 -135 48 -40 72 -105 callsubr
        </CharString>
        <CharString name="dvBH_YA">
          498 894 72 callsubr
          -64 -42 callsubr
          -727 -370 rmoveto
          -35 16 -24 19 -17 31 35 21 39 13 41 8 -9 -40 -11 -38 -9 -23 rrcurveto
          83 405 -37 callsubr
          931 9 -93 callgsubr
          -467 -85 callsubr
          56 133 callgsubr
          -6 -67 -109 -48 -79 -46 -48 11 -55 8 -57 2 27 464 callsubr
          rrcurveto
          131 callsubr
          40 39 -4 -5 37 hvcurveto
          -16 -14 -9 -13 -15 215 callgsubr
        </CharString>
        <CharString name="dvB_BA">
          260 646 318 rmoveto
          -10 -10 -12 -11 -11 -11 -39 37 -36 40 -30 38 106 callgsubr
          -284 hmoveto
          33 callsubr
          90 271 rmoveto
          23 -6 22 -23 18 -26 -16 -26 -13 -29 -7 -28 -33 33 -31 34 -26 33 381 callsubr
          699 184 rmoveto
          -128 115 callgsubr
          -689 -101 callgsubr
          693 489 callsubr
          -67 -64 -36 -53 -47 hvcurveto
          -27 41 -36 42 -44 6 rrcurveto
          59 callgsubr
          32 35 38 39 35 37 19 -71 69 -37 91 -3 334 callgsubr
          -46 -68 -32 -135 48 -40 72 -105 callsubr
        </CharString>
        <CharString name="dvB_BHA">
          366 474 204 rmoveto
          -27 12 -19 14 -17 25 36 18 35 18 35 19 -9 -33 -11 -33 -12 -34 rrcurveto
          -282 -14 205 callgsubr
          119 89 rmoveto
          -39 35 -36 40 -32 37 18 16 20 12 20 5 32 -8 26 -69 10 -54 rrcurveto
          235 312 303 callgsubr
          -14 4 -15 423 callsubr
          40 29 rrcurveto
          -549 9 258 callgsubr
          358 264 callgsubr
          -3 -15 -4 -16 -3 -15 rlinecurve
          -50 -25 -50 -23 -47 -21 -18 80 -38 98 -70 16 298 callgsubr
          31 38 36 36 34 30 -50 57 -37 58 -11 403 callgsubr
          22 66 19 74 16 74 44 25 44 25 43 26 9 -5 41 callgsubr
          -42 -27 -47 -27 -49 -27 15 77 11 77 8 68 -19 31 -44 259 callgsubr
          625 hmoveto
          -300 -101 callgsubr
          300 -92 callsubr
        </CharString>
        <CharString name="dvB_BH_RA">
          345 471 217 rmoveto
          -31 12 -15 13 -15 22 34 17 34 17 34 16 -9 -29 -10 -30 -12 -32 rrcurveto
          -278 -27 205 callgsubr
          135 100 rmoveto
          -16 -11 -39 35 -36 40 -32 37 rlinecurve
          18 16 20 12 20 5 32 -8 26 -68 10 -54 rrcurveto
          227 311 -37 callsubr
          -540 9 258 callgsubr
          350 hlineto
          -12 -14 -8 -23 -2 -19 312 callgsubr
          422 callgsubr
          -3 -14 -2 -13 -3 -14 rlinecurve
          -49 -23 -49 -21 -46 -20 -18 78 -38 91 -67 15 298 callgsubr
          32 40 37 37 34 29 -49 52 -27 61 351 callgsubr
          -82 -77 -131 157 callgsubr
          -30 -30 -51 -36 -48 -31 rrcurveto
          625 hmoveto
          143 callsubr
        </CharString>
        <CharString name="dvB_DA">
          254 209 168 rmoveto
          -30 16 -15 33 40 vvcurveto
          29 10 30 16 26 vhcurveto
          29 -34 39 -39 32 -29 -26 -24 -28 -24 -27 -24 rrcurveto
          70 248 rmoveto
          31 -8 31 -43 24 -41 -19 -13 -15 -16 -10 -17 -36 34 -33 37 -29 35 17 16 20 12 19 4 rrcurveto
          675 207 rmoveto
          -934 -101 callgsubr
          555 67 callgsubr
          -55 -59 -108 -35 -80 -44 -29 54 -50 78 -59 9 rrcurveto
          -127 -115 -127 -112 -101 78 -59 114 -3 hvcurveto
          29 32 34 36 32 35 24 -81 97 -67 119 -14 46 58 41 57 34 38 23 callgsubr
        </CharString>
        <CharString name="dvB_DHA">
          373 197 232 118 callgsubr
          653 127 -99 callgsubr
          -62 -85 callsubr
          65 hlineto
          -42 -183 -60 -78 -136 -98 36 callgsubr
          85 19 137 88 86 83 10 -11 rcurveline
          -40 -50 -40 -176 47 -40 73 -105 callsubr
        </CharString>
        <CharString name="dvB_DH_VA">
          675 1059 251 callgsubr
          -47 -46 rrcurveto
          -29 66 callgsubr
          -870 -121 118 callgsubr
          954 127 rmoveto
          -128 -88 callsubr
          -5 -30 rcurveline
          -366 -85 callsubr
          371 548 callgsubr
          -34 -1 rlinecurve
          -85 -79 -55 -72 -46 hvcurveto
          -2 1 -60 -78 -137 -99 36 callgsubr
          75 17 116 71 85 73 1 -92 73 -59 113 -3 42 67 callsubr
          -42 -61 -31 -135 -67 callgsubr
        </CharString>
        <CharString name="dvB_JA">
          438 197 168 rmoveto
          33 callsubr
          90 271 rmoveto
          22 -6 20 -20 18 -25 -14 -26 -8 -26 -4 -23 rrcurveto
          -6 0 -7 -6 vvcurveto
          -35 34 -34 38 -28 35 381 callsubr
          876 184 -99 callgsubr
          -865 -101 callgsubr
          867 hlineto
          -27 -123 -34 -36 -45 -29 -47 -3 rlinecurve
          -16 5 -22 20 -16 19 -61 callgsubr
          rrcurveto
          -24 -16 -21 -19 -17 -21 -26 38 -35 37 -41 6 rrcurveto
          59 callgsubr
          40 43 48 50 42 45 25 -66 53 -51 59 -10 77 -4 143 84 5 368 callgsubr
          27 189 callsubr
          -40 -67 -57 -244 48 -40 72 -105 callsubr
        </CharString>
        <CharString name="dvB_JHA">
          494 903 450 rmoveto
          -77 -61 -120 -60 -89 -36 -45 327 callsubr
          251 hlineto
          -733 -401 rmoveto
          33 callsubr
          90 271 rmoveto
          28 -8 25 -30 21 -34 -7 -19 -2 -19 4 -17 -9 -8 -9 -9 -9 -9 308 callsubr
          rrcurveto
          932 184 -93 callgsubr
          -922 -101 callgsubr
          544 hlineto
          36 -18 37 -21 21 -25 -3 -7 rcurveline
          -55 -23 -104 -23 -62 -11 -12 -7 -10 -9 -9 -10 -27 45 -39 48 -48 7 rrcurveto
          59 callgsubr
          59 63 75 78 49 53 81 -37 112 -7 46 -33 2 -8 rcurveline
          -29 -37 -60 -31 -66 -3 -29 15 -23 21 -18 23 -51 13 -51 -49 -25 -60 62 -70 68 -103 40 -88 65 -2 44 30 1 31 -46 67 -53 65 -50 49 7 7 rcurveline
          19 -15 22 -14 23 -10 82 -4 76 28 48 31 rrcurveto
          35 39 23 39 34 vvcurveto
          27 -14 21 -30 15 vhcurveto
          61 26 76 38 68 43 7 -9 rcurveline
          -38 -47 -64 -278 10 callsubr
        </CharString>
        <CharString name="dvB_J_YA">
          846 1243 68 callsubr
          -105 -78 -64 50 callgsubr
          -9 16 -14 385 callgsubr
          -1086 -401 rmoveto
          33 callsubr
          132 118 rmoveto
          308 callsubr
          28 -8 26 -32 21 -35 -14 -25 -10 -25 -5 -23 rrcurveto
          1239 332 -93 callgsubr
          -1275 -101 callgsubr
          862 hlineto
          -3 -2 -3 -3 -3 -2 -15 219 callgsubr
          -5 -64 -100 -47 -78 -44 -56 -21 -59 -4 -44 19 -18 13 -21 15 -12 20 rrcurveto
          308 callgsubr
          -2 386 callgsubr
          -22 -14 -19 -18 -16 -19 rrcurveto
          -27 46 -41 53 -50 7 rrcurveto
          59 callgsubr
          41 44 48 50 42 45 18 -79 61 -68 68 -11 309 callsubr
          35 -16 18 -4 20 -2 20 1 rlinecurve
          -61 2 111 -80 64 hhcurveto
          58 123 82 86 80 hvcurveto
          12 -11 -43 -67 -39 -169 47 -97 callgsubr
        </CharString>
        <CharString name="dvB_JxA">
          438 442 53 rmoveto
          -36 -29 -28 -35 -35 29 -28 36 34 28 28 35 35 -28 28 -34 hvcurveto
          -245 115 rmoveto
          33 callsubr
          90 271 rmoveto
          22 -6 20 -20 18 -25 -14 -26 -8 -26 -4 -23 rrcurveto
          -6 0 -7 -6 vvcurveto
          -35 34 -34 38 -28 35 381 callsubr
          876 184 -99 callgsubr
          -865 -101 callgsubr
          867 hlineto
          -27 -123 -34 -36 -45 -29 -47 -3 rlinecurve
          -16 5 -22 20 -16 19 -61 callgsubr
          rrcurveto
          -24 -16 -21 -19 -17 -21 -26 38 -35 37 -41 6 rrcurveto
          59 callgsubr
          40 43 48 50 42 45 25 -66 53 -51 59 -10 77 -4 143 84 5 368 callgsubr
          27 189 callsubr
          -40 -67 -57 -244 48 -40 72 -105 callsubr
        </CharString>
        <CharString name="dvB_LA">
          417 290 253 rmoveto
          -2 vlineto
          -30 -27 -32 -28 -31 -28 rrcurveto
          -24 13 -14 25 40 vvcurveto
          39 13 40 20 34 vhcurveto
          27 -34 38 -39 33 -30 rrcurveto
          -3 183 rmoveto
          24 -7 23 -24 19 -29 -20 -22 -17 -24 -11 -23 -30 30 -27 31 -24 30 381 callsubr
          856 184 -99 callgsubr
          -845 -101 callgsubr
          847 204 callgsubr
          -24 6 -45 0 -35 -5 -28 -12 -29 -20 -27 -23 -28 45 -39 49 -48 7 rrcurveto
          59 callgsubr
          30 32 34 36 33 34 25 -67 62 -77 79 -48 74 13 30 92 callgsubr
          52 68 41 493 callsubr
          rrcurveto
          250 callsubr
          274 callgsubr
          48 -40 72 -105 callsubr
        </CharString>
        <CharString name="dvB_L_YA">
          769 1165 158 callsubr
          -1008 -401 rmoveto
          33 callsubr
          90 271 rmoveto
          30 -8 27 -35 22 -37 -18 -23 -14 -24 -7 -24 -38 36 -35 40 -30 37 381 callsubr
          1208 184 -99 callgsubr
          -1197 -101 callgsubr
          785 hlineto
          -82 callgsubr
          -7 -81 -157 -54 -74 -55 -30 -13 -28 -11 -27 -9 -7 5 rcurveline
          15 21 10 23 10 16 -40 callgsubr
          -35 -15 -36 -25 -31 -30 -27 49 -44 61 -54 8 rrcurveto
          59 callgsubr
          37 40 44 46 40 42 18 -74 69 -92 87 -54 68 13 30 49 -10 35 -86 48 -37 54 -11 59 2 55 42 60 44 17 30 -7 18 -22 5 -24 -6 -21 -15 -23 -19 -22 rrcurveto
          -2 -34 47 -38 66 -6 22 9 21 11 21 12 rrcurveto
          -52 31 81 -51 51 hhcurveto
          22 callsubr
          hvcurveto
          305 callgsubr
          48 -40 72 -105 callsubr
        </CharString>
        <CharString name="dvB_NA">
          351 470 389 callsubr
          -277 -12 205 callgsubr
          119 89 rmoveto
          -39 35 -36 40 -32 37 18 16 20 12 20 5 32 -8 26 -69 10 -54 rrcurveto
          -22 -84 rmoveto
          357 callgsubr
          -11 43 8 callsubr
          -110 -71 -155 -78 -120 -56 -18 78 -38 91 -67 15 298 callgsubr
          32 39 36 37 34 rrcurveto
          758 402 rmoveto
          -1057 -101 callgsubr
          1056 -107 callsubr
        </CharString>
        <CharString name="dvB_R">
          -306 275 274 rmoveto
          -29 -20 -29 -19 -24 -15 rrcurveto
          -25 17 -11 23 25 vvcurveto
          27 11 29 18 25 vhcurveto
          25 -29 33 -35 31 -28 rrcurveto
          130 102 rmoveto
          -28 48 -48 78 -55 12 rrcurveto
          -143 -6 -100 -130 -106 vvcurveto
          -67 43 -59 94 -11 vhcurveto
          52 43 65 45 51 39 12 -15 rcurveline
          -83 -89 -138 -82 -125 -44 366 callgsubr
          168 102 138 113 37 100 -24 34 rcurveline
          0 vlineto
          -22 36 -40 -28 -34 34 -31 35 -27 34 rlinecurve
          18 15 20 10 21 5 33 -11 29 -40 21 -37 rrcurveto
          144 276 rmoveto
          -489 -101 callgsubr
          489 -92 callsubr
        </CharString>
        <CharString name="dvB_RA">
          -34 354 329 rmoveto
          -37 -26 -38 35 -28 31 -29 35 rlinecurve
          17 16 21 11 22 4 30 -9 24 187 callsubr
          -192 -70 rmoveto
          26 8 28 13 25 vhcurveto
          27 505 callgsubr
          -18 14 -9 21 27 vvcurveto
          525 341 rmoveto
          -129 -88 callsubr
          -6 -30 rcurveline
          -395 -101 callgsubr
          399 467 callsubr
          rlineto
          40 -26 -40 51 -35 hhcurveto
          -127 -115 -130 -111 -73 55 -54 82 -10 hvcurveto
          71 54 53 41 64 46 10 -10 rcurveline
          -85 -99 -146 -87 -133 -48 -13 -35 17 -30 52 -22 95 75 callsubr
          65 -10 42 129 callsubr
        </CharString>
        <CharString name="dvB_SA">
          494 899 439 rmoveto
          -64 -57 -134 139 callsubr
          -724 -385 465 callsubr
          29 9 31 15 27 vhcurveto
          31 -35 39 -38 30 -26 -28 -25 -28 -25 -26 -22 522 callsubr
          -16 -11 -12 -16 -9 -19 -37 34 -34 37 -29 36 18 18 21 14 22 5 rrcurveto
          937 188 0 callgsubr
          -921 -101 callgsubr
          429 hlineto
          -6 -4 -6 -5 -5 -4 -12 357 callsubr
          -14 5 -14 7 -12 9 -31 54 -59 112 394 callsubr
          42 40 41 70 -80 118 -103 94 -44 320 callgsubr
          48 110 40 51 75 hvcurveto
          10 -11 -39 -51 -56 -243 48 -97 callgsubr
        </CharString>
        <CharString name="dvB_SHA">
          448 549 500 91 callsubr
          -436 -291 465 callsubr
          30 10 31 15 28 vhcurveto
          29 -34 39 -39 32 -28 -28 -25 -29 -24 -26 -23 522 callsubr
          -15 -11 -13 -16 -9 -18 -36 34 -34 38 -29 36 18 17 21 13 21 5 rrcurveto
          -261 188 549 callsubr
          407 183 callgsubr
          -13 6 -13 7 -13 8 -31 55 -59 111 394 callsubr
          43 40 40 67 -77 111 -100 96 -50 48 17 31 29 callsubr
          154 138 callgsubr
          -65 -4 -67 -46 -38 -48 rrcurveto
          733 hmoveto
          -91 callgsubr
          -77 -85 callsubr
          80 hlineto
          -120 -528 47 -97 callgsubr
        </CharString>
        <CharString name="dvB_TA">
          309 209 179 rmoveto
          -30 16 -15 33 40 vvcurveto
          32 11 33 17 28 vhcurveto
          30 -36 42 -41 33 -30 -29 -25 -30 -26 -29 -24 rrcurveto
          124 107 rmoveto
          -39 37 -37 41 -32 39 19 19 21 13 20 4 30 -8 36 -58 22 -41 -12 -9 -9 -13 -9 -15 rrcurveto
          692 328 -99 callgsubr
          -737 -101 callgsubr
          739 hlineto
          -30 -129 -86 -49 -110 -33 -97 -9 rlinecurve
          -26 49 -54 108 -66 9 rrcurveto
          -128 -122 -132 -119 -100 78 -60 114 -3 hvcurveto
          31 32 36 37 33 35 26 -76 61 -68 82 -63 147 callsubr
          64 17 106 40 81 49 340 callsubr
          -64 -276 48 -40 72 -105 callsubr
        </CharString>
        <CharString name="dvB_VA">
          257 641 251 callgsubr
          -47 -46 rrcurveto
          -29 66 callgsubr
          -452 -185 rmoveto
          33 callsubr
          90 271 rmoveto
          23 -6 21 -22 19 -27 -17 -26 -12 -28 -7 -29 -33 32 -30 35 -27 33 381 callsubr
          695 184 rmoveto
          -128 -88 callsubr
          -5 -30 rcurveline
          -687 -101 callgsubr
          691 153 callgsubr
          -67 503 callgsubr
          -27 42 -36 41 -44 6 rrcurveto
          59 callgsubr
          33 36 39 41 37 38 20 -67 67 -41 94 -2 42 67 callsubr
          -42 -61 -31 -135 -67 callgsubr
        </CharString>
        <CharString name="dvB_YA">
          341 737 159 callgsubr
          -571 -391 rmoveto
          -28 15 -14 31 38 vvcurveto
          34 8 33 15 28 vhcurveto
          29 -34 521 callgsubr
          77 262 rmoveto
          31 -8 32 -49 16 -45 -21 -12 -18 -12 -12 -13 -34 32 -31 35 -27 33 18 18 21 14 25 7 rrcurveto
          784 183 -99 callgsubr
          -769 -101 callgsubr
          357 hlineto
          -82 callgsubr
          -5 -59 -85 -45 -74 -41 -22 73 -48 72 -57 14 rrcurveto
          -139 -8 -110 -129 -127 vvcurveto
          256 callgsubr
          -2 vhcurveto
          28 30 36 40 35 39 rrcurveto
          -47 36 72 -43 47 hhcurveto
          22 callsubr
          hvcurveto
          305 callgsubr
          48 -40 72 -105 callsubr
        </CharString>
        <CharString name="dvC">
          -143 628 569 rmoveto
          7 callgsubr
          -630 -85 callsubr
          60 -201 rmoveto
          338 callsubr
          136 callgsubr
          109 24 128 114 73 99 -39 41 rcurveline
          -64 -88 -101 -72 -70 -15 81 callsubr
          364 callsubr
          rrcurveto
          endchar
        </CharString>
        <CharString name="dvCA">
          132 858 77 callsubr
          -569 -85 callsubr
          572 hlineto
          -39 -173 -64 -88 -101 -72 -70 -15 rlinecurve
          -23 2 -29 25 -3 18 216 callgsubr
          80 -7 vhcurveto
          85 19 97 74 73 78 13 -10 rcurveline
          -40 -70 -38 -168 47 -97 callgsubr
        </CharString>
        <CharString name="dvCH">
          125 512 410 rmoveto
          101 callgsubr
          -27 511 callgsubr
          rrcurveto
          301 213 80 callgsubr
          52 -80 61 -57 18 86 callsubr
          -10 9 rcurveline
          40 55 59 64 53 41 15 82 callsubr
          95 557 callgsubr
          404 -107 callsubr
        </CharString>
        <CharString name="dvCHA">
          125 203 139 -21 callgsubr
        </CharString>
        <CharString name="dvCH_NA">
          757 875 201 97 callsubr
          281 243 rmoveto
          -95 -410 47 -40 73 -11 41 188 callgsubr
          58 35 rrcurveto
          -645 -47 rmoveto
          101 callgsubr
          -27 511 callgsubr
          rrcurveto
          971 213 rmoveto
          -1459 -73 callsubr
          52 -80 61 -57 18 86 callsubr
          -10 9 rcurveline
          40 55 59 64 53 41 15 82 callsubr
          95 557 callgsubr
          1074 -107 callsubr
        </CharString>
        <CharString name="dvCH_RA">
          125 203 -73 rmoveto
          -1 -67 31 -66 48 -50 38 5 21 17 -2 30 -46 51 -12 39 -10 80 -31 29 -22 8 -45 -2 279 callsubr
          rrcurveto
          6 208 -21 callgsubr
        </CharString>
        <CharString name="dvCH_R_YA">
          723 208 -65 rmoveto
          -1 -67 30 -66 49 -51 433 callgsubr
          -12 38 -10 80 -32 29 -21 9 -45 -3 -63 475 callgsubr
          rrcurveto
          -31 26 -33 68 6 vhcurveto
          515 callsubr
          rrcurveto
          918 453 rmoveto
          -57 -83 -105 -78 -64 -78 callsubr
          -647 -159 rmoveto
          101 callgsubr
          -27 511 callgsubr
          rrcurveto
          937 213 -99 callgsubr
          -1147 -73 callsubr
          52 -80 61 -57 18 86 callsubr
          -10 9 rcurveline
          40 55 59 64 53 41 15 82 callsubr
          95 557 callgsubr
          351 hlineto
          -60 callgsubr
          31 3 21 96 callgsubr
          rrcurveto
          -9 -106 -266 556 callsubr
          111 -81 65 339 callsubr
          80 vhcurveto
          11 368 callsubr
          48 -40 72 -105 callsubr
        </CharString>
        <CharString name="dvCH_VA">
          136 199 528 callgsubr
          -34 29 -46 17 -35 -9 -40 -9 -34 -5 -5 10 rcurveline
          52 49 82 69 97 42 rrcurveto
          93 hlineto
          -30 -15 -28 -24 -15 -22 -15 -72 23 -66 24 -71 -69 -59 -88 -55 -81 -21 rrcurveto
          307 202 rmoveto
          -11 41 -6 36 7 29 4 11 6 8 8 2 17 -6 26 -19 4 -18 -7 -23 -20 -30 -28 -31 rrcurveto
          -80 -414 rmoveto
          -45 -39 -55 -40 -41 439 callgsubr
          14 -31 rrcurveto
          1 hlineto
          -7 -20 rlineto
          379 672 rmoveto
          -789 -85 callsubr
          225 hlineto
          -75 -39 -66 -50 -50 -45 -17 -47 38 -49 52 -25 43 10 45 14 35 11 5 -8 rcurveline
          -65 -39 -75 -62 -32 -60 -3 -54 54 418 callsubr
          -34 -11 -37 448 callsubr
          -7 -76 58 -48 94 -1 37 35 38 32 36 33 -15 -38 -16 -36 -16 -30 1 -31 35 -15 46 3 51 124 58 170 22 120 -6 49 -12 442 callsubr
          232 -107 callsubr
        </CharString>
        <CharString name="dvCH_YA">
          785 1181 390 rmoveto
          -59 -83 -103 -77 -63 -42 callsubr
          -709 -159 rmoveto
          101 callgsubr
          -27 511 callgsubr
          rrcurveto
          999 213 rmoveto
          -129 -94 callgsubr
          -1209 -73 callsubr
          52 -80 61 -57 18 86 callsubr
          -10 9 rcurveline
          40 55 59 64 53 41 15 82 callsubr
          95 557 callgsubr
          413 hlineto
          168 callgsubr
          29 16 32 3 20 2 25 -6 9 -14 rrcurveto
          -9 -106 -266 -59 -77 328 callsubr
          42 420 69 138 rlineto
          123 hlineto
          15 -50 callgsubr
          endchar
        </CharString>
        <CharString name="dvC_CA">
          619 1345 623 0 callgsubr
          -1056 -85 callsubr
          1059 hlineto
          -39 -173 -64 -88 -101 -72 -70 -15 rlinecurve
          81 callsubr
          -24 -16 -1 -48 27 -36 -68 -79 -91 -73 -69 -12 -27 192 callgsubr
          83 -7 vhcurveto
          113 18 133 136 76 98 -1 1 rcurveline
          71 5 70 10 61 9 136 callgsubr
          85 19 97 74 73 78 13 -10 rcurveline
          -40 -70 -38 -168 47 -97 callgsubr
        </CharString>
        <CharString name="dvC_CHA">
          580 659 139 rmoveto
          40 55 59 64 53 41 14 50 -28 42 -62 25 -37 -10 -46 -15 -36 -4 -7 484 callsubr
          -2 -19 -6 157 callsubr
          -1257 -85 callsubr
          696 hlineto
          -80 -40 -73 -52 -48 -47 -7 -22 5 -24 13 -22 -63 -72 -84 -56 -61 -13 61 callgsubr
          136 callgsubr
          96 21 112 92 74 89 10 -7 10 -7 11 -5 90 callgsubr
        </CharString>
        <CharString name="dvC_CH_VA">
          592 655 528 callgsubr
          -33 29 -47 17 -35 -9 -40 -9 -33 -5 -6 10 rcurveline
          53 49 81 69 97 42 rrcurveto
          93 hlineto
          -30 -15 -27 -24 -16 -22 -15 -72 23 -66 25 -71 -70 -60 -88 -54 -81 -21 rrcurveto
          307 201 rmoveto
          -10 42 -7 36 7 29 5 11 5 8 8 2 18 -6 25 -19 5 -18 -8 -23 -20 -30 -28 -32 rrcurveto
          -80 -413 rmoveto
          -44 -39 -55 -40 -42 439 callgsubr
          15 -31 -7 -20 rcurveline
          379 672 rmoveto
          -1257 -85 callsubr
          693 hlineto
          -75 -39 -66 -50 -50 -45 -8 -23 4 -23 13 -21 -63 -75 -87 -59 -63 -13 61 callgsubr
          136 callgsubr
          99 22 115 96 75 92 8 -5 8 -5 8 -4 43 10 46 14 35 11 4 -8 rcurveline
          -65 -39 -75 -62 -31 -60 -3 -54 53 418 callsubr
          -35 -11 -36 448 callsubr
          -6 -76 57 -48 94 -1 38 35 37 32 36 32 -15 -38 -16 -35 -16 -30 1 -31 35 -15 46 3 52 124 57 170 22 120 -5 49 -13 442 callsubr
          233 -92 callsubr
        </CharString>
        <CharString name="dvC_MA">
          495 590 204 134 callgsubr
          -1208 -85 callsubr
          640 450 callsubr
          -5 -3 -5 -3 -4 -4 -56 -39 -54 -28 -48 -9 61 callgsubr
          136 callgsubr
          64 16 62 36 53 41 32 -47 54 -32 53 -10 rrcurveto
          46 55 15 32 27 hvcurveto
          20 53 19 78 15 82 45 24 45 25 44 26 10 -6 rcurveline
          -95 93 callsubr
        </CharString>
        <CharString name="dvC_NA">
          466 584 270 callsubr
          -9 -32 rrcurveto
          -292 179 rmoveto
          -85 -44 -131 -31 -58 vvcurveto
          -56 93 -73 80 -7 vhcurveto
          63 16 62 36 53 40 35 -49 57 -26 64 -11 42 3 52 21 16 28 11 56 -1 68 -19 58 94 callgsubr
          -122 466 callsubr
          -4 -3 -4 -4 -4 -4 -57 -39 -54 -28 -49 -10 61 callgsubr
          rrcurveto
          894 228 rmoveto
          -1180 -85 callsubr
          1180 -107 callsubr
        </CharString>
        <CharString name="dvC_R">
          -143 571 366 rmoveto
          -27 52 -68 -89 -108 -80 -73 -16 180 callsubr
          85 20 95 70 74 75 15 -15 rcurveline
          -65 -104 -150 -92 -142 -55 -12 -35 409 callgsubr
          148 96 124 88 98 147 -37 74 rcurveline
          97 273 rmoveto
          -643 -85 callsubr
          643 -107 callsubr
        </CharString>
        <CharString name="dvC_RA">
          132 858 77 callsubr
          -569 -85 callsubr
          572 hlineto
          -37 -162 -64 -83 -104 -76 -69 -15 180 callsubr
          91 21 102 79 75 80 14 -13 rcurveline
          -56 -105 -169 -108 -145 -55 -12 -35 17 -30 52 -22 95 75 callsubr
          65 -10 42 20 -97 callsubr
        </CharString>
        <CharString name="dvC_YA">
          502 899 -48 callsubr
          289 54 rmoveto
          -128 -88 callsubr
          -7 -30 rcurveline
          -939 -85 callsubr
          527 hlineto
          -3 -2 -3 -3 -3 -2 -15 219 callgsubr
          -8 -89 -191 -56 -60 -62 -61 -40 -64 -32 -48 -5 -23 192 callgsubr
          80 -7 vhcurveto
          72 15 71 42 63 46 rrcurveto
          -51 32 80 -50 51 hhcurveto
          339 callsubr
          79 hvcurveto
          12 -11 -43 -67 -39 -169 47 -97 callgsubr
        </CharString>
        <CharString name="dvCandrabindu">
          4 799 rmoveto
          31 26 26 31 32 -26 25 -31 -33 -26 -25 -32 -31 26 -26 33 hvcurveto
          103 45 rmoveto
          -31 -56 -43 -33 -65 -11 -51 40 -27 65 -2 77 -46 20 -43 -19 -31 -49 rrcurveto
          -103 23 103 -90 71 hhcurveto
          77 101 42 65 48 hvcurveto
          -15 43 -32 20 -37 -11 rrcurveto
          endchar
        </CharString>
        <CharString name="dvD">
          -42 47 314 callgsubr
          611 642 43 callsubr
        </CharString>
        <CharString name="dvDA">
          -42 658 623 43 callsubr
        </CharString>
        <CharString name="dvDA_mU">
          104 callsubr
          -87 -92 -254 -33 -138 vvcurveto
          -95 113 -88 132 -12 vhcurveto
          45 58 40 57 36 38 9 -6 rcurveline
          -28 -57 -29 -67 -29 -73 -45 -3 -53 -20 -40 -26 1 -39 29 -31 46 -13 30 24 18 14 32 7 rrcurveto
          6 6 -5 -4 4 hvcurveto
          -7 -48 -57 -40 -61 -15 -87 35 -31 56 488 callsubr
          98 -3 rrcurveto
          96 3 156 84 75 vvcurveto
          18 -17 19 -22 17 vhcurveto
          26 99 22 70 40 100 200 callsubr
        </CharString>
        <CharString name="dvDA_mUU">
          104 callsubr
          -87 -92 -254 -33 -138 vvcurveto
          -95 113 -88 132 -12 vhcurveto
          45 58 40 57 36 38 9 -6 rcurveline
          -29 -58 -28 -66 -30 -78 rrcurveto
          3 -14 -14 2 -12 hhcurveto
          -60 -77 -71 -40 -39 42 -55 62 -35 hvcurveto
          62 20 24 25 -4 40 -30 17 -29 20 -18 27 5 10 5 6 7 5 102 -37 59 -54 67 -97 63 16 33 37 -6 41 -32 38 -58 43 -60 32 25 97 20 74 43 107 rrcurveto
          200 callsubr
        </CharString>
        <CharString name="dvDA_mvR">
          245 callgsubr
          110 -90 143 -12 vhcurveto
          47 58 40 57 34 38 8 -6 rcurveline
          -19 -54 -26 -58 -31 -76 -88 -38 -96 -77 -3 -57 rrcurveto
          -39 -1 57 -56 51 hhcurveto
          82 96 17 59 65 hvcurveto
          8 29 -24 27 -51 11 -46 -40 -53 -33 -76 2 -14 20 rcurveline
          33 55 63 36 85 34 38 113 22 63 39 93 -32 59 -60 18 -40 -12 -30 -31 -54 -63 -49 -52 -46 15 -44 41 -8 42 355 callsubr
          62 534 callsubr
          rrcurveto
          12 callgsubr
        </CharString>
        <CharString name="dvDD">
          -85 187 456 callsubr
          26 14 11 521 callsubr
          453 642 -89 callsubr
        </CharString>
        <CharString name="dvDDA">
          -85 640 623 -89 callsubr
        </CharString>
        <CharString name="dvDDH">
          11 242 378 callgsubr
          128 -35 99 -47 102 -71 27 14 11 15 -2 21 -71 79 -127 89 -102 35 rrcurveto
          190 203 -64 callgsubr
        </CharString>
        <CharString name="dvDDHA">
          11 432 184 -64 callgsubr
        </CharString>
        <CharString name="dvDDH_DDHA">
          -80 373 264 533 callsubr
          -15 5 -13 8 -13 8 46 32 47 31 34 21 21 -7 12 -7 9 -14 rrcurveto
          -65 -409 533 callsubr
          -14 6 -14 7 -12 8 45 32 47 31 33 22 22 -8 12 -7 9 -14 rrcurveto
          332 768 490 callgsubr
          258 hlineto
          29 -18 20 -14 16 -25 -3 -7 rcurveline
          -54 -42 -121 -48 -76 -44 -22 -19 -14 -33 -3 -32 22 -79 93 -71 87 -5 9 -8 9 -9 7 -12 158 callgsubr
          -10 10 -11 8 -12 8 72 26 79 52 3 45 rrcurveto
          36 2 -57 53 -80 hhcurveto
          -49 -35 -60 -39 -60 -43 -13 16 -7 17 -1 16 2 43 176 58 66 59 24 26 12 26 -11 27 -13 15 -16 12 -18 11 rrcurveto
          258 -107 callsubr
        </CharString>
        <CharString name="dvDDH_R">
          11 123 316 callsubr
          22 14 9 14 -3 19 -66 61 -112 66 -88 530 callsubr
          -47 12 -41 36 -47 vhcurveto
          42 6 19 14 2 21 -31 46 -5 25 -2 55 -30 27 -23 9 -48 -3 -60 -33 -52 -48 -45 -60 -1 -26 22 -29 71 3 29 64 24 34 35 32 rrcurveto
          151 246 rmoveto
          -18 -43 -52 -36 -66 -12 -17 6 -16 9 -15 10 58 40 48 35 37 22 17 -6 16 -12 8 -13 rrcurveto
          304 421 rmoveto
          -695 -85 callsubr
          259 hlineto
          41 -25 29 -18 21 -32 -4 -10 rcurveline
          -66 -51 -140 -57 -86 -51 rrcurveto
          -29 -25 -12 -35 -39 vvcurveto
          34 -91 111 -84 109 -4 rrcurveto
          88 179 90 73 40 -73 64 -95 -1 hvcurveto
          -65 -49 -55 -41 -67 -48 rrcurveto
          -16 19 -10 21 20 vvcurveto
          56 200 63 78 71 vhcurveto
          26 31 12 28 -11 29 -20 22 -27 18 -30 16 rrcurveto
          315 -92 callsubr
        </CharString>
        <CharString name="dvDDH_RA">
          11 271 256 callsubr
          541 callgsubr
          51 46 rrcurveto
          168 281 -64 callgsubr
        </CharString>
        <CharString name="dvDDH_YA">
          608 984 360 callsubr
          39 -45 26 -62 12 -106 -9 -114 -18 -110 -34 1 8 -3 7 -2 8 -19 20 -30 20 -34 18 rrcurveto
          641 hlineto
          -600 -385 rmoveto
          -23 -46 -55 -40 -73 -10 -19 7 -18 9 -16 11 55 37 59 41 40 25 21 -8 19 -12 10 -14 rrcurveto
          889 439 0 callgsubr
          -1013 -85 callsubr
          257 hlineto
          43 -26 34 -21 23 -33 -4 -10 rcurveline
          -68 -53 -148 -60 -92 -54 rrcurveto
          -26 -22 -16 -40 -40 vvcurveto
          34 -95 119 -86 108 -5 rrcurveto
          101 2 172 94 72 vvcurveto
          46 -72 58 -94 3 vhcurveto
          -64 -49 -68 -50 -66 -50 rrcurveto
          -21 23 -13 25 23 vvcurveto
          54 196 81 98 61 vhcurveto
          137 45 136 18 92 -9 rrcurveto
          -3 -104 -244 469 callsubr
          65 309 callgsubr
          -36 -152 48 -97 callgsubr
        </CharString>
        <CharString name="dvDDHxA">
          11 225 -25 -47 callsubr
          207 209 -64 callgsubr
        </CharString>
        <CharString name="dvDD_DDA">
          -85 640 623 161 callsubr
          53 2 58 7 55 10 25 -9 22 -11 15 -14 -3 -6 rcurveline
          -63 -25 -74 -11 -79 -12 -52 -26 -19 -53 20 -38 76 -34 103 -7 75 -30 rrcurveto
          -6 vlineto
          -38 -78 -127 -10 -96 hhcurveto
          -30 -22 10 -44 46 -31 124 6 158 31 67 38 32 43 8 52 -32 24 -69 26 -103 11 -62 24 1 6 rcurveline
          67 15 86 12 60 26 33 25 16 45 -12 25 -17 16 -19 12 -22 10 40 11 33 12 23 13 32 43 8 52 -32 23 243 callgsubr
        </CharString>
        <CharString name="dvDD_DDHA">
          -80 308 -145 533 callsubr
          -14 6 -14 7 -12 8 45 32 47 31 33 22 22 -8 12 -7 9 -14 rrcurveto
          332 768 161 callsubr
          46 2 50 5 49 8 18 -12 14 -13 11 -18 158 callgsubr
          -14 16 -17 13 -19 11 52 13 44 15 29 16 32 43 8 52 -32 23 rrcurveto
          243 callgsubr
        </CharString>
        <CharString name="dvDD_NA">
          -80 96 -145 rmoveto
          -26 9 -21 16 -17 30 22 9 21 7 21 8 9 -23 4 -27 -5 -25 rrcurveto
          545 764 rmoveto
          -629 -101 callgsubr
          273 hlineto
          37 -13 40 -16 23 -22 -3 -6 rcurveline
          -64 -27 -75 -11 -81 -13 -53 -27 -20 -57 21 -40 77 -37 106 -7 76 -32 rrcurveto
          -6 vlineto
          -41 -80 -129 -10 -98 hhcurveto
          -31 -23 10 -47 47 -33 70 3 81 12 70 17 -15 -69 rcurveline
          -90 -40 -100 -38 486 callsubr
          54 7 21 12 19 30 9 42 0 508 callgsubr
          -31 -28 -55 -213 39 -32 58 -11 36 19 rlinecurve
          22 300 58 140 5 3 5 2 4 3 rlinecurve
          32 45 8 55 -33 25 -69 28 -106 12 -63 26 2 6 rcurveline
          67 16 88 13 62 28 33 26 16 48 -11 26 -14 14 -16 11 -16 9 rrcurveto
          216 -107 callsubr
        </CharString>
        <CharString name="dvDD_R">
          -85 55 115 callsubr
          437 667 490 callgsubr
          257 hlineto
          35 -15 37 -16 20 -23 -3 -7 rcurveline
          -61 -28 -80 -15 -85 -15 -57 -31 -20 -60 20 -44 82 -41 110 -9 81 -35 rrcurveto
          -7 vlineto
          -74 -46 -137 -17 -106 -1 -29 -25 9 -48 47 -37 131 7 170 41 68 45 34 50 6 59 -31 26 -74 31 -111 13 -68 29 3 11 rcurveline
          71 18 89 16 63 31 34 28 16 50 -10 29 -14 14 -16 12 -17 10 rrcurveto
          229 -107 callsubr
        </CharString>
        <CharString name="dvDD_RA">
          -85 207 256 callsubr
          26 83 33 57 51 46 rrcurveto
          440 720 -89 callsubr
        </CharString>
        <CharString name="dvDD_VA">
          -80 260 -42 rmoveto
          -40 -40 -44 -39 -38 -35 -22 11 -9 22 -1 31 rrcurveto
          60 44 65 54 12 vhcurveto
          26 -10 17 -24 18 -30 rrcurveto
          384 642 rmoveto
          -629 -101 callgsubr
          281 hlineto
          36 -12 35 -14 20 -20 -2 -6 rcurveline
          -63 -25 -72 -11 -78 -12 -52 -26 -19 -53 20 -39 75 -35 102 -6 73 -31 1 -6 rcurveline
          -38 -78 -125 -9 -95 hhcurveto
          -29 -22 9 -45 46 -31 69 3 80 11 68 17 -20 -116 rcurveline
          482 callsubr
          -102 1 hvcurveto
          1 -75 63 -49 94 -1 40 42 36 37 37 39 6 -6 rcurveline
          -33 -45 -22 -87 534 callgsubr
          24 308 60 157 11 6 32 43 8 52 -32 23 rlinecurve
          -68 27 -102 11 -61 25 1 5 rcurveline
          66 16 85 12 59 26 33 25 16 45 -12 25 -13 12 -13 10 -15 8 rrcurveto
          214 -107 callsubr
        </CharString>
        <CharString name="dvDD_YA">
          517 906 355 rmoveto
          -49 -68 -100 -71 -51 450 callgsubr
          36 -44 29 -56 12 -109 -10 -89 -20 -97 -31 2 14 0 13 -3 10 -16 18 -19 14 -19 12 rrcurveto
          567 165 callgsubr
          -946 -101 callgsubr
          253 252 callsubr
          -3 -67 callsubr
          73 24 84 29 85 24 113 31 117 25 88 -5 rrcurveto
          -3 -104 -245 -40 -78 vvcurveto
          -58 106 -73 64 309 callgsubr
          -35 -152 47 -97 callgsubr
        </CharString>
        <CharString name="dvDDxA">
          -85 178 -24 280 callgsubr
          462 647 -89 callsubr
        </CharString>
        <CharString name="dvDH">
          -172 152 492 71 callsubr
          16 -307 rmoveto
          43 49 54 49 61 44 20 callsubr
          109 24 194 139 62 94 -49 42 rcurveline
          -60 -78 -137 -99 -101 -32 rrcurveto
          440 445 rmoveto
          -150 300 callgsubr
          152 -92 callsubr
        </CharString>
        <CharString name="dvDHA">
          103 152 492 71 callsubr
          653 127 -99 callgsubr
          -61 300 callgsubr
          65 hlineto
          -42 -183 -60 -78 -136 -98 -101 -32 rlinecurve
          -8 11 43 49 54 49 61 44 rlinecurve
          20 callsubr
          85 19 136 88 86 83 10 -11 rcurveline
          -39 -50 -41 -176 48 -40 72 -105 callsubr
        </CharString>
        <CharString name="dvDH_MA">
          449 611 333 callgsubr
          516 callsubr
          -6 -3 -5 -5 -4 -4 -54 -42 -72 -48 -80 -27 -8 11 rcurveline
          55 callsubr
          185 358 callgsubr
          -402 281 71 callsubr
          998 127 rmoveto
          -744 hlineto
          -11 66 -42 34 -42 -23 callgsubr
          68 16 82 52 64 50 32 -44 52 -30 51 -10 132 callgsubr
        </CharString>
        <CharString name="dvDH_NA">
          419 152 492 71 callsubr
          362 -295 211 callgsubr
          -715 hlineto
          -11 66 -42 34 -42 -23 callgsubr
          67 16 82 51 63 50 35 -46 56 -25 62 -10 42 8 callsubr
          -121 466 callsubr
          -5 -4 -4 -4 -4 -4 -53 -43 -73 -48 -82 -28 -8 11 rcurveline
          55 callsubr
          723 -107 callsubr
        </CharString>
        <CharString name="dvDH_N_YA">
          843 1239 -63 callgsubr
          -1087 -380 rmoveto
          55 callsubr
          458 hlineto
          -82 callgsubr
          -6 -75 -135 -51 -79 -51 -134 31 -212 -12 -98 -62 -3 -2 -2 -2 -3 -3 rrcurveto
          -58 -36 -64 -38 -73 -26 rrcurveto
          320 -1 337 callsubr
          29 24 15 26 12 28 9 8 -29 1 -30 -8 -31 rrcurveto
          -378 309 71 callsubr
          1393 127 -99 callgsubr
          -861 hlineto
          -11 66 -42 34 -42 -23 callgsubr
          61 15 68 40 62 42 35 -48 58 -26 63 -12 42 3 52 21 16 28 8 45 1 50 -9 48 55 4 56 -3 52 -6 rrcurveto
          -7 -9 -3 -8 -9 182 callsubr
          48 -40 72 -105 callsubr
        </CharString>
        <CharString name="dvDH_R">
          -173 358 callsubr
          316 -95 rmoveto
          -61 -78 -137 -99 -101 -31 -8 10 rcurveline
          44 50 53 48 59 43 121 callsubr
          83 22 130 87 82 81 10 -15 rcurveline
          -73 -114 -146 -82 -135 -50 269 callgsubr
          144 94 126 88 97 147 -41 62 rcurveline
          10 13 8 12 6 12 rrcurveto
          87 250 rmoveto
          -143 300 callgsubr
          144 -107 callsubr
        </CharString>
        <CharString name="dvDH_RA">
          104 358 callsubr
          642 119 -99 callgsubr
          -61 300 callgsubr
          65 hlineto
          -36 -160 -61 -78 -137 -99 -101 -31 rlinecurve
          -8 10 44 50 53 48 59 43 rlinecurve
          121 callsubr
          86 19 137 95 85 86 9 -9 rcurveline
          -39 -63 -82 -77 -133 -82 -112 -40 rlinecurve
          269 callgsubr
          95 54 119 86 55 247 callgsubr
          123 hlineto
          15 -50 callgsubr
          endchar
        </CharString>
        <CharString name="dvDH_VA">
          405 790 319 218 callgsubr
          28 -38 20 -38 rrcurveto
          -646 141 71 callsubr
          955 127 59 callsubr
          -365 300 callgsubr
          371 548 callgsubr
          -34 -1 rlinecurve
          -85 -79 -55 -72 -46 hvcurveto
          -2 1 -60 -78 -137 -99 -101 -32 rlinecurve
          -8 11 43 49 54 49 61 44 rlinecurve
          20 callsubr
          75 17 115 70 85 74 1 -93 75 -58 111 -3 78 callgsubr
          -43 -61 -31 -135 48 -40 72 -105 callsubr
        </CharString>
        <CharString name="dvDH_YA">
          443 840 -48 callsubr
          -688 -380 rmoveto
          55 callsubr
          58 hlineto
          -3 -2 -3 -3 -3 -2 -15 219 callgsubr
          -7 -81 -159 -54 -73 -56 -1 1 rcurveline
          -60 -49 -85 -61 -83 -27 rrcurveto
          -48 314 71 callsubr
          993 127 -93 callgsubr
          -462 hlineto
          -11 66 -42 34 -42 -23 callgsubr
          73 18 86 54 70 54 rrcurveto
          -48 34 75 -46 49 hhcurveto
          339 callsubr
          79 hvcurveto
          12 -11 -43 -67 -39 -169 47 -97 callgsubr
        </CharString>
        <CharString name="dvD_BA">
          50 callsubr
          48 59 rrcurveto
          0 vlineto
          42 50 34 50 31 35 23 callgsubr
        </CharString>
        <CharString name="dvD_BHA">
          -13 420 185 rmoveto
          -11 -32 -23 -62 -24 -68 -40 -19 -44 -18 -46 -16 11 33 9 33 9 32 15 -3 15 -3 16 -1 43 53 31 38 30 38 rrcurveto
          -340 -390 rmoveto
          -18 11 -15 15 -13 22 29 9 28 9 29 9 -9 -22 -9 -23 -13 -26 rrcurveto
          100 288 rmoveto
          -5 -23 -7 -24 -7 -22 -72 -11 rcurveline
          -10 7 -6 10 -3 12 32 19 40 17 32 19 rrcurveto
          540 527 rmoveto
          -697 -87 callgsubr
          294 hlineto
          41 -23 33 -22 17 -25 -4 -8 rcurveline
          -91 -100 -245 -9 -127 vvcurveto
          -45 25 -42 40 -32 vhcurveto
          -32 -18 -34 -16 -28 -10 -15 -8 -13 -27 -3 -18 4 -32 36 -37 46 -15 79 27 rcurveline
          4 -8 -17 -20 -2 -6 -2 -6 -2 -6 rlinecurve
          -52 -16 -50 -14 -43 -11 -32 -12 -12 -31 -2 -24 16 -42 45 -41 46 -18 35 -5 43 8 28 25 21 50 19 53 18 52 43 16 42 16 42 19 -24 -68 -23 -67 -14 -46 rrcurveto
          9 -37 49 -21 65 5 34 158 58 220 42 115 -36 56 -60 16 -37 -12 -24 -29 -46 -50 -43 -43 -51 12 -46 32 -17 46 66 67 139 42 62 50 34 34 15 43 -13 32 rrcurveto
          -16 20 -23 17 -26 16 rrcurveto
          285 -107 callsubr
        </CharString>
        <CharString name="dvD_B_RA">
          50 callsubr
          47 59 rrcurveto
          0 vlineto
          39 53 39 54 33 45 9 -5 rcurveline
          -15 -48 -29 -92 -34 -108 -82 -79 -118 -71 -108 -41 288 callsubr
          85 54 103 76 54 63 9 -6 rcurveline
          -38 -80 20 -25 38 -9 51 4 rlinecurve
          36 147 46 226 41 111 -36 57 -60 15 -37 -11 -26 -31 -60 -78 -49 -55 -45 15 -43 42 -8 41 355 callsubr
          62 51 34 34 17 45 -13 32 12 callgsubr
        </CharString>
</ttFont>
